<?xml version="1.0" standalone="no"?>
<!DOCTYPE svg PUBLIC "-//W3C//DTD SVG 1.1//EN" "http://www.w3.org/Graphics/SVG/1.1/DTD/svg11.dtd" >
<svg xmlns="http://www.w3.org/2000/svg">
<metadata></metadata>
<defs>
<font id="buccaneerregular" horiz-adv-x="1232" >
<font-face units-per-em="2048" ascent="1638" descent="-410" />
<missing-glyph horiz-adv-x="874" />
<glyph horiz-adv-x="2048" />
<glyph horiz-adv-x="2048" />
<glyph unicode="&#xd;" horiz-adv-x="874" />
<glyph unicode=" "  horiz-adv-x="874" />
<glyph unicode="&#x09;" horiz-adv-x="874" />
<glyph unicode="&#xa0;" horiz-adv-x="874" />
<glyph unicode="!" horiz-adv-x="442" d="M66 1538l98 25q6 0 43 -5.5t53 -5.5q14 0 53 2q63 4 64 -24q0 -12 -17.5 -67.5t-17.5 -65.5v-402q0 -57 -18 -145l-29 -137q-31 -147 -31 -264q0 -33 6 -33l-73 -4l-35 946q-2 31 -10 61q-25 82 -72 78q-6 0 -9 21.5t-5 19.5zM100 113q0 45 29 77.5t68 32.5 q41 0 68.5 -32.5t27.5 -77.5q0 -47 -27.5 -80t-68.5 -33q-39 0 -68 33t-29 80z" />
<glyph unicode="&#x22;" horiz-adv-x="749" d="M78 1532q0 35 36 66.5t83 31.5q131 1 131 -151q0 -82 -62 -142q-39 -39 -123 -75q-12 0 -27.5 19t-15.5 34q0 8 50.5 48t58.5 60q-25 -4 -35 -4q-43 0 -69.5 33t-26.5 80zM422 1532q0 35 36 66.5t83 31.5q131 1 131 -151q0 -82 -62 -142q-39 -39 -123 -75q-12 0 -27.5 19 t-15.5 34q0 8 50.5 48t58.5 60q-25 -4 -35 -4q-43 0 -69.5 33t-26.5 80z" />
<glyph unicode="#" horiz-adv-x="1357" d="M35 838l282 -11l152 381l-317 6v162l215 -45l79 -22l56 45l73 350h138l-88 -395l309 -47l37 100l73 350h138l-109 -432l252 -18l-8 -101l-268 8l-103 -362l279 -8l-56 -193l-161 62h-101l-184 -660h-137l22 320l119 342l-285 2l-188 -672h-137l22 319l123 353l-203 2z M485 823l293 -10l127 367l-319 12l-23 -92zM905 1180zM1073 1280z" />
<glyph unicode="$" horiz-adv-x="1433" d="M90 63v175q0 10 36 130.5t44 141.5q4 12 63 18q33 2 66 7q0 -324 162 -406l16 727q-352 199 -352 426q0 106 104.5 187t286.5 120l-8 86l-55 39l-23 72l164 -17l-4 -139h24q20 0 71.5 -27.5t66.5 -29.5l24 94l-55 39l-23 72l164 -17l-4 -162q74 -10 127 -10q78 0 260 51 v-591q-49 45 -78 51l-43 172q-41 47 -120 104q-43 33 -150 111l-14 -592q272 -170 346 -231q157 -129 157 -252q0 -162 -140 -268.5t-396 -143.5l-6 -199l-80 47l4 111q-20 -2 -41 -2q-88 0 -147 4l-5 -151l-79 47l-23 143q-27 -4 -84 10q-88 53 -256 53zM334 1352 q0 -80 158 -199l12 365q-170 -29 -170 -166zM461 129zM492 1153zM504 1518zM537 -39zM539 100q12 -2 75 -2q90 0 107 2l27 625q-49 29 -183 102zM563 1518l25 -426q63 -68 172 -164l12 588q-51 10 -158 10q-2 0 -25.5 -4t-25.5 -4zM565 827zM590 1630zM725 -41zM772 1516z M811 121q219 59 219 256q0 158 -203 297zM811 121zM827 674zM858 1599z" />
<glyph unicode="%" horiz-adv-x="634" d="M18 0l23 319l362 1035l76 350h137l-151 -604l-309 -1100h-138z" />
<glyph unicode="&#x26;" horiz-adv-x="2048" d="M47 494q0 106 156 268l153 160q-137 41 -223 132t-86 201q0 197 219 299q176 82 424 82q162 0 223.5 -61.5t61.5 -222.5q0 -76 -85 -134.5t-200 -58.5q-100 0 -157.5 53.5t-57.5 139.5q0 4 47 71q53 76 72 117h-72q-150 -51 -192.5 -98t-42.5 -162q0 -98 77.5 -180 t182.5 -82q-8 0 35 13t98 22q76 12 154 12q-18 -63 -197 -150q-225 -109 -260 -135q-90 -70 -90 -262q0 -158 124 -269.5t304 -111.5q289 0 453.5 140.5t164.5 381.5q0 123 -44 169t-169 46q-94 0 -154.5 -56t-60.5 -134q0 -35 52.5 -77t91.5 -42q43 0 165 72v-49 q-63 -119 -190 -119q-66 0 -128 67.5t-62 147.5q0 139 85 224t224 85q102 0 223 -67q70 -39 178 -127q84 -68 98 -68q94 0 167 112.5t73 268.5q0 166 -104.5 285t-253.5 119q-190 0 -191 -117q0 -39 66.5 -91.5t124.5 -52.5q37 0 37 58q0 23 -5 51l-8 57h94q2 -20 9 -51 q0 -27 -9 -43q39 -57 39 -92q0 -76 -133 -76q-100 0 -217 65.5t-117 127.5q0 268 246 268q45 0 64 -6q244 0 360.5 -122t116.5 -380q0 -150 -117 -330q-127 -195 -264 -194q-47 0 -69.5 9t-98.5 62q-111 -399 -272.5 -533t-536.5 -134q-283 0 -439.5 133t-156.5 369z M618 1303q100 -47 97 -48q31 0 62.5 26t31.5 46q0 53 -43 90q-39 27 -76 51v-165h-72z" />
<glyph unicode="'" horiz-adv-x="454" d="M102 1532q0 35 36 66.5t83 31.5q131 1 131 -151q0 -82 -61 -142q-39 -39 -123 -75q-12 0 -27.5 19t-15.5 34q0 8 50 48t58 60q-25 -4 -34 -4q-43 0 -70 33t-27 80z" />
<glyph unicode="(" horiz-adv-x="634" d="M18 696q0 43 25 183l2 16q33 178 41 215q41 176 86 227q111 123 313 197l125 45l6 -18l-118 -41q-121 -41 -231.5 -158t-125.5 -205q-12 -76 -12 -330q0 -242 211 -612q57 -94 195 -344l10 -21l-174 -90l-56 88q-133 211 -213 435q-84 236 -84 413z" />
<glyph unicode=")" horiz-adv-x="811" d="M37 1567l170 94l61 -92q25 -37 74 -106.5t72 -104.5q92 -139 135 -250l135 -352q90 -240 90 -318q0 -37 -29 -196q-51 -287 -442 -437l-123 -47l-2 17l115 43q121 45 235 172q102 113 113 184l12 82q2 6 -15 93t-17 91q0 27 4 54q2 20 -23 86q-51 133 -287 571 q-16 31 -133 190q-113 154 -135 203z" />
<glyph unicode="*" horiz-adv-x="1185" d="M213 1485q0 33 31 37l295 -148l26 307q16 8 27 9q14 0 31 -9l22 -307l295 148q14 -2 24.5 -17.5t6.5 -31.5l-275 -191l273 -186q2 -10 2 -19q0 -29 -33 -33l-293 152l-22 -307q-10 -8 -29 -8q-18 0 -29 8l-26 307l-293 -152q-31 4 -31 33q0 8 2 19l268 186l-270 191 q-2 6 -2 12z" />
<glyph unicode="+" horiz-adv-x="980" d="M37 508v117h385v387h139l37 -353l348 -34v-117h-385v-428h-139l-47 426z" />
<glyph unicode="," horiz-adv-x="577" d="M164 143q0 35 36 67t83 32q131 0 131 -152q0 -82 -62 -141q-39 -39 -123 -76q-12 0 -27.5 19.5t-15.5 33.5q0 8 50.5 48t58.5 61q-25 -4 -35 -4q-43 0 -69.5 32.5t-26.5 79.5z" />
<glyph unicode="-" horiz-adv-x="782" d="M45 446l84 142l96 28l512 -28l-84 -142l-188 27z" />
<glyph unicode="." horiz-adv-x="577" d="M164 156q0 35 36 66.5t83 31.5q104 0 123 -92q8 -41 8 -60q0 -23 -6 -41l-62 -61l-61 -12l-86 61q-35 35 -35 107z" />
<glyph unicode="/" horiz-adv-x="634" d="M18 0l23 319l362 1035l76 350h137l-151 -604l-309 -1100h-138z" />
<glyph unicode="0" horiz-adv-x="1318" d="M102 801q0 233 123 545q14 16 35 43q35 98 193 186q139 78 223 78q444 0 569 -582q-2 -33 -12 -98q-16 -117 -16 -176q0 -174 -3 -191q-20 -178 -145 -377q-147 -236 -324 -235q-197 0 -265 44t-187 230q-190 303 -191 533zM416 823q-4 -39 25.5 -285.5t54.5 -289.5 q41 -70 90 -96.5t143 -26.5q47 0 95 46t53 99q23 135 22 142q0 129 6 250l8 161q6 63 15 187q4 82 4 172q0 38 -2 104q0 8 -30 25.5t-40 42.5q-35 92 -67 119q-57 49 -140 49q-72 0 -142.5 -92.5t-70.5 -172.5q0 -143 -8 -239z" />
<glyph unicode="1" horiz-adv-x="925" d="M84 49v53q47 25 129 31l96 8q39 16 39 78v1186q-29 31 -65 31q16 0 -61 -6.5t-113 -6.5l-13 15v49q430 178 445 178q70 0 69 -375q0 -35 -6 -207l-4 -114v-523q0 -143 10 -194q25 -127 117 -127q2 0 28.5 5t32.5 5q27 0 54 -22v-74q-18 -35 -60 -35h-395 q-18 0 -155.5 22.5t-147.5 22.5z" />
<glyph unicode="2" horiz-adv-x="1296" d="M88 70q0 317 213 524q37 35 397 270q213 139 213 299q0 113 -67.5 177.5t-184.5 64.5q-143 0 -239 -80q-57 -47 -123 -147q-53 -80 -84 -80q-59 0 -59 53q0 227 202 371q63 45 195 53q145 10 203 35q33 14 77 14q141 0 248 -98q131 -123 131 -307q0 -285 -147 -412 q-39 -33 -344 -176q-258 -121 -412 -332q51 -27 215 -27q362 0 547 129q68 47 80 48h45q16 -16 16 -39q0 -49 -98 -228q-102 -184 -139 -184q16 0 -162 2l-711 8q-12 51 -12 62z" />
<glyph unicode="3" horiz-adv-x="1286" d="M98 422q0 31 30 57.5t58 26.5q55 0 99 -90q61 -129 92 -164q76 -88 213 -88q147 0 229 97t82 271q0 121 -98 223.5t-213 102.5q-4 0 -34 -6t-34 -6q-23 0 -61 35v75q90 31 184 123q125 123 125 262q0 59 -37 95.5t-96 36.5q-147 0 -295 -138q-53 -49 -61 -49 q-18 0 -35 22.5t-17 43.5q0 102 193 223q174 109 256 108q123 0 244 -81q145 -98 145 -256q0 -117 -92 -224q-10 -12 -162 -180q201 0 299 -160q76 -122 76 -286q0 -242 -250 -385q-193 -111 -383 -111q-150 0 -295 123q-162 135 -162 299z" />
<glyph unicode="4" horiz-adv-x="1294" d="M102 520q0 47 179.5 348t341.5 521q203 276 272 276q117 0 117 -164q0 -16 -2 -76l-4 -63q0 -383 -9 -494l-4 -55q-6 -94 15 -156q12 -33 69 -53q25 -11 115 -29q0 -29 -17.5 -73.5t-31.5 -44.5q-4 0 -14.5 5t-14.5 5q-117 0 -117 -174q0 2 4.5 -89t4.5 -108 q-2 -51 -13 -90h-229q-4 14 -4 55q0 209 -4 246q-16 150 -92 150q-2 0 -73 -12.5t-77 -12.5q20 0 -33 3t-127 5l-172 4q-80 10 -80 76zM291 637q0 -18 19.5 -33.5t45.5 -15.5q39 0 105 -4l98 -6q18 -2 108.5 21.5t94.5 23.5q0 676 -14 690q-55 -59 -250 -342 q-207 -299 -207 -334z" />
<glyph unicode="5" horiz-adv-x="1378" d="M143 219q0 25 18.5 59.5t33.5 34.5q10 0 69 -45q170 -131 303 -131q203 0 297 104.5t94 329.5q0 172 -81.5 244t-286.5 72q-152 0 -258 -74q-39 -27 -45 -27q-39 0 -88 48q-4 129 71 370q16 51 140 438q127 -8 467 -8q23 0 163 27l142 27q25 0 51 -11v-61 q0 -174 -139 -230q-74 -29 -246 -28q-16 0 -96 6l-103 6q-131 0 -180 -31q-72 -45 -72 -192v-33q-2 -2 -2 -4q2 -4 19 -4q-10 0 93 21.5t126 21.5q289 0 444.5 -140.5t155.5 -404.5q0 -268 -170 -443t-434 -175q-4 0 -82 10t-84 10q-100 0 -210 72t-110 141z" />
<glyph unicode="6" d="M76 702q0 10 19.5 72t17.5 98q8 51 8 121q0 55 6 70q61 145 119 215q104 125 340 262q43 25 131 58.5t108 33.5q49 0 68 -37v-36q-16 -10 -45 -31q-156 -39 -301.5 -202t-173.5 -329l16 -16q41 35 121 76q100 51 156 51q92 0 161 -35q172 -88 247 -197.5t75 -283.5 q0 -123 -14 -172q-55 -188 -115 -236q-236 -186 -387 -186q-72 0 -187 39q-141 47 -210 115q-20 18 -39 65l-60 145q-31 84 -53 177q0 -8 0 -4q2 6 2 24q0 8 -5 71.5t-5 71.5zM350 668q0 -193 43 -326q70 -215 230 -215q61 0 140 43t95 90q12 35 19 105q2 27 10 98 q6 43 12 65.5t6 14.5q0 164 -47 284q-10 29 -84 86q-86 68 -131 68q-119 0 -206 -93t-87 -220z" />
<glyph unicode="7" d="M94 1264q0 55 185 374q10 16 53 17q6 0 49 -32t59 -32q12 0 119 21q147 29 154 28l-2 -4q-2 -4 -2 -8q0 -16 47 -24q70 -12 157 -13q6 0 90 27t87 27q49 -1 49 -60q0 -51 -60 -178q-41 -88 -84 -156q-16 -27 -153 -217q-100 -141 -158.5 -251.5t-118.5 -403.5 q-10 -51 -10 -117q0 -70 25 -61q-96 -223 -107 -201q-8 16 -29 16q-4 0 -50 -7t-70 -7q-61 0 -72 2q-49 10 -119 -4q-6 18 -4 53q4 59 4 43q0 2 57.5 33t73.5 68l94 217q23 78 80 235q6 18 70 154q45 96 80 145q80 111 330 393q4 25 -35 25l-125 -10l-125 -10q-2 0 -86 6 l-90 4q-39 0 -171 -63.5t-114 -63.5h-66l-6 12q-6 12 -6 23z" />
<glyph unicode="8" horiz-adv-x="1302" d="M113 408q0 133 24 172q125 193 262 266q-127 119 -147 143q-74 86 -74 164q0 51 43 172q10 31 66 119q41 68 78 67q12 -12 34 -12q18 0 43 10q25 35 90 93l156 36q166 0 235.5 -27.5t143.5 -123.5q29 -35 49.5 -116t20.5 -142q0 -43 -128 -186.5t-128 -124.5 q0 -10 100 -97q117 -98 149 -143q2 -4 31 -8q23 -2 31 -33.5t4 -99.5q-6 -98 -6 -82q0 -154 -88 -260.5t-248 -147.5q-82 -39 -174 -39q-299 0 -373 66q-195 172 -194 334zM358 408q0 -272 322 -273q88 0 162 37q114 57 114 176q0 92 -100 221q-109 141 -221 142 q-76 0 -176.5 -108.5t-100.5 -194.5zM412 1276q0 -70 113.5 -173.5t193.5 -103.5q20 0 67.5 31t65.5 53q49 60 49 203q0 90 -69.5 151.5t-169.5 61.5q-82 0 -166 -73.5t-84 -149.5z" />
<glyph unicode="9" d="M84 1042q0 129 49 258q57 154 146 191q23 16 116 76q23 14 76 45q113 39 139 39q10 0 195 -74q49 -20 110 -45q80 -41 113 -88q66 -94 96 -275q25 -139 25 -276q0 -215 -113 -418q-131 -236 -391 -354q-47 -23 -141 -68q-100 -45 -144 -45q-63 0 -63 58q0 20 33 43 q141 47 233 112q78 55 177.5 187.5t99.5 181.5v39q2 2 2 4l-41 -37q-43 -37 -51 -37q0 2 3 12.5t3 12.5q0 8 -66 -19q-88 -37 -143 -37q-121 0 -259 96.5t-182 217.5q-23 63 -22 200zM340 1024q0 -160 22 -205q31 -61 97.5 -111.5t120.5 -50.5q51 0 127.5 34t115.5 75 q58 60 58 248q0 168 -37 289q-63 209 -228 208q-182 0 -243 -184q-33 -96 -33 -303z" />
<glyph unicode=":" horiz-adv-x="577" d="M158 647q0 35 35.5 66.5t82.5 31.5q127 0 127 -135v-32q0 -12 -2 -25l-61 -61l-61 -13l-86 62q-35 35 -35 106zM170 168q0 35 36 66.5t83 31.5q104 0 123 -92q8 -41 8 -59q0 -23 -6 -41l-62 -62l-61 -12l-86 61q-35 35 -35 107z" />
<glyph unicode=";" horiz-adv-x="577" d="M158 647q0 35 35.5 66.5t82.5 31.5q127 0 127 -135v-32q0 -12 -2 -25l-61 -61l-61 -13l-86 62q-35 35 -35 106zM170 143q0 35 36 67t83 32q131 0 131 -152q0 -82 -62 -141q-39 -39 -122 -76q-12 0 -27.5 19.5t-15.5 33.5q0 8 50 48t58 61q-25 -4 -35 -4q-43 0 -69.5 32.5 t-26.5 79.5z" />
<glyph unicode="&#x3c;" horiz-adv-x="1503" d="M293 514v107l917 436v-137l-747 -349l747 -356v-137z" />
<glyph unicode="=" horiz-adv-x="1503" d="M297 332v114h909v-114h-909zM297 688v113h909v-113h-909z" />
<glyph unicode="&#x3e;" horiz-adv-x="1503" d="M293 78v137l749 350l-749 355v137l919 -436v-107z" />
<glyph unicode="?" horiz-adv-x="1069" d="M133 1161q0 176 108.5 303t264.5 127q182 0 306 -142t124 -345q0 -143 -84 -248.5t-231 -153.5v-372h-172q-37 111 -37 196q0 68 28 189q8 37 172 176q154 131 154 203q0 125 -55 213q-66 102 -174 102q-96 0 -178.5 -92t-82.5 -199q0 -57 29 -100v-215 q-172 131 -172 358zM449 78q0 43 36.5 96t63.5 53q121 0 121 -94v-16l-2 -6q0 -133 -119 -134q-100 0 -100 101z" />
<glyph unicode="@" horiz-adv-x="2000" d="M53 739q0 393 264 717q279 342 662 342h195q408 0 591 -149t183 -473q0 -350 -228 -547q-39 -41 -131 -115l-119 -43q-6 -39 -124 -39q-143 0 -220 76l-57 -86q-20 -16 -94 -16q-127 0 -256 71q-147 82 -148 191q0 109 55.5 166t196.5 88q92 20 115 20q96 0 160 -20v20 q0 35 -29 94.5t-29 75.5h-112q-27 0 -86.5 -70.5t-112.5 -70.5q-66 33 -65 73q0 78 94 140q88 59 190 59q129 0 229.5 -80t100.5 -192q0 -426 104 -426q33 20 48 20q8 0 16 -4l4 4q131 109 217 282t86 333q-2 270 -180 407q-184 139 -578 164q-350 -33 -559 -348 q-188 -283 -188 -664q0 -354 192.5 -562t546.5 -238q201 23 377 145q123 86 287 266h202q-61 -72 -182 -215q-96 -113 -196 -168q-127 -70 -289 -69h-195q-410 0 -674 234.5t-264 606.5zM786 696q0 -66 48.5 -108.5t121.5 -42.5q66 0 113 54t47 124q0 4 -16.5 46t-18.5 50 q-16 0 -71.5 13.5t-71.5 13.5q-152 0 -152 -150z" />
<glyph unicode="A" horiz-adv-x="1609" d="M68 53l28 60l105 30q133 410 252 746q82 231 172 432q25 55 75 164q25 58 25 93v9l100 99q47 -27 95 -107q12 -23 75 -154q23 -16 52 -51q47 -115 94 -282q23 -80 67 -240l217 -713l99 -37v-96q-27 5 -127 19q-74 12 -101 12l-297 -31l-18 84l127 39l25 51l-113 381 q-31 -31 -56 -31q-10 0 -20 5q-49 24 -206 24h-13q-12 0 -129 -4q-36 -1 -65 -1t-50 1q-31 -119 -108 -369l59 -94l-39 -100q-91 28 -169 28h-5q-14 -2 -51 -10l-84 -18zM526 680l453 18q-31 152 -107 445q-12 31 -88 153z" />
<glyph unicode="B" horiz-adv-x="1347" d="M59 43q0 12 45 35q55 29 82 67q45 63 45 170q0 272 11 330q25 138 26 138v-1v553q0 68 -86 234q-2 49 99 49q14 -35 73 -35q20 0 70.5 17.5t52.5 17.5h369q84 0 171 -107.5t87 -199.5q0 -106 -154 -271q193 -80 266.5 -181.5t73.5 -285.5q0 -260 -160.5 -425.5 t-418.5 -165.5q-104 0 -160 24h-332q-2 0 -33.5 -12t-42.5 -12q-84 0 -84 61zM489 276q0 -37 33 -61.5t78 -24.5q186 0 289.5 100.5t103.5 282.5q0 154 -60.5 239t-209.5 142q-53 -10 -84 -10q-53 0 -113 10q-8 -27 -37 -36v-642zM502 1163q0 -49 51 -49q6 0 29.5 6t29.5 6 q94 0 133 13.5t127 48.5q-8 12 -6 47q6 74 6 51q0 113 -88 141q-33 10 -186 11q-96 0 -96 -78v-197z" />
<glyph unicode="C" horiz-adv-x="1533" d="M86 868q0 303 256 545q236 223 473 223q35 0 158 -19.5t157 -19.5q70 0 152 39l41 -465h-68q-47 129 -174 256q-141 143 -260 144q-31 0 -143 -68q-322 -193 -322 -704q0 -25 15 -168q16 -166 163.5 -279.5t335.5 -113.5q334 0 387 215q10 53 35 157q31 125 47 127 q14 -10 47 -24l62 -639l-57 -74l-78 258l-74 -12q-70 -98 -246 -185.5t-299 -87.5q-207 0 -395 232q-172 211 -195 430q-18 186 -18 233z" />
<glyph unicode="D" horiz-adv-x="1605" d="M98 55q0 12 45 35q55 29 82 68q45 63 45 170q0 287 11 329q0 2 16 70q10 43 10 68v553q0 61 -26 122q-31 55 -60 111q0 49 98 49q16 -35 74 -35q20 0 96 22.5t103 22.5q123 -4 186 -4q238 0 473 -223q256 -242 256 -545v-41q0 -274 -164 -544q-188 -309 -444 -310 q-35 0 -155.5 22.5t-153.5 22.5h-332q-2 0 -33.5 -12t-42.5 -12q-84 0 -84 61zM500 231q109 2 217 7q207 16 330 104q160 115 176 285q14 151 14 225q0 217 -83 387t-239 262q-117 70 -143 70q-174 0 -215 -121q-16 -49 -16 -274q0 -27 -6.5 -123.5t-6.5 -122.5v-641 q0 -45 80 -68q-39 0 -108 10z" />
<glyph unicode="E" horiz-adv-x="1347" d="M72 70q84 100 98 389q6 141 16 422q0 23 17 108q12 70 12 109q0 141 -45 327l-74 74q37 12 37 53q0 20 -8 43l528 -6h25q91 0 131 13q74 23 113 98h141q47 -184 47 -260q0 -82 -39 -199q-16 10 -102 37l-37 147q-61 0 -109 5q-10 0 -56 11t-58 11h-248v-438q0 10 -2 -47 v-39q0 -47 22.5 -63.5t91.5 -16.5q123 0 146 8q41 14 96 100h107q-25 -109 -74 -254q-45 -27 -103 -65q-40 42 -40 78q0 35 40 65h-356v-532q51 -104 156 -105q197 0 596 66l86 110l49 -12l-49 -307l-172 25h-234q-43 0 -110 -15q-98 -20 -111 -22q-213 -29 -321 -29 q-207 0 -207 111z" />
<glyph unicode="F" horiz-adv-x="1161" d="M61 70q84 100 99 389q6 141 16 422q0 23 17 108q12 70 12 109q0 141 -45 327l-74 74q37 12 37 53q0 20 -8 43l528 -6h25q91 0 131 13q74 23 112 98h142q47 -184 47 -260q0 -82 -39 -199q-16 10 -103 37l-36 147q-61 0 -109 5q-10 0 -56 11t-59 11h-247v-438q0 10 -2 -47 v-39q0 -47 22.5 -63.5t91.5 -16.5q123 0 146 8q41 14 96 100h106q-25 -109 -73 -254q-45 -27 -103 -65q-41 43 -41 80q0 33 41 63h-356v-532l143 -283h-53q-47 -2 -74 -2h-127q-207 0 -207 107z" />
<glyph unicode="G" horiz-adv-x="1548" d="M94 868q0 305 256 547q236 221 473 221q35 0 158 -19.5t158 -19.5q70 0 151 39l41 -465h-67q-47 129 -174 256q-141 143 -261 144q-31 0 -143 -68q-321 -194 -321 -701q0 -48 12 -171q16 -166 164.5 -279.5t337.5 -113.5q227 0 303 73q35 35 68.5 110t33.5 120t-319 123 v73l430 -24l61 -639l-43 -88l-92 272l-74 -12q-70 -96 -246 -184.5t-299 -88.5q-207 0 -395 232q-176 217 -196 430q-16 174 -17 233z" />
<glyph unicode="H" horiz-adv-x="1462" d="M63 41q20 16 39 31q35 33 43 84q14 82 21 98l33 80v1081q0 49 -32 80t-79 31v59l12 -22q73 73 131 73h2q307 0 308 -61q-98 -102 -121 -193q-14 -57 -14 -237q0 -119 114 -119q14 0 70.5 4t73.5 4q25 0 113.5 -8t117.5 -8q106 0 162 16q-8 123 -8 297q0 123 8 156 q-55 0 -68.5 4t-54.5 35v59q113 10 221 10q90 0 209 -10v-59q-78 -61 -94 -305q-4 -59 -4 -336v-514q0 -260 70 -260h3q6 2 13 2q14 2 18 2q31 0 31 -74q0 -66 -70 -66q-299 0 -459 39v27l95 65q39 59 41 246v240q0 18 19.5 111.5t19.5 125.5q0 16 -3 33q-219 0 -268 10 q-2 0 -53 15l-47 12h-270v-541q0 -147 38.5 -205.5t151.5 -89.5q-27 -61 -90 -77q-31 -8 -123 -9q-156 0 -180 3q-141 12 -140 61z" />
<glyph unicode="I" horiz-adv-x="626" d="M47 41q20 16 43 31q33 33 41 84q14 90 19 98l32 80v1081q0 49 -30.5 80t-79.5 31v59l12 -22l57 53q27 20 76 20q307 0 307 -61q-98 -104 -121 -193q-14 -55 -14 -237v-787q0 -135 31 -190q41 -72 160 -105q-37 -86 -177 -86h-102q-254 0 -254 64z" />
<glyph unicode="J" horiz-adv-x="753" d="M-543 -227q0 86 23.5 114.5t85.5 28.5q47 0 69 -66q31 -86 54 -106q303 6 438 250q98 176 98 442v912l-164 153v109q70 0 310.5 23.5t306.5 23.5q-8 -23 -8 -46q0 -45 32 -57q-129 -25 -176 -53q-80 -47 -80 -149q0 -33 12.5 -144.5t12.5 -142.5v-928q0 -109 -86 -252 q-100 -166 -274 -259t-379 -93q-272 0 -273 137v54q-2 68 -2 49z" />
<glyph unicode="K" horiz-adv-x="1671" d="M78 109q78 57 112 331q20 164 21 371l-2 688l-123 12v50l61 61l222 12h159l-24 -221v-336q280 304 280 376q0 15 -29.5 58t-29.5 58q0 29 34 52.5t70 23.5q100 0 265 -33q186 -37 235 -86l-387 -221q-143 -82 -143 -191q0 -80 121 -221q63 -74 131 -162q8 -12 129 -244 q94 -176 137 -213q18 -14 156 -81q95 -47 120 -125q-74 -51 -123 -64q-41 -10 -141 -10q-27 0 -122 11t-122 11q-70 0 -141 -22v115l45 94q0 59 -133 295l-176 315q-51 113 -86 113q-76 0 -111 -144q-22 -88 -22 -193v-9q0 -242 59 -308q47 -43 133 -137q-90 -129 -481 -129 q-94 0 -94 103z" />
<glyph unicode="L" horiz-adv-x="1433" d="M109 -6q0 47 59 198.5t59 231.5v1038l-88 86v88h609q-25 -23 -35 -43l4 -16q-115 -37 -187.5 -142.5t-72.5 -232.5l4 -1005l393 -25h2q28 0 139 41q96 35 142 57q78 109 172 160l16 -209q-98 -172 -151 -209q-72 -51 -254 -51q-68 0 -95 10q-12 6 -82 54l-122 12 q-119 0 -510 -76q-2 14 -2 33z" />
<glyph unicode="M" horiz-adv-x="1978" d="M113 -39v141q203 63 258 326q24 112 24 424v25q0 399 -65 528q-37 74 -78 174q47 10 108 37q-8 4 -24 6h282q45 -74 150 -274q45 -111 139 -332q76 -166 223 -283q68 113 201 430q117 279 221 416h316q-96 -113 -121 -181.5t-25 -223.5q0 -915 21 -955q68 -128 125 -239 q-4 -2 -127 -27q-78 -16 -123 -16q-43 0 -121 10q-106 14 -121 14q78 217 176 528l-61 629l-123 -110q-23 -51 -33 -88q-6 -27 -41 -84q-106 -178 -196 -453h-107q-68 193 -188.5 425t-235.5 384q0 -117 -16 -527.5t-16 -527.5q0 -78 -23 -92q-143 -18 -399 -84z" />
<glyph unicode="N" horiz-adv-x="1777" d="M109 1571v57h362q68 -109 418 -608q358 -510 391 -535q31 100 31 158q0 543 -37 674l-78 199v112h473q-49 -90 -82 -117q-2 -2 -57 -22q-45 -18 -51 -36.5t-6 -410.5v-919q0 -51 -46.5 -123t-93.5 -72q-41 0 -139 156q-111 174 -111 317l-303 390q-219 276 -309 344 q-4 -66 -4 -95t6 -130t6 -130q0 -23 -6 -103.5t-6 -103.5q0 -281 201 -423v-82l-58 -58q-129 57 -194 58q-84 0 -195 -84h-84v84q0 2 84 130t84 203v1057l-127 37q-29 29 -69 76z" />
<glyph unicode="O" horiz-adv-x="1361" d="M72 827q0 322 143 543q168 260 475 260q289 0 445.5 -216t156.5 -605q0 -322 -180 -598q-166 -260 -324 -260q-346 0 -531 228.5t-185 647.5zM342 858q0 -403 188 -606q47 -49 52 -53q29 -25 67 -25q209 0 318.5 147.5t109.5 417.5q0 184 -66.5 335t-185.5 237 q-97 69 -151 69h-2q-170 0 -260 -186q-70 -145 -70 -336z" />
<glyph unicode="P" horiz-adv-x="1155" d="M53 1569q47 16 119 16q29 0 61 25v-25l447 62q10 1 21 1q98 0 249 -112q152 -113 152 -326q0 -207 -157 -368.5t-361 -161.5q-98 0 -146 27q-18 0 -32.5 -41t-14.5 -80q0 -291 51 -385q4 -8 117 -160q0 -47 -72 -47q-23 0 -93 18.5t-89 18.5h-227q0 -8 47 133t47 227v580 q39 20 39 289v110q-16 25 -84 98q-55 59 -74 101zM414 813h61q172 0 273.5 88t101.5 250q0 59 -8 117l8 16q-102 195 -303 195q-133 0 -133 -269q0 -35 5 -156.5t5 -156.5q0 -39 -10 -84z" />
<glyph unicode="Q" horiz-adv-x="1490" d="M33 827q0 322 143 543q168 260 475 260q289 0 445.5 -215t156.5 -606q0 -242 -116 -490q-102 -213 -203 -280q-113 -76 -301 -76q-37 0 -49 2q-266 49 -408.5 272.5t-142.5 589.5zM303 858q0 -403 189 -606q47 -49 51 -53q29 -25 67 -25q209 0 318.5 147.5t109.5 417.5 q0 184 -66.5 335t-185.5 237q-97 69 -151 69h-2q-170 0 -260 -186q-70 -145 -70 -336zM829 502q461 -393 631 -459l-301 -72z" />
<glyph unicode="R" horiz-adv-x="1720" d="M78 43q0 12 45 35q55 29 82 67q45 63 45 170q0 274 10 330q27 145 27 137v553q0 68 -86 234q-2 49 98 49q14 -35 74 -35q18 0 68.5 17.5t54.5 17.5h368q84 0 171 -107.5t87 -199.5q0 -106 -153 -271q96 -39 286 -434q41 -82 218 -483l159 -37l13 -74l-381 -12l-523 954 h-10q-18 0 -70.5 -4t-62.5 -4t-32 4l-21 4q-8 -27 -37 -36v-642q0 -47 166 -178l12 -98l-117 6h-331q-4 0 -35 -12t-41 -12q-84 0 -84 61zM520 1163q0 -49 51 -49q6 0 30 6t30 6q94 0 133 13.5t127 48.5q-23 31 -23 55q0 12 6 29l17 14q0 113 -88 141q-33 10 -187 11 q-96 0 -96 -78v-197z" />
<glyph unicode="S" horiz-adv-x="1433" d="M90 63v175q0 10 36 130.5t44 141.5q4 12 63 18q33 2 66 7q0 -231 76 -334t239 -103q416 0 416 279q0 174 -235 317q-145 82 -435 252q-235 146 -235 334q0 149 176 256q156 94 313 94q41 0 185.5 -20.5t185.5 -20.5q78 0 260 51v-591q-49 45 -78 51l-43 172 q-49 55 -120 104l-177 121q-61 29 -213 29q-280 0 -280 -173q0 -99 262 -272q164 -102 485 -315q262 -184 262 -354q0 -213 -233 -344q-197 -111 -426 -111q-180 0 -338 53t-256 53z" />
<glyph unicode="T" horiz-adv-x="1622" d="M61 1425l37 222l1426 -13l37 -221h-74l-49 98l-234 25q-51 0 -248 -33q-63 -84 -63 -336v-796q0 -135 31 -191q41 -72 159 -104q-25 -59 -90 -78q-31 -8 -123 -8q-152 0 -178 2q-141 10 -141 61q20 14 43 31q33 33 41 84q14 90 18 98l33 80v1081q0 37 -268 121l-234 -24 l-49 -99h-74z" />
<glyph unicode="U" horiz-adv-x="1476" d="M84 1583v59q49 0 169 -4q80 -3 130 -3q25 0 43 1q94 4 168 19l-12 -72l-90 -24l-58 -86q-22 -122 -22 -216v-8q0 -66 6 -196q16 -354 24 -406q35 -225 154 -368q23 -27 49.5 -54.5t61.5 -27.5q109 0 249 84q90 53 113 190q66 385 66 844v207l-68 71l-90 13l-10 73 l428 -12v-74l-68 -22q15 -99 15 -144q0 -10 -1 -18l-28 -276q-8 -154 -27 -459q-18 -227 -153 -441q-164 -258 -299 -258q-291 0 -452 176.5t-200 546.5q-16 156 -16 555q0 57 43 207l-57 86z" />
<glyph unicode="V" horiz-adv-x="1548" d="M100 1565q0 33 34 73.5t65 40.5q45 0 195.5 -56t150.5 -79q0 -18 -28 -92t-28 -96q0 -70 99.5 -415t136.5 -404q47 51 149.5 395t102.5 440q0 8 -26.5 83t-26.5 128q0 16 -4 37h487q10 -22 41 -55q-25 -76 -102 -142q-100 -84 -136 -137q-49 -72 -133 -301 q-123 -338 -213 -545q-27 -90 -84 -272t-151 -182q-59 0 -142 346q-115 485 -137 547l43 -177q-23 117 -168 578q-10 35 -71 141q-53 94 -54 144z" />
<glyph unicode="W" horiz-adv-x="2265" d="M76 1520l14 86q53 -4 111 -4q197 0 377 47q29 -29 57 -95q-70 -102 -70 -247q0 -164 41 -404q47 -276 113 -377q33 49 155.5 422t122.5 428l-77 58q-76 59 -76 102q0 35 32.5 75t65.5 40q41 0 188 -54q158 -57 158 -81q0 -18 -27.5 -92t-27.5 -97q0 -72 99.5 -416 t135.5 -403q45 51 148.5 395t103.5 440q0 59 -69 119q0 2 6 63.5t6 65.5h487q8 -22 41 -55q-25 -76 -102 -141q-96 -80 -135 -138q-80 -119 -148 -321q-94 -285 -116 -336q-47 -106 -115 -309q-59 -178 -92 -238q-49 -96 -111 -96q-59 0 -141 346q-121 498 -137 547 q-57 -29 -201 -326q-61 -131 -191 -391q-57 -111 -151 -121q-143 862 -361 1370q-12 -2 -30 29q-35 57 -84 109z" />
<glyph unicode="X" horiz-adv-x="1771" d="M20 27l21 102l147 25q41 98 131 268q4 33 39 121q8 16 78 71.5t78 67.5q61 96 76.5 139t15.5 115v70l-2 97v-1q0 178 -385 358q-59 27 -156 64l25 73q31 -10 107 -10q41 0 183 22.5t183 22.5q35 0 70 -23.5t35 -52.5q0 -14 -30 -57t-30 -57q0 -72 293 -377 q281 311 281 389q0 14 -30 57t-30 58q0 31 34 53.5t71 22.5q41 0 169 -23t140 -23q18 0 81.5 5.5t82.5 5.5l24 -74q-45 10 -82 10q-164 0 -323.5 -152.5t-159.5 -314.5q0 -72 64 -194q25 -39 112 -189q8 -16 8 -55q0 -16 -1 -36q-2 -21 -2 -38q0 -37 8 -51q14 -29 69 -81 t62 -62q53 -86 75 -125q41 -70 64 -131l110 -13q27 -39 27 -59q0 -45 -197 -45q-27 0 -123 11.5t-120 11.5q-70 0 -142 -23v115l46 94q-2 63 -37 192q-37 137 -70 187q-25 37 -51 114q-31 92 -33 97q-53 110 -83 110h-1q-2 0 -46 -22.5t-44 -18.5q-37 0 -41 -8l-16 -45 q-51 -100 -148 -303q-96 -209 -96 -303l45 -94v-115q-72 23 -141 23q-27 0 -123 -11.5t-121 -11.5q-137 0 -191 27z" />
<glyph unicode="Y" horiz-adv-x="1648" d="M82 1606l401 -29l160 29q2 -25 -33 -91.5t-35 -87.5q0 -113 68 -245q41 -82 141 -221q150 63 291 280q139 211 158 393q29 0 127 -13t127 -13q49 0 82 26v-86q-59 -104 -264 -270q-229 -184 -301 -272q-90 -111 -117 -254q-20 -111 -21 -402q0 -158 15 -188 q23 -49 129 -49q33 0 82 4v-140h-420q-82 35 -170 58v82q170 135 170 477q0 174 -113 367q-47 82 -242.5 330.5t-234.5 314.5z" />
<glyph unicode="Z" horiz-adv-x="1619" d="M72 76l133 26q535 705 907 1393l-797 25l-65 -115h-80l27 115l-15 127l174 -27l1168 27l26 -76l-133 -27q-508 -711 -907 -1392l797 -25l65 115h80l-27 -115l15 -127l-174 27l-1168 -27z" />
<glyph unicode="[" horiz-adv-x="655" d="M178 207v1229q0 258 291 258q8 -8 8 -21q0 -14 -8 -20q-68 -10 -140.5 -289t-72.5 -547q0 -266 72.5 -541.5t140.5 -285.5q8 -7 8 -21t-8 -20q-291 0 -291 258z" />
<glyph unicode="\" horiz-adv-x="634" d="M18 1704h138l75 -350l363 -1035l22 -319h-137l-309 1100z" />
<glyph unicode="]" horiz-adv-x="655" d="M178 -45q0 12 8 20q68 10 140.5 286t72.5 542q0 268 -72.5 546.5t-140.5 288.5q-8 8 -8 21q0 12 8 20q291 0 291 -258v-1228q0 -258 -291 -259q-8 8 -8 21z" />
<glyph unicode="^" horiz-adv-x="1794" d="M221 1634l676 209l676 -209l-676 86z" />
<glyph unicode="_" horiz-adv-x="2048" d="M84 0v-98l831 -60l1049 60v98l-983 -45z" />
<glyph unicode="`" horiz-adv-x="577" d="M164 1491q0 152 131 151q47 0 83 -31.5t36 -66.5q0 -47 -26 -79.5t-73 -32.5q-8 0 -32 4q12 -33 63 -66q45 -31 45 -43q0 -14 -15.5 -33.5t-27.5 -19.5q-184 80 -184 217z" />
<glyph unicode="a" d="M45 322q0 135 69.5 206.5t245.5 110.5q113 25 144 25q121 0 201 -25v25q0 43 -36 117.5t-36 95.5h-141q-45 0 -80 -43q-10 -12 -58 -89q-39 -45 -110 -45q-82 41 -82 93q0 106 127 182q109 65 224 65h3q162 0 288 -100t126 -240q0 -532 129 -532q41 25 59 25 q27 0 48.5 -22.5t21.5 -49.5q0 -37 -72 -68q-61 -26 -101 -26h-3q-178 0 -273 94q-55 -82 -119.5 -111.5t-175.5 -29.5q-154 0 -276.5 103t-122.5 239zM315 356q0 -82 61.5 -135t149.5 -53q82 0 141.5 67.5t59.5 155.5q0 6 -21.5 58.5t-23.5 60.5q-20 0 -89 17.5t-89 17.5 q-188 0 -189 -189z" />
<glyph unicode="b" horiz-adv-x="1275" d="M61 4q29 74 62 80q55 10 70 35q27 37 79 213l-75 1102q-4 53 -39 86q-10 10 -84 53l-13 49h443q-72 -233 -72 -348v-236h51q109 43 201 43q287 0 453 -309q77 -145 77 -229q0 -236 -125.5 -397.5t-320.5 -161.5q-51 0 -183 30.5t-141 30.5q-27 -1 -129 -25 q-94 -23 -126 -22h-5zM469 381q0 -164 188 -164q129 0 212 88t83 223q0 209 -83 297t-287 88q-10 0 -58 -4q-33 -2 -55 4v-532z" />
<glyph unicode="c" horiz-adv-x="995" d="M82 481q0 160 113 346q127 209 274 209q135 0 238 -28v36q0 25 -19 66h96q57 -119 84 -231q18 -80 47 -252q1 -7 1 -13q0 -26 -21 -34q-18 0 -61 88q-106 223 -390 223q-84 0 -143 -131q-49 -109 -49 -207q0 -180 101.5 -296t260.5 -116q63 0 127 31q29 14 115 68v-50 q0 -33 -61 -86q-152 -131 -326 -131q-156 0 -276 181q-111 164 -111 327z" />
<glyph unicode="d" horiz-adv-x="1261" d="M55 543q0 88 76 231q162 307 455 307q96 0 200 -43h52v236q0 51 -52 102q-49 41 -98 84q51 39 164 78q57 18 170 57q5 2 10 2q41 0 41 -137v-26l-76 -1102q25 -82 78 -207q25 -41 66 -45q34 -2 67 -76l-123 -6h-5q-34 0 -128 22q-102 24 -127 25q-18 0 -148 -30.5 t-175 -30.5q-193 0 -320 163.5t-127 395.5zM317 528q0 -147 85 -229t235 -82q164 0 164 164v532q-25 -6 -58 -4l-55 4q-201 0 -286 -89t-85 -296z" />
<glyph unicode="e" horiz-adv-x="1107" d="M53 408v114q0 139 182.5 322.5t323.5 183.5h242q96 0 180 -133q74 -119 74 -223q0 -41 -32 -78t-73 -37h-528q-33 0 -62.5 -39t-29.5 -76q0 -125 101 -200.5t255 -75.5q82 0 143 33q59 43 121 84h58v-82q-115 -129 -213 -176q-88 -43 -224 -43q-201 0 -359.5 127 t-158.5 299zM365 678q29 -10 79 -10q334 0 334 61q0 51 -52 95t-110 44q-98 0 -157 -51q-41 -37 -94 -139z" />
<glyph unicode="f" horiz-adv-x="1239" d="M-332 -143q0 73 93 73h3q33 0 146 -88t145 -88q113 0 205 164q47 86 68 188q8 45 24 197q31 295 31 348q0 231 -55 256q-23 10 -64 11q-86 0 -139 -44l-92 62l26 10l-8 19q23 20 213 20q45 0 68 178q27 219 80 297q78 119 393 119q182 0 270 -54.5t131 -185.5 q-6 -12 -80 -69h-145q-18 61 -70 178q-55 18 -84 18q-20 0 -18 -18q-203 0 -223 -111q-16 -96 -41 -264l43 -88q102 20 213 21q162 0 162 -86q0 -61 -123 -62q-18 0 -73.5 8t-70.5 8q-121 0 -123 -274q-4 -322 -36 -489q-45 -225 -162 -322q-96 -80 -277 -108 q-51 -6 -346 -35q-33 35 -80 102l17 4q8 2 8 10q-29 76 -29 95z" />
<glyph unicode="g" horiz-adv-x="1347" d="M18 -393q0 55 103.5 171t103.5 150q0 139 -2 133q6 78 47 123t41 64q0 8 -101 117.5t-101 175.5q0 178 175 322.5t378 144.5q49 0 175 -44t146 -44q90 0 203 88h145q0 -215 -71 -215q-12 0 -45 9t-44 9q-49 0 -62 -102.5t-22 -204.5q-25 -125 -122 -170 q-123 -57 -379 -107q-244 -47 -244 -123q0 -120 225 -120h4q35 0 155 6t157 6q184 0 276 -55q115 -70 115 -244q0 -176 -242 -303q-203 -106 -399 -107q-186 0 -375 74q-240 94 -240 246zM256 -369l27 -110l290 -88q156 0 252.5 39t186.5 135q0 102 -144 174 q-123 61 -235 61q-176 0 -350 -118zM371 541q10 -8 106 -107q65 -67 125 -67h2q119 0 205 85.5t86 204.5q0 84 -49 144.5t-125 60.5q-104 0 -187 -37t-102.5 -99t-60.5 -185z" />
<glyph unicode="h" horiz-adv-x="1413" d="M33 1446v59q119 72 135 80q74 35 154 35q90 0 124 -74q25 -53 25 -155q0 -27 -4 -115t-4 -115q0 -141 43 -233q283 88 303 88q412 0 412 -676q0 -18 -4.5 -78.5t-4.5 -79.5q0 -43 45 -78q41 -23 82 -47l43 -86q-74 14 -165 19q-34 1 -76.5 1t-93.5 -1l-166 -4 q43 80 43 100q0 41 6 183.5t6 183.5q0 446 -242 446q-88 0 -158.5 -91t-70.5 -194q0 -289 45 -383q8 -16 98 -161v-88h-372v690q0 45 16 200.5t16 200.5q0 295 -235 373z" />
<glyph unicode="i" horiz-adv-x="614" d="M76 4v90q45 31 102 88q6 14 20.5 262t14.5 297q0 86 -29 103q-14 10 -108 10v57q70 18 213 84q100 63 119 64q33 0 33 -61q0 -18 -3 -42q-10 -68 -28 -204q-16 -123 -17 -205q0 -158 35 -264q21 -66 111 -236q0 -43 -78 -43q-12 0 -61.5 15.5t-141.5 15.5 q-125 0 -182 -31zM213 1214q0 61 24.5 83t86.5 22q57 0 78.5 -15.5t21.5 -64.5t-36 -82t-85 -33q-90 0 -90 90z" />
<glyph unicode="j" horiz-adv-x="589" d="M-455 -446q0 92 97 92q68 0 258 -127q205 0 286 205q51 127 62 380l8 228q0 10 -12 381q-4 118 -93 118h-1q4 0 -87 -4l-6 64q57 20 113 41q94 35 141 74q104 86 135 86q35 0 43 -33q16 -68 29 -432q10 -318 10 -445q0 -870 -768 -870q-127 0 -171 47t-44 195zM190 1278 q0 66 58 88q37 14 117 14q92 0 92 -88q0 -135 -156 -135q-111 0 -111 121z" />
<glyph unicode="k" horiz-adv-x="1490" d="M82 1507q0 43 145 107q139 59 213 59q25 0 57.5 -12t32.5 -27q0 -2 -36.5 -152.5t-36.5 -209.5q0 -8 4 -31.5t4 -28.5v-510q244 207 244 254q0 10 -26 38t-26 38q0 20 30 35.5t61 15.5q88 0 225 -20q166 -25 209 -59l-338 -150q-123 -55 -123 -127q0 -53 104 -147 q57 -51 117 -113q23 -33 113 -164q80 -117 119 -141q18 -10 133 -53q81 -31 104 -84q-66 -37 -111 -45q-33 -6 -118 -7q-25 0 -107 8.5t-104 8.5q-61 0 -123 -17v78l39 64q-2 39 -117 196q-51 68 -152 207q-55 82 -75 82q-55 0 -86 -65.5t-31 -165.5q0 -135 35 -183 l133 -116q-78 -86 -420 -86q-82 0 -80 67q66 35 94 211q18 109 19 246l2 743q0 109 -33 162q-18 31 -61 55q-33 18 -33 39z" />
<glyph unicode="l" horiz-adv-x="745" d="M86 -35q0 76 55 111q53 25 107 51q59 37 59 119v856q0 145 -22.5 200.5t-124.5 155.5q0 37 319 172q86 0 86 -125q0 -33 -14 -100q-16 -80 -19 -98q-16 -88 -16 -207v-719q0 -119 35 -193q15 -28 111 -163q-49 -37 -134 -37q-12 0 -57 2t-55 2q-27 0 -95.5 -13.5 t-74.5 -13.5h-160z" />
<glyph unicode="m" horiz-adv-x="2236" d="M49 864q20 31 23 54l-9 16h7q111 0 252 61l-25 4q16 25 125 84q35 -90 80 -163q70 39 176 72.5t168 33.5q154 0 224.5 -105.5t70.5 -349.5q0 -31 -2 -120t-2 -107q0 -113 39 -170q29 -43 92 -65q55 -18 108 -37v-56q-86 -43 -190 -43q-63 0 -158 17l-156 26 q80 233 80 410q0 211 -53 307q-72 129 -264 129q-137 0 -174 -162q-12 -55 -12 -274q0 -170 12 -225q25 -111 119 -185v-82q-82 -10 -117 -10q-23 0 -37 4l-4 6q-117 0 -127 3q-37 6 -111 53q90 270 90 295t-5 111.5t-5 111.5t12.5 101.5t12.5 99.5q0 57 -94 102 q-18 8 -146 53zM1108 848q131 190 549 190q154 0 224.5 -106.5t70.5 -347.5q0 -31 -2 -120t-2 -108q0 -113 39 -170q29 -43 92 -65q55 -18 108 -37v-55q-86 -43 -190 -43q-63 0 -158 16l-156 27q80 233 80 409q0 211 -53 307q-72 129 -264 129q-131 0 -189.5 -28.5 t-123.5 -120.5z" />
<glyph unicode="n" horiz-adv-x="1462" d="M68 864q20 31 22 54l-8 16h7q110 0 251 61l-25 4q16 25 125 84q35 -90 80 -163q70 39 176.5 72.5t167.5 33.5q154 0 224.5 -105.5t70.5 -349.5q0 -31 -2 -120t-2 -107q0 -113 39 -170q29 -43 92 -65q55 -18 109 -37v-56q-86 -43 -191 -43q-63 0 -157 17l-156 26 q80 233 80 410q0 211 -53 307q-72 129 -265 129q-137 0 -174 -162q-12 -55 -12 -274q0 -170 12 -225q25 -111 119 -185v-82q-82 -10 -117 -10q-23 0 -37 4l-4 6q-117 0 -127 3q-37 6 -110 53q90 270 90 295t-5 111.5t-5 111.5t12 101.5t12 99.5q0 57 -94 102q-18 8 -145 53z " />
<glyph unicode="o" horiz-adv-x="1261" d="M80 516q0 223 155.5 362.5t399.5 139.5q262 0 404.5 -134t142.5 -380q0 -182 -146.5 -358.5t-308.5 -176.5q-311 0 -479 141.5t-168 405.5zM362 528q0 -213 59.5 -306t188.5 -93q334 0 334 332q0 164 -119 276q-102 98 -202 99q-115 0 -188 -88.5t-73 -219.5z" />
<glyph unicode="p" horiz-adv-x="1333" d="M61 811q53 158 89 158q2 0 25.5 -9.5t33.5 -9.5q59 0 145 117h146v-145l121 28q88 25 110 41q-8 0 -43 4h172q131 0 187 -57q20 -23 69 -45q156 -74 156 -414q0 -330 -330 -489q-123 -59 -147 -60q-217 0 -234 -2q-57 -4 -63 -32q2 8 2 -113q0 -84 26 -125l86 -94v-76 h-147q-47 0 -258 94q115 225 115 524v109l-3 119q0 29 4.5 126t4.5 126q0 156 -58 196q-41 29 -209 29zM539 225q0 -112 108 -112h2h2q328 0 328 331q0 94 -63.5 231.5t-129.5 172.5l-98 -12l-98 -74l-6 -170q-2 -31 -23.5 -174.5t-21.5 -192.5z" />
<glyph unicode="q" horiz-adv-x="1351" d="M72 541q0 342 137 405q53 25 127 86l147 25h144q-10 0 -15 -4q43 -25 232 -70v145l149 -57q123 -61 144 -61q8 0 30.5 10t26.5 10q35 0 88 -158q-170 0 -211 -28q-55 -39 -55 -197q0 -51 3 -235.5t3 -237.5q0 -176 16 -266q29 -158 119 -225q49 -38 125 -89l-12 -98 q-94 43 -443 62q29 53 29 116q0 39 -10 164q-10 135 -19 142q-16 12 -278 12q-23 0 -146 59q-332 162 -331 490zM365 506q0 -158 86 -245t243 -87q111 0 111 113q0 47 -19 176q-20 137 -22 160l-10 200l-99 74l-98 12q-63 -35 -127.5 -173t-64.5 -230z" />
<glyph unicode="r" horiz-adv-x="860" d="M68 895q0 29 288 172q55 0 56 -119q0 12 -2 -51v-39q86 100 92 105q53 47 131 47q68 0 115 -43t47 -109q0 -37 -41 -82t-76 -45q-88 0 -172 47q-74 0 -107 -137q-20 -86 -20 -197q0 -178 41 -278q29 -68 80 -105q41 -33 41 -43q0 -57 -80 -57q-92 0 -195 25 q-141 35 -141 90q70 80 70 356q0 260 -39 334q-31 43 -88 129z" />
<glyph unicode="s" horiz-adv-x="1032" d="M76 70q0 12 2 26l10 8q0 16 -3 72.5t-3 71.5q0 109 57 168q137 -197 178 -234q96 -88 258 -88q61 0 108.5 38t47.5 93q0 106 -153 187q-94 45 -281 137q-152 78 -152 176q0 131 125 215t305 84l359 -96q24 -34 24 -97q0 -53 -14 -110q-18 -78 -57 -78q-147 250 -336 250 q-66 0 -110 -26.5t-44 -69.5q0 -20 142 -99q184 -100 264 -168q143 -121 143 -245q0 -311 -452 -312q-190 0 -287 60h-119q-12 23 -12 37z" />
<glyph unicode="t" horiz-adv-x="917" d="M51 1208q504 422 539 422q29 0 43 -57q-25 -86 -66 -262q147 -59 211 -60q12 -63 13 -110q0 -12 -3 -21l-10 2q0 -31 -30 -78q-16 0 -65.5 6.5t-61.5 6.5q-27 0 -74 -10q-45 -305 -45 -508q0 -123 37 -254q49 -178 139 -179q10 0 65 31l66 37h57v-45q-53 -102 -147 -135 q-63 -23 -203 -23q-82 0 -164 60q-90 63 -110 151q-10 43 -11 209q0 625 66 744h-51q-70 -2 -51 -2q-143 0 -144 75z" />
<glyph unicode="u" horiz-adv-x="1462" d="M66 1057q172 -18 344 -62q6 23 69 23q35 0 96 -6q-80 -233 -79 -410q0 -213 53 -307q72 -129 264 -129q127 0 164 133q22 80 22 330v22q0 145 -29.5 223t-101.5 138v82q29 4 72 4q82 0 109 -41q37 16 90 16q68 0 125 -35q-90 -270 -90 -295t5 -111.5t5 -111.5 t-12.5 -101.5t-12.5 -99.5q0 -57 94 -102q19 -8 146 -53q-20 -31 -23 -53l8 -17h-7q-112 0 -251 -61l25 -4q-16 -25 -125 -84q-35 90 -80 164q-70 -39 -177 -73t-167 -34q-154 0 -225.5 106.5t-71.5 348.5q0 31 3 120t3 107q0 111 -39 168q-31 43 -92 68q-55 18 -108 36z " />
<glyph unicode="v" horiz-adv-x="1339" d="M82 1014q0 23 30.5 48t53.5 25q14 0 203 -43q100 -23 100 -43q0 -2 -23.5 -53t-23.5 -67q0 -45 87 -265.5t118 -257.5q41 35 130 254t89 281q0 6 -22.5 51t-22.5 82l-4 25h426l18 -25l16 -12q-16 -43 -71 -72q-76 -41 -111 -72q-70 -63 -127 -192q-70 -158 -155 -309 q-76 -135 -86 -160q-39 -104 -58 -135q-41 -66 -106 -66q-53 0 -125 221q-98 307 -119 349l86 -172q-61 145 -195 428q0 8 -54 79.5t-54 100.5z" />
<glyph unicode="w" horiz-adv-x="1992" d="M76 930q0 55 174 92q133 29 225 29q49 0 86 -62q-61 -61 -61 -158q0 -102 37 -260q41 -176 96 -237q51 55 219 463q0 6 -54.5 77.5t-54.5 102.5q0 23 30 48.5t54 25.5q14 0 203 -43q100 -23 100 -43q0 -2 -23.5 -53.5t-23.5 -67.5q0 -45 87 -265.5t118 -256.5 q39 35 129 255t90 279q0 6 -22.5 53t-22.5 80l-4 25h426l19 -25l16 -12q-18 -41 -74 -72q-78 -41 -108 -69q-72 -63 -129 -195q-70 -156 -156 -309q-74 -133 -84 -160q-41 -111 -68 -145q-39 -55 -96 -56q-53 0 -125 222q-102 315 -118 348q-61 -23 -148 -164l-151 -244 q-92 -127 -175 -127q-127 555 -315 875q-96 10 -96 49z" />
<glyph unicode="x" horiz-adv-x="1327" d="M49 4l10 64l91 14q117 225 129 246q74 135 133 207q72 86 71 131q0 80 -127 159q-68 43 -198 97l14 43q25 -4 59 -4q25 0 112 12t114 12q20 0 41.5 -14.5t21.5 -30.5q0 -4 -17.5 -31.5t-17.5 -36.5q0 -47 177 -229q169 187 169 235q0 11 -18 35.5t-18 34.5 q0 18 20.5 31.5t42.5 13.5q27 0 119 -11t119 -11q23 0 47 2l16 -45q-27 6 -51 6q-100 0 -184 -81t-84 -179q0 -35 59 -119q109 -147 168 -246q100 -166 129 -241l68 -9q10 -18 16 -34q-10 -29 -119 -29q-16 0 -73.5 7t-71.5 7q-43 0 -88 -14v70l26 57q-2 31 -82 174 q-100 180 -104 192q-27 57 -49 70q-33 14 -66 27q-23 -35 -45 -35t-59 -78q-2 -4 -103 -184q-78 -139 -77 -174l26 -58v-67q-45 14 -88 14q-16 0 -73.5 -7t-71.5 -7q-76 0 -113 14z" />
<glyph unicode="y" horiz-adv-x="1591" d="M49 961v100q49 0 221 -12.5t222 -12.5q12 0 57 5.5t59 5.5q16 0 78 -46q-41 -72 -55 -86q-27 -25 -94 -36l8 -88q20 -25 120.5 -275t102.5 -280l57 6v14q0 86 125 334q129 256 129 293q0 29 -35.5 68.5t-35.5 56.5q0 35 29.5 58.5t66.5 23.5q31 0 98.5 -14.5t97.5 -18.5 q121 -16 236 -17q6 -57 6 -67q0 -43 -133 -150q-166 -133 -180 -149q-72 -82 -188.5 -285t-161.5 -309q-92 -223 -209 -434q-182 -330 -277 -340q-35 -4 -76 -4q-167 0 -167 143q0 78 100 149q12 10 205 121q123 90 163 232l-436 946z" />
<glyph unicode="z" horiz-adv-x="1056" d="M68 27l51 34q129 182 264 402l252 409l-416 54l-41 -74h-49l16 74l-8 78l109 -17l729 17l14 -48l-82 -14q-311 -449 -542 -807l473 -78l41 74h49l-17 -74l9 -77l-109 16l-729 -16z" />
<glyph unicode="{" horiz-adv-x="655" d="M100 549q0 4 9 22q94 0 136 38t42 132q0 14 -15 205q-16 219 -16 217q0 258 291 258q8 -8 8 -20q0 -14 -8 -21q-172 -27 -172 -196q0 -51 16 -166q23 -158 23 -250q0 -176 -154 -215v-8q154 -39 154 -215q0 -66 -17 -199l-16 -133q-6 -49 -6 -84q0 -166 172 -197 q8 -6 8 -20t-8 -21q-291 0 -291 258q0 59 14 191q16 152 17 231q0 92 -41 131t-137 39q-8 12 -9 23z" />
<glyph unicode="|" horiz-adv-x="489" d="M184 -33v1438h121v-1438h-121z" />
<glyph unicode="}" horiz-adv-x="655" d="M100 -303q0 12 9 20q172 27 172 197q0 16 -33 311q-6 55 -6 105q0 176 153 215v8q-154 39 -153 215q0 63 4 96q10 66 20 131q15 99 15 189q0 166 -172 196q-8 8 -9 21q0 8 9 20q291 0 290 -258q0 -119 -16 -217q0 -12 -7 -101t-7 -104q0 -92 41 -131t137 -39q8 -8 8 -22 t-8 -23q-96 0 -137 -38.5t-41 -131.5q0 25 26 -327q4 -53 4 -95q0 -258 -290 -258q-8 8 -9 21z" />
<glyph unicode="~" horiz-adv-x="817" d="M78 1188l135 178l215 -113l223 76l90 -8l-172 -150l-163 -6l-164 97l-82 -97z" />
<glyph unicode="&#xad;" horiz-adv-x="782" d="M45 446l84 142l96 28l512 -28l-84 -142l-188 27z" />
<glyph unicode="&#xc6;" horiz-adv-x="1968" d="M86 -4l10 94l119 86q82 252 244 709q16 47 178 405q111 246 104 305l68 62q16 -8 33 -21l473 -6q111 -2 155 12q74 23 113 99h141q47 -184 48 -260q0 -82 -39 -199q-16 10 -103 37l-37 147q-61 0 -108 4q-10 0 -56.5 11.5t-58.5 11.5h-248v-385q10 -29 0 -96 q-10 -61 4 -86q23 -37 109 -37q123 0 145 8q41 14 97 100h106q-25 -109 -74 -254q-45 -27 -102 -65q-41 43 -41 80q0 33 41 63h-197l191 -626q27 4 57 4q35 0 144.5 -9.5t136.5 -9.5q37 0 63 4l86 111l49 -12l-49 -308q-61 2 -172 25l-88 39l-104 -31l-217 29q-27 -6 -45 -8 v6q-82 -10 -246 -27l-12 58l120 38l33 62l-123 409q-8 -2 -33.5 -22.5t-46.5 -9.5q-55 27 -229 26q-14 0 -141 -4q-76 -2 -121 0q-33 -127 -117 -393l62 -94l-33 -82q-84 25 -168 24q-8 0 -55 -10zM498 662l506 18q-20 68 -56 238q-72 195 -71 221v43q-35 55 -97 157z" />
<glyph unicode="&#xd0;" horiz-adv-x="1605" d="M98 55q0 12 45 35q55 29 82 68q45 63 45 170q0 283 11 329q8 33 24 115l-162 -6l23 260l141 -31v353q0 61 -26 122q-31 55 -60 111q0 49 98 49q16 -35 74 -35q20 0 96 22.5t103 22.5q123 -4 186 -4q238 0 473 -223q256 -242 256 -545v-41q0 -274 -164 -544 q-188 -309 -444 -310q-35 0 -155.5 22.5t-153.5 22.5h-332q-2 0 -33.5 -12t-42.5 -12q-84 0 -84 61zM305 772zM307 995zM528 289q0 -33 33 -51h162q188 0 335.5 112.5t164.5 276.5q14 151 14 225q0 217 -83 387t-239 262q-117 70 -143 70q-174 0 -215 -121q-16 -49 -16 -274 q0 -29 -6.5 -119t-6.5 -113l205 -45l-22 -113l-183 -6v-491z" />
<glyph unicode="&#xd8;" horiz-adv-x="1361" d="M72 827q0 322 143 543q168 260 475 260q88 0 164 -20l14 63h138l-29 -112q315 -181 315 -752q0 -322 -180 -600q-166 -258 -324 -258q-131 0 -239 33l-2 -15h-137l4 74q-342 201 -342 784zM342 858q0 -303 113 -502l340 973q-76 51 -123 51q-170 0 -260 -186 q-70 -145 -70 -336zM606 182q18 -8 43 -8q209 0 318.5 147.5t109.5 417.5q0 317 -178 506l-43 -176z" />
<glyph unicode="&#xde;" horiz-adv-x="1122" d="M41 1569q47 16 119 16q29 0 61 25l244 -31l-47 -219q373 -14 514 -137q151 -131 151 -326q0 -207 -156.5 -368.5t-361.5 -161.5q-98 0 -145 26q-18 0 -32.5 -41t-14.5 -80q0 -41 6 -41q2 0 6 2h8q18 0 37 -32q4 -10 117 -160q-2 -47 -72 -47q-23 0 -93.5 18.5t-88.5 18.5 h-227q0 -8 47 133t47 227v580q39 20 39 289v110q-20 29 -84 98q-57 63 -74 101zM395 500h62q172 0 273 90t101 248q0 59 -8 116l8 17q-102 195 -303 194q-133 0 -133 -268q0 -35 5.5 -157t5.5 -156q0 -39 -11 -84z" />
<glyph unicode="&#xe0;" d="M45 322q0 135 69.5 206.5t245.5 110.5q113 25 144 25q121 0 201 -25v25q0 43 -36 117.5t-36 95.5h-141q-45 0 -80 -43q-10 -12 -58 -89q-39 -45 -110 -45q-82 41 -82 93q0 106 127 182q111 66 227 65q162 0 288 -100t126 -240q0 -532 129 -532q41 25 59 25 q27 0 48.5 -22.5t21.5 -49.5q0 -37 -72 -68q-63 -27 -104 -26q-178 0 -273 94q-55 -82 -119.5 -111.5t-175.5 -29.5q-154 0 -276.5 103t-122.5 239zM315 356q0 -82 61.5 -135t149.5 -53q82 0 141.5 67.5t59.5 155.5q0 6 -21.5 58.5t-23.5 60.5q-20 0 -89 17.5t-89 17.5 q-188 0 -189 -189zM362 1462v31l156 23l195 -181l14 -155l-135 -23z" />
<glyph unicode="&#xe1;" d="M45 322q0 135 69.5 206.5t245.5 110.5q113 25 144 25q121 0 201 -25v25q0 43 -36 117.5t-36 95.5h-141q-45 0 -80 -43q-10 -12 -58 -89q-39 -45 -110 -45q-82 41 -82 93q0 106 127 182q111 66 227 65q162 0 288 -100t126 -240q0 -532 129 -532q41 25 59 25 q27 0 48.5 -22.5t21.5 -49.5q0 -37 -72 -68q-63 -27 -104 -26q-178 0 -273 94q-55 -82 -119.5 -111.5t-175.5 -29.5q-154 0 -276.5 103t-122.5 239zM315 356q0 -82 61.5 -135t149.5 -53q82 0 141.5 67.5t59.5 155.5q0 6 -21.5 58.5t-23.5 60.5q-20 0 -89 17.5t-89 17.5 q-188 0 -189 -189zM399 1217l179 -37l268 237l-74 60h-141z" />
<glyph unicode="&#xe2;" d="M45 322q0 135 69.5 206.5t245.5 110.5q113 25 144 25q121 0 201 -25v25q0 43 -36 117.5t-36 95.5h-141q-45 0 -80 -43q-10 -12 -58 -89q-39 -45 -110 -45q-82 41 -82 93q0 106 127 182q111 66 227 65q162 0 288 -100t126 -240q0 -532 129 -532q41 25 59 25 q27 0 48.5 -22.5t21.5 -49.5q0 -37 -72 -68q-63 -27 -104 -26q-178 0 -273 94q-55 -82 -119.5 -111.5t-175.5 -29.5q-154 0 -276.5 103t-122.5 239zM205 1143l149 200l164 52l195 -66l133 -239l-336 172zM315 356q0 -82 61.5 -135t149.5 -53q82 0 141.5 67.5t59.5 155.5 q0 6 -21.5 58.5t-23.5 60.5q-20 0 -89 17.5t-89 17.5q-188 0 -189 -189z" />
<glyph unicode="&#xe3;" d="M45 322q0 135 69.5 206.5t245.5 110.5q113 25 144 25q121 0 201 -25v25q0 43 -36 117.5t-36 95.5h-141q-45 0 -80 -43q-10 -12 -58 -89q-39 -45 -110 -45q-82 41 -82 93q0 106 127 182q111 66 227 65q162 0 288 -100t126 -240q0 -532 129 -532q41 25 59 25 q27 0 48.5 -22.5t21.5 -49.5q0 -37 -72 -68q-63 -27 -104 -26q-178 0 -273 94q-55 -82 -119.5 -111.5t-175.5 -29.5q-154 0 -276.5 103t-122.5 239zM227 1188l135 178l216 -113l223 76l90 -8l-172 -150l-164 -6l-164 97l-82 -97zM315 356q0 -82 61.5 -135t149.5 -53 q82 0 141.5 67.5t59.5 155.5q0 6 -21.5 58.5t-23.5 60.5q-20 0 -89 17.5t-89 17.5q-188 0 -189 -189z" />
<glyph unicode="&#xe4;" d="M45 322q0 135 69.5 206.5t245.5 110.5q113 25 144 25q121 0 201 -25v25q0 43 -36 117.5t-36 95.5h-141q-45 0 -80 -43q-10 -12 -58 -89q-39 -45 -110 -45q-82 41 -82 93q0 106 127 182q111 66 227 65q162 0 288 -100t126 -240q0 -532 129 -532q41 25 59 25 q27 0 48.5 -22.5t21.5 -49.5q0 -37 -72 -68q-63 -27 -104 -26q-178 0 -273 94q-55 -82 -119.5 -111.5t-175.5 -29.5q-154 0 -276.5 103t-122.5 239zM281 1239q0 49 33.5 84t80.5 35t81 -35t34 -84t-34 -84t-81 -35t-80.5 35t-33.5 84zM315 356q0 -82 61.5 -135t149.5 -53 q82 0 141.5 67.5t59.5 155.5q0 6 -21.5 58.5t-23.5 60.5q-20 0 -89 17.5t-89 17.5q-188 0 -189 -189zM635 1262q0 49 33.5 83.5t81.5 34.5q47 0 80.5 -34.5t33.5 -83.5t-33.5 -84t-80.5 -35t-81 35t-34 84z" />
<glyph unicode="&#xe6;" horiz-adv-x="1755" d="M45 322q0 135 69.5 206.5t245.5 110.5q113 25 144 25q121 0 201 -25v25q0 43 -36 117.5t-36 95.5h-141q-45 0 -80 -43q-10 -12 -58 -89q-39 -45 -110 -45q-82 41 -82 93q0 106 127 182q111 66 227 65q109 0 211 -52t158 -136q188 195 336 195h241q96 0 180 -134 q74 -119 74 -223q0 -41 -31.5 -78t-72.5 -37h-529q-33 0 -62.5 -38.5t-29.5 -75.5q0 -125 101.5 -201t255.5 -76q82 0 143 33q59 43 121 84h57v-82q-115 -129 -213 -176q-88 -43 -223 -43q-90 0 -182 31q-25 -4 -39 -4q-178 0 -273 94q-55 -82 -119.5 -111.5t-175.5 -29.5 q-154 0 -276.5 103t-122.5 239zM315 356q0 -82 61.5 -135t149.5 -53q70 0 126.5 51t70.5 131q-8 37 -8 76q-14 33 -33 84q-20 0 -89 17.5t-89 17.5q-188 0 -189 -189zM1026 696q29 -10 80 -10q334 1 334 62q0 51 -52.5 95t-109.5 44q-98 0 -158 -51q-41 -37 -94 -140z" />
<glyph unicode="&#xe8;" horiz-adv-x="1091" d="M53 408v114q0 139 182.5 322.5t323.5 183.5h242q96 0 180 -133q74 -119 74 -223q0 -41 -32 -78t-73 -37h-528q-33 0 -62.5 -39t-29.5 -76q0 -125 101 -200.5t255 -75.5q82 0 143 33q59 43 121 84h58v-82q-115 -129 -213 -176q-88 -43 -224 -43q-201 0 -359.5 127 t-158.5 299zM362 1462v31l156 23l195 -181l14 -155l-135 -23zM365 678q29 -10 79 -10q334 0 334 61q0 51 -52 95t-110 44q-98 0 -157 -51q-41 -37 -94 -139z" />
<glyph unicode="&#xe9;" horiz-adv-x="1136" d="M68 408v114q0 139 182 322.5t323 183.5h242q96 0 180 -133q74 -119 74 -223q0 -41 -31.5 -78t-72.5 -37h-529q-33 0 -62.5 -39t-29.5 -76q0 -125 101.5 -200.5t254.5 -75.5q82 0 144 33q59 43 121 84h57v-82q-115 -129 -213 -176q-88 -43 -223 -43q-201 0 -359.5 127 t-158.5 299zM379 678q29 -10 80 -10q334 0 334 61q0 51 -52.5 95t-109.5 44q-98 0 -158 -51q-41 -37 -94 -139zM383 1217l178 -37l268 237l-73 60h-142z" />
<glyph unicode="&#xea;" horiz-adv-x="1091" d="M53 408v114q0 139 182.5 322.5t323.5 183.5h242q96 0 180 -133q74 -119 74 -223q0 -41 -32 -78t-73 -37h-528q-33 0 -62.5 -39t-29.5 -76q0 -125 101 -200.5t255 -75.5q82 0 143 33q59 43 121 84h58v-82q-115 -129 -213 -176q-88 -43 -224 -43q-201 0 -359.5 127 t-158.5 299zM205 1143l149 200l164 52l195 -66l133 -239l-336 172zM365 678q29 -10 79 -10q334 0 334 61q0 51 -52 95t-110 44q-98 0 -157 -51q-41 -37 -94 -139z" />
<glyph unicode="&#xeb;" horiz-adv-x="1091" d="M53 408v114q0 139 182.5 322.5t323.5 183.5h242q96 0 180 -133q74 -119 74 -223q0 -41 -32 -78t-73 -37h-528q-33 0 -62.5 -39t-29.5 -76q0 -125 101 -200.5t255 -75.5q82 0 143 33q59 43 121 84h58v-82q-115 -129 -213 -176q-88 -43 -224 -43q-201 0 -359.5 127 t-158.5 299zM281 1239q0 49 33.5 84t80.5 35t81 -35t34 -84t-34 -84t-81 -35t-80.5 35t-33.5 84zM365 678q29 -10 79 -10q334 0 334 61q0 51 -52 95t-110 44q-98 0 -157 -51q-41 -37 -94 -139zM635 1262q0 49 33.5 83.5t81.5 34.5q47 0 80.5 -34.5t33.5 -83.5t-33.5 -84 t-80.5 -35t-81 35t-34 84z" />
<glyph unicode="&#xf0;" horiz-adv-x="1261" d="M55 543q0 88 76 231q162 307 455 307q96 0 200 -43h52v158l-160 10l-14 119h163q-14 31 -61 68q-59 45 -78 67q51 39 164 78q57 18 170 57q51 18 51 -135v-26l-8 -109h197v-156l-175 29l-90 -866q25 -82 78 -207q25 -41 66 -45q35 -2 67 -76l-123 -6q-31 -2 -133 22.5 t-127 24.5q-18 0 -148 -30.5t-175 -30.5q-193 0 -320 163.5t-127 395.5zM317 528q0 -147 85 -229t235 -82q164 0 164 164v532q-25 -6 -58 -4l-55 4q-201 0 -286 -89t-85 -296zM827 1325zM838 1196z" />
<glyph unicode="&#xf2;" d="M80 516q0 223 155.5 362.5t399.5 139.5q262 0 404.5 -134t142.5 -380q0 -182 -146.5 -358.5t-308.5 -176.5q-311 0 -479 141.5t-168 405.5zM362 528q0 -213 59.5 -306t188.5 -93q334 0 334 332q0 164 -119 276q-102 98 -202 99q-115 0 -188 -88.5t-73 -219.5zM362 1462 v31l156 23l195 -181l14 -155l-135 -23z" />
<glyph unicode="&#xf3;" d="M80 516q0 223 155.5 362.5t399.5 139.5q262 0 404.5 -134t142.5 -380q0 -182 -146.5 -358.5t-308.5 -176.5q-311 0 -479 141.5t-168 405.5zM362 528q0 -213 59.5 -306t188.5 -93q334 0 334 332q0 164 -119 276q-102 98 -202 99q-115 0 -188 -88.5t-73 -219.5zM399 1217 l179 -37l268 237l-74 60h-141z" />
<glyph unicode="&#xf4;" d="M80 516q0 223 155.5 362.5t399.5 139.5q262 0 404.5 -134t142.5 -380q0 -182 -146.5 -358.5t-308.5 -176.5q-311 0 -479 141.5t-168 405.5zM205 1143l149 200l164 52l195 -66l133 -239l-336 172zM362 528q0 -213 59.5 -306t188.5 -93q334 0 334 332q0 164 -119 276 q-102 98 -202 99q-115 0 -188 -88.5t-73 -219.5z" />
<glyph unicode="&#xf5;" d="M80 516q0 223 155.5 362.5t399.5 139.5q262 0 404.5 -134t142.5 -380q0 -182 -146.5 -358.5t-308.5 -176.5q-311 0 -479 141.5t-168 405.5zM227 1188l135 178l216 -113l223 76l90 -8l-172 -150l-164 -6l-164 97l-82 -97zM362 528q0 -213 59.5 -306t188.5 -93 q334 0 334 332q0 164 -119 276q-102 98 -202 99q-115 0 -188 -88.5t-73 -219.5z" />
<glyph unicode="&#xf6;" d="M80 516q0 223 155.5 362.5t399.5 139.5q262 0 404.5 -134t142.5 -380q0 -182 -146.5 -358.5t-308.5 -176.5q-311 0 -479 141.5t-168 405.5zM281 1239q0 49 33.5 84t80.5 35t81 -35t34 -84t-34 -84t-81 -35t-80.5 35t-33.5 84zM362 528q0 -213 59.5 -306t188.5 -93 q334 0 334 332q0 164 -119 276q-102 98 -202 99q-115 0 -188 -88.5t-73 -219.5zM635 1262q0 49 33.5 83.5t81.5 34.5q47 0 80.5 -34.5t33.5 -83.5t-33.5 -84t-80.5 -35t-81 35t-34 84z" />
<glyph unicode="&#xf8;" horiz-adv-x="1261" d="M80 516q0 223 155.5 362.5t399.5 139.5q59 0 113 -6l55 159l158 -36l-64 -162q285 -113 285 -469q0 -182 -146.5 -358.5t-308.5 -176.5q-119 0 -217 21l-51 -129l-105 14l52 145q-326 121 -326 496zM362 528q0 -205 109 -315l211 612q-31 10 -59 11q-115 0 -188 -88.5 t-73 -219.5zM567 139l13 -8q14 -2 30 -2q334 0 334 332q0 190 -119 278l-16 13z" />
<glyph unicode="&#xf9;" horiz-adv-x="1435" d="M66 1057q172 -18 344 -62q6 23 69 23q35 0 96 -6q-80 -233 -79 -410q0 -213 53 -307q72 -129 264 -129q127 0 164 133q23 84 22 352q0 145 -29.5 223t-101.5 138v82q29 4 72 4q82 0 109 -41q37 16 90 16q68 0 125 -35q-90 -270 -90 -295t5 -111.5t5 -111.5t-12.5 -101.5 t-12.5 -99.5q0 -57 94 -102q19 -8 146 -53q-20 -31 -23 -53l8 -17q-115 2 -258 -61l25 -4q-16 -25 -125 -84q-35 90 -80 164q-70 -39 -177 -73t-167 -34q-154 0 -225.5 106.5t-71.5 348.5q0 31 3 120t3 107q0 111 -39 168q-31 43 -92 68q-55 18 -108 36zM362 1462v31l156 23 l195 -181l14 -155l-135 -23z" />
<glyph unicode="&#xfa;" horiz-adv-x="1419" d="M66 1057q172 -18 344 -62q6 23 69 23q35 0 96 -6q-80 -233 -79 -410q0 -213 53 -307q72 -129 264 -129q127 0 164 133q23 84 22 352q0 145 -29.5 223t-101.5 138v82q29 4 72 4q82 0 109 -41q37 16 90 16q68 0 125 -35q-90 -270 -90 -295t5 -111.5t5 -111.5t-12.5 -101.5 t-12.5 -99.5q0 -57 94 -102q19 -8 146 -53q-20 -31 -23 -53l8 -17q-115 2 -258 -61l25 -4q-16 -25 -125 -84q-35 90 -80 164q-70 -39 -177 -73t-167 -34q-154 0 -225.5 106.5t-71.5 348.5q0 31 3 120t3 107q0 111 -39 168q-31 43 -92 68q-55 18 -108 36zM399 1217l179 -37 l268 237l-74 60h-141z" />
<glyph unicode="&#xfb;" horiz-adv-x="1419" d="M66 1057q172 -18 344 -62q6 23 69 23q35 0 96 -6q-80 -233 -79 -410q0 -213 53 -307q72 -129 264 -129q127 0 164 133q23 84 22 352q0 145 -29.5 223t-101.5 138v82q29 4 72 4q82 0 109 -41q37 16 90 16q68 0 125 -35q-90 -270 -90 -295t5 -111.5t5 -111.5t-12.5 -101.5 t-12.5 -99.5q0 -57 94 -102q19 -8 146 -53q-20 -31 -23 -53l8 -17q-115 2 -258 -61l25 -4q-16 -25 -125 -84q-35 90 -80 164q-70 -39 -177 -73t-167 -34q-154 0 -225.5 106.5t-71.5 348.5q0 31 3 120t3 107q0 111 -39 168q-31 43 -92 68q-55 18 -108 36zM332 1225l149 200 l164 52l195 -66l133 -240l-336 172z" />
<glyph unicode="&#xfc;" horiz-adv-x="1413" d="M66 1057q172 -18 344 -62q6 23 69 23q35 0 96 -6q-80 -233 -79 -410q0 -213 53 -307q72 -129 264 -129q127 0 164 133q23 84 22 352q0 145 -29.5 223t-101.5 138v82q29 4 72 4q82 0 109 -41q37 16 90 16q68 0 125 -35q-90 -270 -90 -295t5 -111.5t5 -111.5t-12.5 -101.5 t-12.5 -99.5q0 -57 94 -102q19 -8 146 -53q-20 -31 -23 -53l8 -17q-115 2 -258 -61l25 -4q-16 -25 -125 -84q-35 90 -80 164q-70 -39 -177 -73t-167 -34q-154 0 -225.5 106.5t-71.5 348.5q0 31 3 120t3 107q0 111 -39 168q-31 43 -92 68q-55 18 -108 36zM393 1268 q0 49 34 83.5t81 34.5t81 -34.5t34 -83.5q0 -102 -113 -103q-51 0 -84 28t-33 75zM748 1290q0 49 33.5 84t80.5 35t81 -35t34 -84t-34 -84t-81 -35t-80.5 35t-33.5 84z" />
<glyph unicode="&#xfe;" horiz-adv-x="1333" d="M70 1253q53 158 88 158q2 0 25.5 -9t33.5 -9q59 0 145 116h146l-8 -587l121 28q88 25 110 41q-8 0 -43 4h172q131 0 187 -57q20 -23 69 -45q156 -74 156 -414q0 -330 -330 -489q-123 -59 -147 -60q-217 0 -234 -2q-57 -4 -63 -32q2 8 2 -113q0 -84 26 -125l86 -94v-76 h-147q-47 0 -258 94q115 225 115 524v109l-3 119q0 29 4.5 126t4.5 126q0 227 -54 418q-70 250 -204 249zM539 225q0 -113 110 -112q330 -1 330 331q0 94 -63.5 231.5t-129.5 172.5l-98 -12l-98 -74l-6 -170q-2 -31 -23.5 -174.5t-21.5 -192.5z" />
<glyph unicode="&#x2000;" horiz-adv-x="950" />
<glyph unicode="&#x2001;" horiz-adv-x="1901" />
<glyph unicode="&#x2002;" horiz-adv-x="950" />
<glyph unicode="&#x2003;" horiz-adv-x="1901" />
<glyph unicode="&#x2004;" horiz-adv-x="633" />
<glyph unicode="&#x2005;" horiz-adv-x="475" />
<glyph unicode="&#x2006;" horiz-adv-x="316" />
<glyph unicode="&#x2007;" horiz-adv-x="316" />
<glyph unicode="&#x2008;" horiz-adv-x="237" />
<glyph unicode="&#x2009;" horiz-adv-x="380" />
<glyph unicode="&#x200a;" horiz-adv-x="105" />
<glyph unicode="&#x2010;" horiz-adv-x="782" d="M45 446l84 142l96 28l512 -28l-84 -142l-188 27z" />
<glyph unicode="&#x2011;" horiz-adv-x="782" d="M45 446l84 142l96 28l512 -28l-84 -142l-188 27z" />
<glyph unicode="&#x2012;" horiz-adv-x="782" d="M45 446l84 142l96 28l512 -28l-84 -142l-188 27z" />
<glyph unicode="&#x2013;" horiz-adv-x="1114" d="M45 446l124 142l142 28l758 -28l-124 -142l-278 27z" />
<glyph unicode="&#x2014;" horiz-adv-x="2138" d="M45 446l249 142l284 28l1515 -28l-249 -142l-556 27z" />
<glyph unicode="&#x2018;" horiz-adv-x="454" d="M102 1532q0 35 36 66.5t83 31.5q131 1 131 -151q0 -84 -61 -142q-37 -35 -123 -75q-12 0 -27.5 19t-15.5 34q0 8 50 48t58 60q-25 -4 -34 -4q-43 0 -70 33t-27 80z" />
<glyph unicode="&#x2019;" horiz-adv-x="454" d="M102 1532q0 35 36 66.5t83 31.5q131 1 131 -151q0 -84 -61 -142q-37 -35 -123 -75q-12 0 -27.5 19t-15.5 34q0 8 50 48t58 60q-25 -4 -34 -4q-43 0 -70 33t-27 80z" />
<glyph unicode="&#x201c;" horiz-adv-x="749" d="M78 1532q0 35 36 66.5t83 31.5q131 1 131 -151q0 -84 -62 -142q-37 -35 -123 -75q-12 0 -27.5 19t-15.5 34q0 8 50.5 48t58.5 60q-25 -4 -35 -4q-43 0 -69.5 33t-26.5 80zM422 1532q0 35 36 66.5t83 31.5q131 1 131 -151q0 -84 -62 -142q-37 -35 -123 -75q-12 0 -27.5 19 t-15.5 34q0 8 50.5 48t58.5 60q-25 -4 -35 -4q-43 0 -69.5 33t-26.5 80z" />
<glyph unicode="&#x201d;" horiz-adv-x="749" d="M78 1532q0 35 36 66.5t83 31.5q131 1 131 -151q0 -84 -62 -142q-37 -35 -123 -75q-12 0 -27.5 19t-15.5 34q0 8 50.5 48t58.5 60q-25 -4 -35 -4q-43 0 -69.5 33t-26.5 80zM422 1532q0 35 36 66.5t83 31.5q131 1 131 -151q0 -84 -62 -142q-37 -35 -123 -75q-12 0 -27.5 19 t-15.5 34q0 8 50.5 48t58.5 60q-25 -4 -35 -4q-43 0 -69.5 33t-26.5 80z" />
<glyph unicode="&#x202f;" horiz-adv-x="380" />
<glyph unicode="&#x205f;" horiz-adv-x="475" />
<glyph unicode="&#x2122;" horiz-adv-x="1839" d="M66 1647q301 254 323 254q16 0 25 -35q-14 -51 -39 -158q88 -35 127 -35q6 -39 6 -65v-13h-6v-30q-2 -16 -19 -17q-10 0 -39.5 4t-35.5 4q-16 0 -46 -6q-27 -182 -26 -305q0 -78 20 -151q29 -106 84 -107l115 39v-27q-33 -59 -90 -79q-39 -14 -121 -15q-49 0 -100 37 t-64 90q-6 27 -6 125q0 375 39 447h-31q-20 -2 -30 -2q-86 0 -86 45zM522 1464q12 18 15 33l-7 8q68 0 156 37l-14 4q8 14 73 49q20 -53 50 -98q111 63 204 64q178 0 179 -273q0 20 -2 -71v-64q0 -96 49 -127q47 -18 94 -37v-33q-51 -27 -115 -26q-35 0 -94 10l-94 16 q49 139 49 246q0 145 -44 202.5t-147 57.5q-84 0 -104 -96q-8 -37 -8 -164q0 -98 8 -135q14 -68 70 -111v-49q-49 -6 -70 -6q-12 0 -22 2l-3 4h-75q-25 6 -66 33q53 162 53 176t-3 67.5t-3 67.5t7.5 60.5t7.5 58.5q0 45 -144 94zM1157 1454q80 115 330 115q178 0 178 -273 q0 -18 -2 -72.5t-2 -64.5q0 -90 33 -115l110 -49v-32q-51 -25 -112 -25q-47 0 -95 8q-92 16 -94 17q47 141 47 245q0 147 -44 204.5t-146 57.5q-76 0 -112 -17t-77 -73z" />
<glyph unicode="&#xe000;" horiz-adv-x="993" d="M0 0v993h993v-993h-993z" />
</font>
</defs>
</svg>
