<?xml version="1.0" standalone="no"?>
<!DOCTYPE svg PUBLIC "-//W3C//DTD SVG 1.1//EN" "http://www.w3.org/Graphics/SVG/1.1/DTD/svg11.dtd" >
<svg xmlns="http://www.w3.org/2000/svg">
<metadata>
This is a custom SVG webfont generated by Font Squirrel.
Copyright   : C2000 Nate Piekos  wwwpiekosartscomblambotfonts
</metadata>
<defs>
<font id="ArmorPiercingRegular" horiz-adv-x="353" >
<font-face units-per-em="1024" ascent="819" descent="-205" />
<missing-glyph horiz-adv-x="239" />
<glyph unicode=" "  horiz-adv-x="239" />
<glyph unicode="&#x09;" horiz-adv-x="239" />
<glyph unicode="&#xa0;" horiz-adv-x="239" />
<glyph unicode="!" horiz-adv-x="240" d="M26 340h117v-116h-117v116zM2 1070h161l-20 -658h-117z" />
<glyph unicode="&#x22;" horiz-adv-x="366" d="M118 1027v-116l-23 -96h-75l-19 96v116h117zM284 1027v-116l-23 -96h-75l-19 96v116h117z" />
<glyph unicode="#" horiz-adv-x="587" d="M113 1028h116v-251h68v251h116v-251h100l-13 -116h-87v-67h79l-13 -116h-66v-251h-116v251h-68v-251h-116v251h-105l13 116h92v67h-84l13 116h71v251zM229 661v-67h68v67h-68z" />
<glyph unicode="$" horiz-adv-x="372" d="M297 985v-140h-116v85q-18 11 -35 11t-34 -11v-153l152 -27q21 -4 27 -13.5t6 -32.5v-450q0 -37 -92 -51v-86h-116v85q-92 11 -92 56v255h115v-207q17 -12 34 -12t35 12v341l-155 29q-25 8 -29 41v265q4 41 92 57v87h116v-84q92 -15 92 -57z" />
<glyph unicode="%" horiz-adv-x="657" d="M358 1028h116l-99 -370h1h148q30 0 51.5 -21.5t21.5 -51.5v-142q0 -30 -21.5 -51.5t-51.5 -21.5h-146q-51 0 -69 47l-51 -190h-116l105 387q-15 -5 -28 -5h-146q-31 0 -52 21t-21 52v142q0 31 21 52.5t52 21.5h146q30 0 51.5 -22t21.5 -52v-42zM414 574v-120h74v120h-74z M109 813v-119h74v119h-74z" />
<glyph unicode="&#x26;" horiz-adv-x="347" d="M115 540v-64h152v-116h-75v-133h-116v132h-76v221l47 17l-47 14v242h76v175h116v-175h75v-116h-152v-92l87 7v-105z" />
<glyph unicode="'" horiz-adv-x="221" d="M1 1027h117v-212h-75v96h-42v116z" />
<glyph unicode="(" horiz-adv-x="372" d="M145 1028h117q-156 -201 -151 -401t151 -400h-117q-135 200 -144 400t144 401z" />
<glyph unicode=")" d="M116 1028q154 -201 145 -401t-145 -400h-116q145 200 150 400q4 200 -150 401h116z" />
<glyph unicode="*" horiz-adv-x="398" d="M116 1026h88v-84l76 35l37 -81l-51 -23l51 -24l-37 -80l-76 34v-83h-88v83l-76 -34l-37 80l51 24l-51 23l37 81l76 -35v84z" />
<glyph unicode="+" horiz-adv-x="372" d="M0 446v116h94v93h116v-93h93v-116h-93v-93h-116v93h-94z" />
<glyph unicode="," horiz-adv-x="221" d="M1 344h117v-212h-75v96h-42v116z" />
<glyph unicode="-" horiz-adv-x="385" d="M1 453v116h303v-116h-303z" />
<glyph unicode="." horiz-adv-x="221" d="M1 226v116h117v-116h-117z" />
<glyph unicode="/" horiz-adv-x="417" d="M221 1028h116l-216 -801h-116z" />
<glyph unicode="0" d="M73 1030h146q30 0 51.5 -21.5t21.5 -51.5v-659q0 -30 -21.5 -51.5t-51.5 -21.5h-146q-31 0 -52 21t-21 52v659q0 31 21 52t52 21zM109 946v-636h74v636h-74z" />
<glyph unicode="1" horiz-adv-x="265" d="M69 1029h116v-802h-116v638h-67z" />
<glyph unicode="2" d="M293 674h-179v-333h179v-116h-294l1 512q0 53 49 53h128v123h-177v116h228q65 0 65 -72v-283z" />
<glyph unicode="3" d="M296 957v-688q-8 -52 -58 -52h-236v116h178v333h-178v116h178v123h-178v116q38 0 114.5 2t114.5 2q26 0 45.5 -21t19.5 -47z" />
<glyph unicode="4" d="M177 1028h116v-802h-116v177h-177v625h116v-509h61v509z" />
<glyph unicode="5" d="M235 225h-235v116h179v333h-179v355h295v-116h-177v-123h124q52 0 53 -56q2 -101 1 -221l-1 -220q0 -38 -11 -53t-49 -15z" />
<glyph unicode="6" d="M240 225h-188q-53 0 -53 68v691q0 45 42 45h251v-116h-177v-123h128q48 0 49 -44q2 -132 0 -233q-3 -106 0 -231q1 -57 -52 -57zM115 341h61v333h-61v-333z" />
<glyph unicode="7" d="M322 1031l-147 -808h-116l126 694h-182v116q53 0 159.5 -1t159.5 -1z" />
<glyph unicode="8" d="M241 223h-189q-51 0 -51 70l-1 679q0 55 56 56q30 0 96 -1q48 -1 96 0q46 1 46 -40v-697q0 -67 -53 -67zM178 911h-61v-123h61v123zM117 339h61v333h-61v-333z" />
<glyph unicode="9" d="M51 1029h189q53 0 53 -68v-691q0 -45 -43 -45h-250v116h176v123h-128q-47 0 -48 45q-2 138 -1 232q2 108 1 231q0 57 51 57zM176 913h-61v-333h61v333z" />
<glyph unicode=":" horiz-adv-x="221" d="M1 342h117v-116h-117v116zM1 674h117v-116h-117v116z" />
<glyph unicode=";" horiz-adv-x="221" d="M1 674h117v-116h-117v116zM1 344h117v-212h-75v96h-42v116z" />
<glyph unicode="&#x3c;" horiz-adv-x="423" d="M242 1028h116l-243 -401l243 -400h-116l-239 405z" />
<glyph unicode="=" horiz-adv-x="372" d="M0 546v116h303v-116h-303zM0 372v116h303v-116h-303z" />
<glyph unicode="&#x3e;" horiz-adv-x="423" d="M119 1028l239 -396l-239 -405h-116l243 400l-243 401h116z" />
<glyph unicode="?" horiz-adv-x="372" d="M301 554q0 -39 -37 -39h-56v-104h-117v241h94v331q-18 11 -35 11t-34 -11v-248h-116v295q0 34 61 49q39 10 88 10q45 0 88 -10q64 -15 64 -45v-480zM91 339h117v-116h-117v116z" />
<glyph unicode="@" horiz-adv-x="651" d="M74 1115h438q30 0 53 -21.5t23 -51.5v-830q0 -30 -21.5 -51.5t-51.5 -21.5h-441q-31 0 -52 21t-21 52v830q0 31 21 52t52 21zM270 278l-4 -50h-117l70 802h164l96 -720v720h-369v-807h369v5h-80l-8 60zM378 392l-59 443l-40 -451z" />
<glyph unicode="A" horiz-adv-x="385" d="M69 1029h163l107 -802h-90l-8 60l-121 -10l-5 -50h-115zM227 391l-59 443l-39 -452z" />
<glyph unicode="B" d="M1 1029h4v2q42 -2 88 -2h24v-1q42 -2 84 -2q54 -20 63 -77q30 -180 25 -439q-1 -56 -40 -84l41 -68q12 -20 12 -41q0 -19 -10 -39q-23 -44 -55 -53l-236 2v802zM155 380l-38 -18v-46l81 2zM117 926v-411l36 17q24 11 25 38q4 88 2 164q-3 87 -21 165q-6 27 -31 27h-11z " />
<glyph unicode="C" d="M73 1024h146q30 0 51.5 -21.5t21.5 -51.5v-86h-109v74h-74v-635h74v40h109v-52q0 -30 -21.5 -51.5t-51.5 -21.5h-146q-30 0 -51.5 21.5t-21.5 51.5v659q0 30 21.5 51.5t51.5 21.5z" />
<glyph unicode="D" d="M-4 1021h4v3l43 -2q22 -1 44 -1h24q42 -2 84 -2q54 -22 63 -77q32 -196 25 -575q-1 -64 -53 -92q-60 -32 -114 -44q-45 -10 -120 -11v801zM111 921v-586l36 17q24 11 25 39.5t3 104.5q1 150 -8 291q-5 65 -14 106q-6 25 -31 28h-11z" />
<glyph unicode="E" d="M117 408v-64h152v-116h-152v-1h-116v802h268v-116h-152v-400l87 7v-105z" />
<glyph unicode="F" d="M113 408v-181h-115v802h267v-116h-152v-400l87 7v-105z" />
<glyph unicode="G" d="M73 1024h146q30 0 51.5 -21.5t21.5 -51.5v-85h-109v74h-74v-636h74v210h109v-332h-109v37h-110q-30 0 -51.5 21.5t-21.5 51.5v659q0 30 21.5 51.5t51.5 21.5z" />
<glyph unicode="H" horiz-adv-x="372" d="M-2 1029h115v-617l79 7v610h116v-802h-116v87l-79 -6v-81h-115v802z" />
<glyph unicode="I" horiz-adv-x="195" d="M0 227v802h115v-802h-115z" />
<glyph unicode="J" horiz-adv-x="360" d="M184 1030l109 -3v-729q0 -30 -21.5 -51.5t-51.5 -21.5h-146q-31 0 -52 21t-21 52v222h109v-210h74v720z" />
<glyph unicode="K" horiz-adv-x="372" d="M-2 1025h115l2 -334l101 332l93 -29l-132 -432l136 -287l-107 -59l-79 184l-14 -45v-132h-115v802z" />
<glyph unicode="L" horiz-adv-x="366" d="M1 1029h116v-686h170v-116h-286v802z" />
<glyph unicode="M" horiz-adv-x="505" d="M-1 1029h115v-1q35 0 90 1q129 2 198 -32q38 -20 40 -60q0 -79 0 -27v-78v-605h-116v690q-7 24 -45 21v-711h-116v690q-25 23 -51 19v-709h-115v802z" />
<glyph unicode="N" horiz-adv-x="385" d="M0 1029h116q84 0 124 -11q74 -20 78 -81v0h-1v-710h-116v690q-20 23 -61 23q-13 0 -24 -4v-709h-116v802z" />
<glyph unicode="O" d="M73 1030h146q30 0 51.5 -21.5t21.5 -51.5v-659q0 -30 -21.5 -51.5t-51.5 -21.5h-146q-31 0 -52 21t-21 52v659q0 31 21 52t52 21zM109 946v-636h74v636h-74z" />
<glyph unicode="P" d="M-2 1028h5l-1 2q15 0 44 -1t44 -1h23v-1q14 0 43 -1t43 -1q53 -20 62 -76q30 -185 25 -440q-1 -67 -53 -92l-120 -57v-133h-115v801zM113 890v-376l37 17q25 11 26 38q3 64 1 147q-3 70 -21 147q-6 24 -30 27h-13z" />
<glyph unicode="Q" d="M72 1026h146q30 0 51.5 -22t21.5 -52v-659q0 -39 -34 -61l22 -40l-106 -67l-45 95h-56q-31 0 -52 21t-21 52v659q0 31 21 52.5t52 21.5zM108 941v-636h73v636h-73z" />
<glyph unicode="R" d="M-3 1025h4v2q42 -2 88 -2h23v-1q42 -2 85 -2q54 -20 63 -77q30 -178 25 -439q-1 -64 -53 -92l-12 -5l91 -191l-108 -58l-85 200l-6 -3v-134h-115v802zM112 887v-376l36 16q25 14 26 39q4 85 1 147q-3 65 -21 147q-5 24 -30 27h-12z" />
<glyph unicode="S" horiz-adv-x="366" d="M300 991v-140h-116v85q-18 11 -35 11q-18 0 -34 -11v-152l152 -28q21 -4 27 -13.5t6 -31.5v-450q0 -31 -64 -46q-42 -10 -88 -10q-50 0 -88 10q-60 15 -60 50v255h115v-208q17 -10 34 -10t35 10v342l-155 29q-29 10 -29 40v265q0 33 62 50q42 12 89 14q55 1 102 -14.5 t47 -46.5z" />
<glyph unicode="T" horiz-adv-x="341" d="M200 907v-687h-116v687h-83v116h283v-116h-84z" />
<glyph unicode="U" d="M110 1024l-1 -720h74l-1 720h110v-732q0 -30 -21.5 -51.5t-51.5 -21.5h-146q-30 0 -51.5 21.5t-21.5 51.5v732h110z" />
<glyph unicode="V" horiz-adv-x="385" d="M331 1020l-85 -797h-158l-85 797l115 13l49 -456l49 456z" />
<glyph unicode="W" horiz-adv-x="493" d="M442 221h-116v1q-36 -1 -91 -2q-129 -2 -197 33q-39 20 -39 60v710h115v-690q5 -25 45 -21v711h116v-690q18 -20 37 -20q6 0 14 1v709h116v-802z" />
<glyph unicode="X" horiz-adv-x="410" d="M0 1008l111 35l65 -224l65 224l111 -35l-116 -399l109 -374l-111 -36l-58 200l-58 -200l-111 36l108 374z" />
<glyph unicode="Y" d="M200 405v-176h-116v176h-54q-29 0 -29 38l-1 583h116v-505h51v505h117v-592q0 -29 -33 -29h-51z" />
<glyph unicode="Z" d="M-4 907v116h283v-116l-167 -570h167v-116h-283v116l173 570h-173z" />
<glyph unicode="[" d="M112 1029v-804h179v-116h-294v1036h294v-116h-179z" />
<glyph unicode="]" d="M175 1029h-178v116h294v-1036h-294v116h178v804z" />
<glyph unicode="_" horiz-adv-x="347" d="M1 108v116h342v-116h-342z" />
<glyph unicode="a" horiz-adv-x="385" d="M69 1029h163l107 -802h-90l-8 60l-121 -10l-5 -50h-115zM227 391l-59 443l-39 -452z" />
<glyph unicode="b" d="M1 1029h4v2q42 -2 88 -2h24v-1q42 -2 84 -2q54 -20 63 -77q30 -180 25 -439q-1 -56 -40 -84l41 -68q12 -20 12 -41q0 -19 -10 -39q-23 -44 -55 -53l-236 2v802zM155 380l-38 -18v-46l81 2zM117 926v-411l36 17q24 11 25 38q4 88 2 164q-3 87 -21 165q-6 27 -31 27h-11z " />
<glyph unicode="c" d="M73 1024h146q30 0 51.5 -21.5t21.5 -51.5v-86h-109v74h-74v-635h74v40h109v-52q0 -30 -21.5 -51.5t-51.5 -21.5h-146q-30 0 -51.5 21.5t-21.5 51.5v659q0 30 21.5 51.5t51.5 21.5z" />
<glyph unicode="d" d="M-4 1021h4v3l43 -2q22 -1 44 -1h24q42 -2 84 -2q54 -22 63 -77q32 -196 25 -575q-1 -64 -53 -92q-60 -32 -114 -44q-45 -10 -120 -11v801zM111 921v-586l36 17q24 11 25 39.5t3 104.5q1 150 -8 291q-5 65 -14 106q-6 25 -31 28h-11z" />
<glyph unicode="e" d="M117 408v-64h152v-116h-152v-1h-116v802h268v-116h-152v-400l87 7v-105z" />
<glyph unicode="f" d="M113 408v-181h-115v802h267v-116h-152v-400l87 7v-105z" />
<glyph unicode="g" d="M73 1024h146q30 0 51.5 -21.5t21.5 -51.5v-85h-109v74h-74v-636h74v210h109v-332h-109v37h-110q-30 0 -51.5 21.5t-21.5 51.5v659q0 30 21.5 51.5t51.5 21.5z" />
<glyph unicode="h" horiz-adv-x="372" d="M-2 1029h115v-617l79 7v610h116v-802h-116v87l-79 -6v-81h-115v802z" />
<glyph unicode="i" horiz-adv-x="195" d="M0 227v802h115v-802h-115z" />
<glyph unicode="j" horiz-adv-x="360" d="M184 1030l109 -3v-729q0 -30 -21.5 -51.5t-51.5 -21.5h-146q-31 0 -52 21t-21 52v222h109v-210h74v720z" />
<glyph unicode="k" horiz-adv-x="372" d="M-2 1025h115l2 -334l101 332l93 -29l-132 -432l136 -287l-107 -59l-79 184l-14 -45v-132h-115v802z" />
<glyph unicode="l" horiz-adv-x="366" d="M1 1029h116v-686h170v-116h-286v802z" />
<glyph unicode="m" horiz-adv-x="505" d="M-1 1029h115v-1q35 0 90 1q129 2 198 -32q38 -20 40 -60q0 -79 0 -27v-78v-605h-116v690q-7 24 -45 21v-711h-116v690q-25 23 -51 19v-709h-115v802z" />
<glyph unicode="n" horiz-adv-x="385" d="M0 1029h116q84 0 124 -11q74 -20 78 -81v0h-1v-710h-116v690q-20 23 -61 23q-13 0 -24 -4v-709h-116v802z" />
<glyph unicode="o" d="M73 1030h146q30 0 51.5 -21.5t21.5 -51.5v-659q0 -30 -21.5 -51.5t-51.5 -21.5h-146q-31 0 -52 21t-21 52v659q0 31 21 52t52 21zM109 946v-636h74v636h-74z" />
<glyph unicode="p" d="M-2 1028h5l-1 2q15 0 44 -1t44 -1h23v-1q14 0 43 -1t43 -1q53 -20 62 -76q30 -185 25 -440q-1 -67 -53 -92l-120 -57v-133h-115v801zM113 890v-376l37 17q25 11 26 38q3 64 1 147q-3 70 -21 147q-6 24 -30 27h-13z" />
<glyph unicode="q" d="M72 1026h146q30 0 51.5 -22t21.5 -52v-659q0 -39 -34 -61l22 -40l-106 -67l-45 95h-56q-31 0 -52 21t-21 52v659q0 31 21 52.5t52 21.5zM108 941v-636h73v636h-73z" />
<glyph unicode="r" d="M-3 1025h4v2q42 -2 88 -2h23v-1q42 -2 85 -2q54 -20 63 -77q30 -178 25 -439q-1 -64 -53 -92l-12 -5l91 -191l-108 -58l-85 200l-6 -3v-134h-115v802zM112 887v-376l36 16q25 14 26 39q4 85 1 147q-3 65 -21 147q-5 24 -30 27h-12z" />
<glyph unicode="s" horiz-adv-x="366" d="M300 991v-140h-116v85q-18 11 -35 11q-18 0 -34 -11v-152l152 -28q21 -4 27 -13.5t6 -31.5v-450q0 -31 -64 -46q-42 -10 -88 -10q-50 0 -88 10q-60 15 -60 50v255h115v-208q17 -10 34 -10t35 10v342l-155 29q-29 10 -29 40v265q0 33 62 50q42 12 89 14q55 1 102 -14.5 t47 -46.5z" />
<glyph unicode="t" horiz-adv-x="341" d="M200 907v-687h-116v687h-83v116h283v-116h-84z" />
<glyph unicode="u" d="M110 1024l-1 -720h74l-1 720h110v-732q0 -30 -21.5 -51.5t-51.5 -21.5h-146q-30 0 -51.5 21.5t-21.5 51.5v732h110z" />
<glyph unicode="v" horiz-adv-x="385" d="M331 1020l-85 -797h-158l-85 797l115 13l49 -456l49 456z" />
<glyph unicode="w" horiz-adv-x="493" d="M442 221h-116v1q-36 -1 -91 -2q-129 -2 -197 33q-39 20 -39 60v710h115v-690q5 -25 45 -21v711h116v-690q18 -20 37 -20q6 0 14 1v709h116v-802z" />
<glyph unicode="x" horiz-adv-x="410" d="M0 1008l111 35l65 -224l65 224l111 -35l-116 -399l109 -374l-111 -36l-58 200l-58 -200l-111 36l108 374z" />
<glyph unicode="y" d="M200 405v-176h-116v176h-54q-29 0 -29 38l-1 583h116v-505h51v505h117v-592q0 -29 -33 -29h-51z" />
<glyph unicode="z" d="M-4 907v116h283v-116l-167 -570h167v-116h-283v116l173 570h-173z" />
<glyph unicode="&#xaa;" horiz-adv-x="385" d="M69 1029h163l107 -802h-90l-8 60l-121 -10l-5 -50h-115zM227 391l-59 443l-39 -452z" />
<glyph unicode="&#xb2;" d="M293 674h-179v-333h179v-116h-294l1 512q0 53 49 53h128v123h-177v116h228q65 0 65 -72v-283z" />
<glyph unicode="&#xb3;" d="M296 957v-688q-8 -52 -58 -52h-236v116h178v333h-178v116h178v123h-178v116q38 0 114.5 2t114.5 2q26 0 45.5 -21t19.5 -47z" />
<glyph unicode="&#xb9;" horiz-adv-x="265" d="M69 1029h116v-802h-116v638h-67z" />
<glyph unicode="&#xba;" d="M73 1030h146q30 0 51.5 -21.5t21.5 -51.5v-659q0 -30 -21.5 -51.5t-51.5 -21.5h-146q-31 0 -52 21t-21 52v659q0 31 21 52t52 21zM109 946v-636h74v636h-74z" />
<glyph unicode="&#xd2;" horiz-adv-x="366" d="M293 1027v-116h-42v-96h-74v212h116zM118 1027v-116h-43v-96h-74v212h117z" />
<glyph unicode="&#xd3;" horiz-adv-x="366" d="M1 1027h117v-212h-75v96h-42v116zM177 1027h116v-212h-74v96h-42v116z" />
<glyph unicode="&#xd4;" horiz-adv-x="221" d="M1 1027h117v-212h-75v96h-42v116z" />
<glyph unicode="&#xd5;" horiz-adv-x="221" d="M1 1027h117v-212h-75v96h-42v116z" />
<glyph unicode="&#x152;" horiz-adv-x="706" d="M470 408v-64h152v-116h-152v-1h-116v802h268v-116h-152v-400l87 7v-105zM73 1030h146q30 0 51.5 -21.5t21.5 -51.5v-659q0 -30 -21.5 -51.5t-51.5 -21.5h-146q-31 0 -52 21t-21 52v659q0 31 21 52t52 21zM109 946v-636h74v636h-74z" />
<glyph unicode="&#x153;" horiz-adv-x="706" d="M470 408v-64h152v-116h-152v-1h-116v802h268v-116h-152v-400l87 7v-105zM73 1030h146q30 0 51.5 -21.5t21.5 -51.5v-659q0 -30 -21.5 -51.5t-51.5 -21.5h-146q-31 0 -52 21t-21 52v659q0 31 21 52t52 21zM109 946v-636h74v636h-74z" />
<glyph unicode="&#x2013;" horiz-adv-x="512" d="M102 256v102h308v-102h-308z" />
<glyph unicode="&#x2014;" horiz-adv-x="1024" d="M102 256v102h820v-102h-820z" />
<glyph unicode="&#x2018;" horiz-adv-x="221" d="M118 1013h-117v-212h75v96h42v116z" />
<glyph unicode="&#x2019;" horiz-adv-x="221" d="M1 1027h117v-212h-75v96h-42v116z" />
<glyph unicode="&#x201c;" horiz-adv-x="366" d="M293 1027v-116h-42v-96h-74v212h116zM118 1027v-116h-43v-96h-74v212h117z" />
<glyph unicode="&#x201d;" horiz-adv-x="366" d="M1 1027h117v-212h-75v96h-42v116zM177 1027h116v-212h-74v96h-42v116z" />
<glyph unicode="&#x2026;" horiz-adv-x="663" d="M443 226v116h117v-116h-117zM222 226v116h117v-116h-117zM1 226v116h117v-116h-117z" />
<glyph unicode="&#x2039;" horiz-adv-x="423" d="M242 1028h116l-243 -401l243 -400h-116l-239 405z" />
<glyph unicode="&#x203a;" horiz-adv-x="423" d="M119 1028l239 -396l-239 -405h-116l243 400l-243 401h116z" />
<glyph unicode="&#x2122;" horiz-adv-x="846" d="M340 1029h115v-1q35 0 90 1q129 2 198 -32q38 -20 40 -60q0 -79 0 -27v-78v-605h-116v690q-7 24 -45 21v-711h-116v690q-25 23 -51 19v-709h-115v802zM200 907v-687h-116v687h-83v116h283v-116h-84z" />
<glyph unicode="&#xe000;" horiz-adv-x="1045" d="M0 1045h1045v-1045h-1045v1045z" />
<glyph unicode="&#xfb01;" horiz-adv-x="548" d="M353 227v802h115v-802h-115zM113 408v-181h-115v802h267v-116h-152v-400l87 7v-105z" />
<glyph unicode="&#xfb02;" horiz-adv-x="719" d="M354 1029h116v-686h170v-116h-286v802zM113 408v-181h-115v802h267v-116h-152v-400l87 7v-105z" />
<glyph unicode="&#xfb03;" horiz-adv-x="901" d="M706 227v802h115v-802h-115zM466 408v-181h-115v802h267v-116h-152v-400l87 7v-105zM113 408v-181h-115v802h267v-116h-152v-400l87 7v-105z" />
<glyph unicode="&#xfb04;" horiz-adv-x="1072" d="M707 1029h116v-686h170v-116h-286v802zM466 408v-181h-115v802h267v-116h-152v-400l87 7v-105zM113 408v-181h-115v802h267v-116h-152v-400l87 7v-105z" />
</font>
</defs>
</svg>
