<?xml version="1.0" standalone="no"?>
<!DOCTYPE svg PUBLIC "-//W3C//DTD SVG 1.1//EN" "http://www.w3.org/Graphics/SVG/1.1/DTD/svg11.dtd" >
<svg xmlns="http://www.w3.org/2000/svg">
<metadata></metadata>
<defs>
<font id="brandywineregular" horiz-adv-x="636" >
<font-face units-per-em="2048" ascent="1638" descent="-410" />
<missing-glyph horiz-adv-x="647" />
<glyph horiz-adv-x="2048" />
<glyph horiz-adv-x="2048" />
<glyph unicode="&#xd;" horiz-adv-x="647" />
<glyph unicode=" "  horiz-adv-x="647" />
<glyph unicode="&#x09;" horiz-adv-x="647" />
<glyph unicode="&#xa0;" horiz-adv-x="647" />
<glyph unicode="!" horiz-adv-x="448" d="M41 127l4 14q96 61 115 62q23 0 44 -39t21 -62q0 -18 -44 -60t-62 -42q-35 0 -58 49q-20 39 -20 78zM57 1264q0 82 68 82q98 -1 98 -392q0 -80 -32.5 -202.5t-32.5 -210.5q0 -20 -4 -62.5t-4 -62.5q0 -35 18 -69t18 -44q0 -20 -16 -36.5t-35 -16.5q-72 0 -72 219 q0 82 35 240.5t35 238.5q0 84 -38 181.5t-38 134.5z" />
<glyph unicode="&#x22;" horiz-adv-x="501" d="M31 1087l86 136q-45 39 -45 114l4 15q96 61 114 61q23 0 44.5 -38.5t21.5 -61.5q0 -20 -49 -66h2l-131 -182zM248 1081l86 136q-45 39 -45 114l4 15q96 61 115 61q23 0 44 -38.5t21 -61.5q0 -20 -49 -66h2l-131 -182z" />
<glyph unicode="$" horiz-adv-x="905" d="M31 61q0 86 66.5 170t150.5 84q47 0 72.5 -23.5t52.5 -45.5v-13l121 240q-41 106 -41 248q0 47 30 156q51 51 100.5 100t137.5 49q35 0 78 -6l51 98l55 -14l-55 -103l22 -20v-45q-20 -23 -41 -29q-39 -8 -47 -12l-172 -373q14 -39 117 -207q80 -133 80 -211 q0 -121 -78 -239q-86 -129 -199 -129q-27 0 -80 -9.5t-81 -9.5q-72 0 -160 58l-84 -133l-49 43l63 125q-111 127 -110 251zM152 55q0 127 110 127q10 0 29 -6t31 -6q-4 -90 -121 -256q-49 45 -49 141zM252 -125l276 522l90 -164q58 -113 58 -170q0 -102 -79 -175.5 t-183 -73.5q-68 0 -162 61zM582 672q0 90 34 155q43 79 125 91l-157 -293q-2 23 -2 47z" />
<glyph unicode="&#x26;" horiz-adv-x="1138" d="M68 115q0 180 148.5 315t330.5 133l16 15q-82 152 -262 446q57 8 129 8q98 0 295 -3t295 -3q-123 -270 -264 -500q10 -27 46 -35t70 -14q109 -33 213 -201q0 -285 -131 -403q-80 -74 -260 -104q-164 -29 -192 -76v-244q0 -45 52 -121t95 -82q100 -12 117 -12 q31 0 77 62.5t46 93.5q0 23 -39 57h-35q-6 -14 -6 -25q0 -10 9 -26.5t9 -26.5q0 -18 -23.5 -41.5t-41.5 -23.5t-57 50t-39 66q0 51 63 82q51 25 109 25q53 0 97 -37t44 -90q0 -104 -68.5 -171t-173.5 -67q-63 0 -145 25q-92 29 -127 68q-10 27 -27 73q-47 125 -47 154 q0 76 41 242q-53 27 -160 79q-66 37 -135 139.5t-69 172.5zM158 186q0 -106 82 -229q90 -135 192 -135q29 0 39 41q6 33 10 67q-53 18 -107.5 104.5t-54.5 145.5q0 70 54 131q53 51 104 103q35 35 98 57q53 16 109 33q101 192 203 440q-27 0 -83 11.5t-83 11.5 q-55 0 -150 -9q-111 -8 -149 -10q55 -68 127 -188q86 -145 86 -193q0 -47 -35 -47q-12 0 -16 5t-15 5q-16 0 -88 -22q-49 -16 -96 -31q-115 -33 -201 -233q0 -2 -13 -23.5t-13 -34.5zM412 197q0 -57 18 -113q27 -72 70 -80q58 143 164 434l-25 13q-133 -74 -156 -95 q-72 -59 -71 -159zM535 -199h53q166 0 295 113q137 114 137 276q0 94 -76 177.5t-168 83.5q-80 0 -80 -121q31 -4 95 -15q35 -10 66.5 -67.5t31.5 -95.5q0 -12 -15 -91q-51 -66 -133 -110q-90 -49 -163 -43l-21 -10q-25 -31 -22 -97zM563 -8q20 -14 35 -17q49 14 145 43 q16 18 35 42t19 40q0 179 -82 179q-39 0 -60 -41q-12 -37 -24 -76q-29 -55 -68 -170z" />
<glyph unicode="'" horiz-adv-x="432" d="M31 1087l86 136q-45 39 -45 114l4 15q96 61 114 61q23 0 44.5 -38.5t21.5 -61.5q0 -20 -49 -66h2l-131 -182z" />
<glyph unicode="(" horiz-adv-x="282" d="M37 438q0 244 143 633l53 -12q-88 -397 -88 -641q1 -314 101 -758l-70 -6q-139 442 -139 784z" />
<glyph unicode=")" horiz-adv-x="282" d="M37 -340q100 449 100 760q0 244 -88 639l53 12q144 -389 144 -633q0 -342 -140 -784z" />
<glyph unicode="*" horiz-adv-x="524" d="M29 1171l121 132l-115 135l174 -39l57 168l53 -170l177 33l-121 -132l114 -135l-174 39l-57 -168l-53 170z" />
<glyph unicode="+" horiz-adv-x="464" d="M72 616v70h129v125h65v-125h129v-70h-129v-206h-65v206h-129z" />
<glyph unicode="," horiz-adv-x="432" d="M0 -123l86 135q-45 39 -45 115l4 14q96 61 115 62q23 0 44 -39t21 -62q0 -20 -49 -65h2l-131 -182z" />
<glyph unicode="-" d="M43 479v72h545v-72h-545z" />
<glyph unicode="." horiz-adv-x="430" d="M57 127l4 14q96 61 115 62q23 0 44.5 -39t21.5 -62q0 -18 -44 -60t-63 -42q-35 0 -57 49q-20 39 -21 78z" />
<glyph unicode="0" horiz-adv-x="1222" d="M25 391q0 94 34 207q35 123 91 186q205 242 462 242q35 0 101.5 -17.5t97.5 -17.5q8 0 8 4q-6 8 -16 13q193 -117 245 -183.5t99 -187.5q51 -127 51 -209q0 -197 -14 -262q-18 -74 -72 -164q-55 -98 -111 -137q-35 -25 -124 -66q-98 -45 -129 -45h-156q-47 0 -181.5 44 t-172.5 73q-102 70 -162 235q-51 141 -51 285zM164 379q0 -242 132 -387.5t374 -145.5h16q379 81 379 570q0 336 -231 467q-63 35 -78 39q-20 6 -97 6q-233 0 -368 -160q-127 -152 -127 -389z" />
<glyph unicode="1" horiz-adv-x="473" d="M49 -174q10 6 70 24q43 14 59 41q-6 61 -10 324q0 254 6 674q-12 -2 -34.5 -16.5t-37.5 -14.5q-20 0 -53 12l14 70h9q31 0 151.5 62.5t171.5 62.5q16 0 29 -6q-6 -10 -6 -27q0 -12 8 -24q-113 -61 -131 -123q-8 -29 -8 -580q0 -70 7 -210t7 -208q33 -18 96 -59l2 -4 q0 -10 15 -70h-365v72z" />
<glyph unicode="2" horiz-adv-x="1261" d="M47 -203q2 16 58.5 54t64.5 55q158 96 315 194q180 119 281 240q158 186 158 266q0 12 -2 43t-2 47q-82 80 -166 158q-82 68 -234 68q-211 0 -338 -244q2 -49 54.5 -126t97.5 -83q113 -12 119 -12q31 0 76.5 63.5t45.5 95.5q0 20 -36 58h-37q-6 -14 -6 -25q0 -10 9 -26.5 t9 -26.5q0 -18 -24.5 -43t-43.5 -25q-18 0 -58 50.5t-40 68.5q0 53 66 84q51 25 110 25q55 0 100.5 -38t45.5 -91q0 -109 -71 -176.5t-177 -67.5q-133 0 -238 68q-119 76 -118 202q0 182 172 289q147 92 344 92q172 0 319 -119q154 -127 154 -294q0 -94 -47 -185 q-147 -283 -557 -495q-113 -57 -152 -58q-8 2 -8 6q0 2 2 2q8 0 37.5 -12t42.5 -12q100 0 302 14.5t302 14.5q51 0 102 65q76 96 80 100l92 -57q0 -20 -18 -47q-27 -37 -31 -43q-16 -35 -16 -170q-23 -2 -76 -16q-29 25 -55 49q-20 16 -84 16q-141 0 -424 -27.5t-422 -27.5 q-20 0 -41 24q-29 31 -37 35z" />
<glyph unicode="3" horiz-adv-x="890" d="M53 -20q0 6 39 26q23 12 47 25q25 -20 61 -71.5t60 -70.5q39 -33 94 -32h95q25 0 60.5 13t49.5 15q197 33 197 252q0 113 -150 191q-127 68 -254 67l-78 -10l-32 -100l-68 20l19 182l81 68q0 -78 27 -78q180 0 258 45q104 61 105 230q0 111 -64 151q-51 33 -168 33 q-16 0 -97 -44t-93 -58l-54 -66q-10 8 -57 61q23 33 62 105q18 59 69 178q106 -90 135 -90q162 0 269 -74q121 -86 120 -239q0 -18 -19 -69.5t-32 -70.5q-23 -33 -61 -59q-57 -41 -68 -51q86 -39 123 -62q74 -47 88 -98q8 -29 26.5 -64t18.5 -51q0 -119 -12 -168 q-18 -66 -84 -145q-20 -27 -87 -57.5t-99 -32.5l-250 -6q-63 -2 -86 -17q-27 -25 -56 -47q-23 6 -67 15v59q0 72 -34 130t-34 65z" />
<glyph unicode="4" horiz-adv-x="1071" d="M49 195q2 14 58.5 53t65.5 53t134 162q242 289 314 360q236 242 370 242q16 0 29 -6q-6 -10 -6 -27q0 -12 8 -24q-113 -61 -131 -123q-10 -29 -10 -277q-2 -211 2 -303v-18q86 6 96 6q18 0 18 -25q0 -31 -24 -80l-84 -6q2 -18 0 -47q-2 -37 -2 -49q0 -33 5 -99.5t5 -99.5 q33 -18 96 -59l2 -4q0 -10 15 -70h-365v72q10 6 70 24q43 14 59 41q-6 66 -10 283q-371 -25 -565 -24q-12 0 -36 -8.5t-36 -8.5q-18 0 -41 25q-29 31 -37 37zM326 272q31 -10 49 -10q14 1 391 21l-14 518h-2q-4 0 -60 -64q-186 -223 -364 -465z" />
<glyph unicode="5" horiz-adv-x="1167" d="M47 -12q0 123 109 198q96 68 223 68q84 0 178 -80t94 -162q0 -53 -45 -91t-100 -38q-59 0 -111 25q-66 33 -65 84q0 18 40 68.5t58 50.5t43 -25t25 -43q0 -10 -9.5 -25.5t-9.5 -25.5t6 -27h37q37 37 37 58q0 33 -46 96t-77 63q-4 0 -119 -12q-45 -4 -98 -83t-53 -124 q0 -14 22 -63q78 -174 281 -174q166 0 276 86q123 96 123 258q0 125 -79.5 228t-198.5 128q-51 10 -117 10q-162 0 -328 -51q10 115 11 315q0 123 -11 201q-8 10 -45 28.5t-51 35.5v59h807q31 20 90 66q45 -29 62 -62q44 -68 112 -201q-18 -23 -59 -59v-6l-205 164 q-295 -2 -309 -2q-246 -8 -269 -50v-366q141 43 271 43q203 0 340 -143.5t137 -346.5q0 -195 -149.5 -325.5t-344.5 -130.5q-483 0 -483 383z" />
<glyph unicode="6" horiz-adv-x="1071" d="M25 391q0 264 184 455.5t446 179.5q12 35 29 102l80 9l94 -273l-74 -6l-53 80q-268 0 -417.5 -146.5t-149.5 -412.5q0 -197 88 -336q104 -164 291 -164q111 0 147 15q193 76 193 233q0 117 -88 213t-203 96q-164 0 -254 -203l-62 -8q84 313 326 314q168 0 298 -115 t130 -281q0 -174 -149 -286q-137 -104 -320 -105q-248 0 -399 201q-137 182 -137 438z" />
<glyph unicode="7" horiz-adv-x="1261" d="M178 -211q0 12 21 27q92 74 127 110q2 4 110 133q45 53 115 177t115 180q233 283 325 483q-10 16 -61 16q-78 0 -232.5 -2t-232.5 -2l-215 -170v15v4q-29 25 -60 59q12 39 56.5 105.5t58.5 98.5t66 69q61 -47 94 -68l807 6v-67q-16 -18 -54 -38t-47 -30 q-31 -14 -352 -469q-358 -506 -393 -549q8 -4 47 -37t39 -35q0 -25 -18 -65q-150 6 -166 6q-12 0 -36 -8t-36 -8q-20 0 -41 24q-29 31 -37 35z" />
<glyph unicode="8" horiz-adv-x="974" d="M31 182q0 -174 55 -264q66 -104 227 -139q72 -14 99 -15q10 0 30.5 5.5t30.5 5.5q16 0 51 -2t51 -2q369 -1 369 413q0 16 -18.5 51t-26.5 64q-23 74 -211 160q12 10 68 51q39 27 61 59q12 18 31.5 69.5t19.5 70.5q0 154 -120 239q-106 74 -269 74q-160 0 -260 -76 q-113 -84 -113 -239q0 -16 19.5 -68.5t32.5 -71.5q23 -33 61 -59q55 -39 68 -49q-86 -39 -123 -64q-74 -47 -88 -96q-8 -29 -26.5 -64.5t-18.5 -52.5zM137 135q0 264 348 264q353 0 353 -262q0 -215 -197 -252q-14 -2 -59 -16q-33 -12 -62 -12q-383 0 -383 278zM229 750 q0 -117 60 -191q66 -80 178 -80q145 0 211.5 60.5t66.5 212.5q0 188 -294 188q-113 0 -164 -37q-57 -43 -58 -153z" />
<glyph unicode="9" horiz-adv-x="1071" d="M25 745q0 176 149 289q137 102 318 103q250 0 401 -201q137 -180 137 -438q0 -264 -182 -453q-186 -195 -449 -182q-12 -33 -28 -103l-80 -8l-94 273l73 6l54 -80q268 0 417.5 146.5t149.5 414.5q0 195 -88 336q-104 164 -291 164q-111 0 -147 -17q-193 -76 -193 -233 q0 -115 88 -211t203 -96q162 0 254 200l61 9q-86 -313 -325 -314q-168 0 -295 113q-133 119 -133 282z" />
<glyph unicode=":" horiz-adv-x="448" d="M41 127l4 14q96 61 115 62q23 0 44 -39t21 -62q0 -18 -44 -60t-62 -42q-35 0 -58 49q-20 39 -20 78zM51 631l4 14q96 61 115 62q23 0 44.5 -39t21.5 -62q0 -18 -44.5 -60t-62.5 -42q-35 0 -57 49q-20 39 -21 78z" />
<glyph unicode=";" horiz-adv-x="522" d="M0 -123l86 135q-45 39 -45 115l4 14q96 61 115 62q23 0 44 -39t21 -62q0 -20 -49 -65h2l-131 -182zM51 631l4 14q96 61 115 62q23 0 44.5 -39t21.5 -62q0 -18 -44.5 -60t-62.5 -42q-35 0 -57 49q-20 39 -21 78z" />
<glyph unicode="=" d="M43 309v72h545v-72h-545zM43 479v72h545v-72h-545z" />
<glyph unicode="?" horiz-adv-x="706" d="M12 1114q0 106 82 182t191 76q180 0 286 -72q125 -86 125 -260q0 -172 -170 -295q-39 -31 -119.5 -41t-107.5 -38q-45 -43 -45 -174q0 -37 25.5 -115t25.5 -105q0 -23 -29 -22q-57 0 -75 35q-29 57 -29 303q0 102 113 151q104 43 211 86q113 74 112 236q0 121 -96 182 q-82 51 -207 51q-94 0 -151 -49q-63 -53 -64 -145q0 -37 26.5 -72t63.5 -37l8 8l2 9q0 2 -7 10t-7 16q0 31 41 31q39 0 39 -51q0 -39 -34 -67.5t-75 -28.5q-61 0 -102 69q-33 59 -33 127zM180 127l2 14q96 61 115 62q23 0 44 -39t21 -62q0 -18 -44 -60t-62 -42q-33 0 -57 49 q-18 39 -19 78z" />
<glyph unicode="A" horiz-adv-x="1224" d="M57 -246l9 60q31 18 60.5 38.5t45.5 59.5q92 193 201 537q131 414 182 544h55q33 -39 232 -508q119 -287 239 -575q10 -22 48 -56q32 -28 52 -29q4 0 7 1l12 -72q-49 -6 -130 -6h-42h-57q-79 0 -117 -4v41q35 31 111 88q-8 37 -29 107q-12 43 -98 265t-97 236 q-86 -2 -258 -12q-39 -90 -116 -299q-90 -246 -91 -287q0 -10 117 -78q-2 -10 -2 -22q0 -25 10 -37q-83 12 -197 12q-68 0 -147 -4zM516 551h16q20 0 61.5 -4t61.5 -4q18 0 41 4q-12 25 -53 131q-33 88 -59 119q-20 -39 -36 -124t-32 -122z" />
<glyph unicode="B" horiz-adv-x="890" d="M6 922q10 35 43 88l348 12q162 0 269 -74q120 -85 120 -236q0 -20 -19 -72t-32 -71q-23 -33 -61 -59q-55 -41 -68 -51q86 -39 123 -62q74 -47 88 -98q8 -29 26.5 -64t18.5 -51q0 -289 -190 -377q-119 -53 -459 -53h-180q-4 18 -8 56q8 16 53 38q37 16 41 54q10 76 10 430 q0 51 4 155.5t4 155.5q0 37 -7 112.5t-7 112.5t-17 50q-28 4 -70 4h-30zM225 -66q0 -77 126 -77h3h95q25 0 60.5 13t49.5 15q197 35 197 252q0 258 -404 258q-70 0 -127 -33v-428zM227 872q-1 -18 -1 -38q0 -62 5 -154q4 -131 5 -191q25 -12 65 -12q180 0 258 45 q105 62 105 230q0 125 -127 166q-69 24 -218 24h-12q-49 0 -69 -12l-11 -23v-35z" />
<glyph unicode="C" horiz-adv-x="1269" d="M41 395q0 94 35 209q37 123 92 187q206 235 459 235h2q18 0 57 -2t59 -2q88 0 179.5 -43t103.5 -43q14 0 45 31q23 23 43 45l41 -15q0 -27 -5 -79t-5 -80q0 -14 12 -39t12 -39t-14 -33q-23 -23 -24 -29h-43q-14 141 -109 195q-74 41 -225 41q-139 0 -189 -8 q-90 -14 -172 -76q-211 -162 -211 -467q0 -285 156 -412q142 -118 427 -118h5q117 0 227 81q94 72 160 185h45v-43q0 -23 -41 -66q-53 -59 -106 -119q-63 -70 -123 -92q-113 -45 -152 -45h-198q-41 0 -164 45t-162 72q-104 72 -164 235q-53 143 -53 289z" />
<glyph unicode="D" horiz-adv-x="1073" d="M27 932q6 31 32 80q309 14 310 14q182 0 290 -45q123 -49 236 -178q51 -59 105.5 -198.5t54.5 -217.5q0 -143 -51 -285q-61 -162 -164 -233q-39 -25 -156 -70q-123 -45 -164 -45l-471 -2q-10 61 -10 51q0 8 41 32t45 63q8 66 8 434q0 53 3 157.5t3 155.5q0 258 -28 281 q-28 6 -65 6h-19zM238 -68q-2 -59 43 -75q20 -8 92 -9q260 0 400 134.5t140 392.5q0 137 -66.5 269t-176.5 218q-117 90 -348 90q-25 0 -72 -14l-10 -23v-38q4 -129 8 -388z" />
<glyph unicode="E" horiz-adv-x="1261" d="M47 965v59h877q31 18 90 66q31 -20 95.5 -121t78.5 -142q-18 -23 -60 -61v-6l-204 164q-33 0 -107 -3t-110 -3q-10 0 -76 3t-113 3q-215 0 -242 -50v-366q51 -35 117 -35q14 0 45 3t47 3q57 0 78 41q4 10 17 78q8 41 36 41q14 0 127 -137t123 -166q-27 -31 -51 -31 q-199 117 -326 117q-33 0 -96 -12.5t-94 -12.5l-23 -22q10 -166 21 -500q37 -22 86 -22h4q102 0 305 5t303 5q55 0 105 63q76 98 80 101l41 -25q0 -4 10 -6q35 -1 35 -19q0 -16 -21 -43q-27 -37 -28 -43q-18 -37 -19 -167q-16 -2 -68 -17q-29 25 -57 49q-20 16 -84 17 q-129 0 -389 -9.5t-389 -9.5q-14 0 -37.5 -8t-36.5 -8q-16 0 -37 22q-25 31 -32 35q23 31 45 62q43 59 43 112q0 84 -2 254t-2 256q0 33 2 142q1 43 1 78t-1 61q0 78 -11 141q-8 10 -44 28.5t-52 35.5z" />
<glyph unicode="F" horiz-adv-x="1208" d="M25 948v21q0 55 10 55h962l111 37q0 -20 47 -85t47 -81t-21.5 -29.5t-21.5 -25.5l-4 -2q-16 0 -50 37.5t-50 37.5q-51 0 -159 5.5t-161 5.5h-368q-27 -8 -74 -31q2 -117 14 -350q29 -35 131 -35q104 0 105 65q0 8 -5.5 28t-5.5 26q0 4 43 45q37 -43 89 -125 q59 -100 81 -131q-2 -16 -43 -58q-143 76 -153 76h-234q-20 -41 -20 -194q0 8 10 -131q4 -70 10 -142q6 -55 41 -88t131 -65q10 -33 11 -52q0 -14 -60 -14q-55 0 -165.5 3t-166.5 3l-4 66q0 8 29 20.5t39 34.5q16 37 18 123l-1 -73q-1 0 -1 200q0 94 9.5 282.5t9.5 284.5 q0 6 -4 24.5t-4 26.5l-23 158q-25 16 -76 24.5t-73 22.5z" />
<glyph unicode="G" horiz-adv-x="1298" d="M41 395q0 94 35 209q37 123 92 187q206 235 457 235h2q211 0 303 -47q80 -41 96 -41q12 0 43 31l43 43q14 -6 47 -15q-2 -23 -18.5 -66.5t-16.5 -66.5q0 -14 23.5 -51t23.5 -55q0 -16 -14 -33q-23 -27 -24 -31h-50q-16 137 -106 191q-72 43 -221 43q-139 0 -187 -8 q-90 -16 -170 -76q-209 -162 -209 -461q0 -283 156 -410q140 -112 419 -112h5q117 0 223 82q94 70 160 180l2 86h-254q-10 0 -151 -78q-43 45 -45 66q53 92 169 268q18 -14 48 -53q-6 -18 -7 -35q0 -86 154 -86q24 0 219 49q0 -45 -32.5 -153.5t-57.5 -151.5 q-37 -63 -119 -137t-147 -99q-113 -45 -150 -45h-198q-41 0 -164 45t-162 72q-104 72 -166 235q-51 143 -51 289z" />
<glyph unicode="H" horiz-adv-x="1409" d="M25 -246l36 72q0 18 66 32t72 42q24 100 24 702v49l-2 260q-10 4 -123 78v39q57 -8 87 -8q22 0 30 4l23 -6q0 6 20 6q43 0 128 4t126 4q-20 -57 -20 -76q0 -4 2 -8l-142 -33q-4 -66 -4 -186v-184q18 -23 80 -23h647q29 0 58 35v342q-8 4 -37 4q-19 0 -47 -2h-5 q-49 0 -65 39q-8 16 -8 37q0 29 10 45q66 0 199 2h198q-12 -35 -6 -51q-74 -35 -98 -74q-20 -31 -21 -88q0 -14 2 -47v-57q0 -27 -4 -81.5t-4 -82.5v-654q35 -27 129 -63q0 -25 8 -72h-430q4 25 15 49q43 16 88 33q61 25 61 60q0 8 -4 14q18 236 19 235v289h-787 q-2 -125 -2 -387q0 -117 16 -151q12 -25 52 -41q51 -18 86 -56l4 -45h-477z" />
<glyph unicode="I" horiz-adv-x="473" d="M47 952l14 70q27 -3 65 -3q19 0 40 1q96 4 106 4q106 0 154 -16q-6 -12 -6 -29q0 -11 6 -25q-113 -8 -131 -69q-8 -27 -8 -580q0 -70 7 -210t7 -208q33 -18 96 -59l2 -4q0 -10 15 -70h-365v72q10 6 70 24q43 14 59 41q-6 61 -10 324q0 254 6 674q-27 23 -127 63z" />
<glyph unicode="J" horiz-adv-x="1138" d="M160 301q106 55 260 55q84 0 146.5 -77.5t62.5 -163.5q0 -55 -45 -93t-101 -38q-59 0 -110 26q-66 31 -66 82q0 18 40 69.5t59 51.5q18 0 42.5 -24.5t24.5 -43.5q0 -10 -9 -26.5t-9 -26.5q0 -8 6 -24h37q37 37 37 57q0 31 -46.5 95.5t-76.5 64.5q-4 0 -119 -13 q-45 -6 -97.5 -82.5t-54.5 -126.5q128 -243 336 -243h2q233 0 371 182q125 164 125 404q0 72 -23 243q-25 197 -49 232q-33 47 -168 47h-336l-206 -166v6q-12 8 -60 61q12 37 53 101q49 74 62.5 103.5t58.5 58.5q59 -45 92 -66l734 4v-59q-14 -16 -51.5 -34.5t-42.5 -30 t-5 -27.5q0 -82 14.5 -246t14.5 -246q0 -379 -148 -506q-205 -174 -393 -174t-332 96q-165 108 -165 283q0 143 135 215z" />
<glyph unicode="K" horiz-adv-x="1304" d="M0 -244l18 66q35 14 73 29.5t46 44.5q43 162 43 572v71l-2 188q-10 63 -24 186q-12 20 -58 33q-35 10 -69 19q0 12 -13 55h-2h418l-8 -37q-20 -18 -71.5 -37.5t-69.5 -32.5q-6 -272 -7 -311l2 -106h33q143 147 443 432q-14 33 -66 47v49l422 -2q-6 -6 -61 -80 q-145 -14 -302 -160q-123 -127 -245 -254q143 -186 510 -512q35 -41 108 -112q31 -27 92 -54q74 -33 95 -45v-47q-41 -8 -314 -8q-27 0 -77 2t-72 2q12 55 76 74q57 18 57 33q0 29 -258 289q-154 154 -305 307q-150 -39 -150 -271q0 -197 21 -247q37 -98 194 -142l8 -43 q-8 -2 -28 -2q-76 0 -228.5 2t-228.5 2z" />
<glyph unicode="L" horiz-adv-x="997" d="M43 -178q39 33 139 78q2 12 11 51q8 33 8 51v641q0 127 -27 254q-2 12 -94 33q-4 35 -19 96q358 0 394 2v-74q-139 -31 -140 -139v-311q-2 -72 -10 -287q-8 -180 -8 -287q0 -43 10 -43q160 10 234 11q39 0 116.5 -4.5t114.5 -4.5t82 68q61 92 70 98h59q-51 -160 -51 -297 q-16 -8 -39 -8q-18 0 -33 4l-35 35q-10 8 -49 8q-123 0 -367.5 -16.5t-365.5 -16.5v58z" />
<glyph unicode="M" horiz-adv-x="1746" d="M72 -289q4 39 18 117q106 59 127 90q59 94 119 254q47 133 92 266q94 272 96 416q0 14 4 41l-18 10h-2h-4q-16 0 -60 13l-28 110h157q36 -1 75.5 -1t82.5 1q10 -8 21 -33q33 -80 178 -262q141 176 207 287q240 4 272 4q-16 -55 -16 -87v-7q-47 -18 -88 -18q-11 0 -21 1 q8 -53 37 -139q33 -98 43 -137q18 -78 51 -172q41 -115 53 -158q72 -246 119 -391q23 -68 101 -88q6 -25 16 -74h-367v53q57 14 78 43q33 39 51 52q-70 246 -139 491q-117 395 -151 432q-29 -25 -86 -73q-2 -14 -27 -45q-27 -37 -33 -50q-27 -16 -53 -59q-37 -57 -45 -68 q-39 70 -123 168q-106 127 -131 162q-10 -10 -25 -29q-33 -184 -104 -380q-68 -182 -135 -363q-39 -115 -76 -176q0 -29 26.5 -65.5t55.5 -39.5q0 -4 7 -22t7 -31q-43 6 -78 6q-12 0 -34.5 -6t-34.5 -6t-37 3t-37 3q-137 0 -131 0q-2 -18 -10 -43z" />
<glyph unicode="N" horiz-adv-x="1349" d="M59 1032q19 -3 80 -3q30 0 70 1h21q81 0 126 -14q23 -66 56 -148q68 -68 221 -268.5t198 -277.5q39 -66 125 -177q90 -121 125 -176q31 100 31 338q0 92 5 279.5t5 275.5l-78 58q-37 23 -92 41q-16 57 -6 59l-6 -2q129 4 160 4q27 0 217 -16v-11q0 -22 12 -63 q-133 -29 -133 -195q0 -27 4 -84t4 -82q0 -90 -3 -266t-3 -266q0 -14 -5 -45t-5 -45q0 -45 80 -96l8 -99h-156q-18 0 -33 4q-154 201 -307 402q-176 231 -293 411q-96 150 -213 263q-2 -14 -2 -43q0 -373 25 -900q55 -25 164 -75l18 -62h-393l-2 47q33 23 94 76q6 207 6 823 v148q-12 30 -28 60q-15 29 -57 28h-5q-4 33 -35 96z" />
<glyph unicode="O" horiz-adv-x="1222" d="M25 391q0 94 34 207q35 123 91 186q205 242 462 242q35 0 101.5 -17.5t97.5 -17.5q8 0 8 4q-6 8 -16 13q193 -117 245 -183.5t99 -187.5q51 -127 51 -209q0 -197 -14 -262q-18 -74 -72 -164q-55 -98 -111 -137q-35 -25 -124 -66q-98 -45 -129 -45h-156q-47 0 -181.5 44 t-172.5 73q-102 70 -162 235q-51 141 -51 285zM164 379q0 -242 132 -387.5t374 -145.5h16q379 81 379 570q0 336 -231 467q-63 35 -78 39q-20 6 -97 6q-233 0 -368 -160q-127 -152 -127 -389z" />
<glyph unicode="P" horiz-adv-x="890" d="M37 -246q-2 53 39 78q12 6 80 25q47 12 51 39q18 92 18 399q0 98 -2 297v297l-12 10q-8 -2 -16 -2q-12 0 -38 3t-38 3q2 12 2 19q0 6 -11.5 27.5t-11.5 41.5v15q23 -2 37 -2q35 0 104.5 9t104.5 9h115q195 0 289 -76q33 -27 72.5 -129t39.5 -149q0 -33 -41 -160 q-43 -137 -198 -193q-92 -31 -287 -45q4 -39 -2 -49q2 -86 2 -163.5t-2 -147.5q53 -25 155 -78v-80q-72 6 -173 6h-52l-226 -4h1zM317 455q0 -45 5 -82q6 0 30 -6q18 -4 31 -5q82 0 238 64q108 99 108 242q0 20 -27 90q-23 63 -36 90q-39 76 -273 76q-31 0 -61 -33v-55 q0 -68 -6 -191q-8 -131 -9 -190z" />
<glyph unicode="Q" horiz-adv-x="1222" d="M20 395q0 94 33 209q37 123 92 187q208 243 455 243h2q61 0 162 -18q14 -4 45 -8q6 0 2 2q61 -41 123 -84q74 -51 113 -95q47 -55 100 -191t53 -208q0 -219 -47 -350q-63 -176 -225 -258q66 -156 135 -156q56 0 56 84q0 20 -3 45q35 -29 35 -106q0 -119 -104 -119 q-59 0 -125 78q-51 63 -78 135q-78 -31 -96 -31h-158q-45 0 -181.5 45t-175.5 72q-102 72 -161 235q-51 143 -52 289zM160 383q0 -244 131 -387q137 -150 381 -150q49 0 139 45q-66 190 -106 191q-37 0 -58 -66q-14 -47 -16 -96q-39 31 -39 111q0 59 33.5 102t93.5 43 q68 0 115 -86q14 -27 55 -147q176 141 176 477q0 340 -234 469q-66 37 -75 41q-20 4 -99 4q-233 0 -368 -160q-129 -152 -129 -391z" />
<glyph unicode="R" horiz-adv-x="1222" d="M23 -244l20 60q55 23 68 28q35 23 36 58l19 1001l-16 17q-12 -6 -21 -7q-12 0 -37.5 4.5t-38.5 4.5l2 12q0 6 -13 26.5t-13 36.5v13l34 -2h18q38 0 97 6q82 12 115 12q193 0 350 -65q209 -88 209 -254q0 -74 -18 -123q-25 -70 -131.5 -150t-184.5 -96q117 -135 414 -369 q31 -31 98 -90q29 -20 82 -41q68 -27 86 -37v-43q-41 -8 -285 -8q-23 0 -69.5 2t-69.5 2q12 37 25.5 47.5t54.5 21.5t41 21q0 18 -233 228q-133 121 -267 239q-92 -18 -104 -30q-27 -20 -27 -103q0 -35 3 -105.5t3 -105.5q0 -127 189 -172l8 -41q-10 -2 -29 -2q-70 0 -208 2 t-207 2zM258 475q0 -45 4 -84q12 0 37 -6t37 -6q68 0 256 70q129 170 129 258q0 18 -21 55q-8 16 -34.5 60t-143.5 83q-104 35 -172 35q-39 0 -78 -35l2 -57q0 -63 -8 -188t-8 -185z" />
<glyph unicode="S" horiz-adv-x="905" d="M33 25q0 102 55 190q63 100 160 100q47 0 72.5 -23.5t52.5 -45.5v-47q-25 -29 -51 -29q-12 0 -31 6t-29 6q-110 0 -110 -125q0 -80 26.5 -118.5t105 -81.5t130.5 -43q104 0 183 73.5t79 175.5q0 57 -58 168q-92 174 -108 211q-57 135 -57 260q0 78 30 175q51 51 103 102 q47 45 155 45q94 0 131 -43v-45q-27 -31 -57 -31q-14 0 -23.5 7.5t-23.5 7.5q-94 0 -143 -80q-43 -68 -43 -168q0 -121 113.5 -302.5t113.5 -265.5q0 -121 -78 -239q-86 -129 -199 -129q-27 0 -80 -9.5t-81 -9.5q-109 0 -223.5 100.5t-114.5 207.5z" />
<glyph unicode="T" horiz-adv-x="1474" d="M18 788q-2 27 66 127q55 84 90 125q72 -16 162 -22q32 -1 73 -1t91 1q133 4 162 4q57 0 167.5 -5t165.5 -5q109 0 289 22q57 -81 176 -241h-100q-23 25 -90 75q-76 57 -94 58q6 0 -117 -11q-88 0 -264 -6l-9 -8q-2 -182 -2 -833q0 -113 25 -160q35 -74 141 -74 q-1 -16 -1 -36t1 -44h-389q12 47 10 56l9 22q66 31 79 201q4 41 5 235q0 72 5 218.5t5 218.5v206q-12 8 -72 9h-242q-82 0 -137 -35q-57 -43 -112 -88z" />
<glyph unicode="U" horiz-adv-x="1376" d="M8 1018l420 2v-47q-78 -25 -94 -60q-66 -72 -66 -350q0 -299 27 -385q49 -164 254 -280q59 -35 82 -41q35 -12 92 -13q35 0 129 41q152 68 211 199q45 102 49 287q0 31 4 125q2 78 2 125q0 223 -71 274q-25 53 -99 78v47l420 -2q-2 -18 -27 -68q-108 -2 -108 -165 q0 -32 3 -82t3 -68q0 -255 1 -255l1 13q-2 -158 -22 -237q-18 -72 -74 -160q-59 -96 -117 -133q-37 -25 -131 -64q-102 -45 -133 -45h-129q-31 0 -135 47q-92 41 -129 66q-59 39 -123 139q-57 92 -76 168q-23 84 -29 197q-3 53 -3 126q0 36 1 78q2 188 2 199q0 96 -10 123 q-20 53 -98 53q-6 20 -27 68z" />
<glyph unicode="V" horiz-adv-x="1263" d="M37 1040v2l2 -2h-2zM37 1042l2 -2zM39 1040h33h102l72 2q49 -2 149 -2q-6 -14 -16 -49q-31 -10 -94 -78q39 -68 90 -208q68 -184 137 -371q70 -197 102 -385q16 -18 50 -58q61 63 180 467q74 264 149 529q-18 10 -51 51q-25 31 -82 45l2 49h365q-2 0 -17 -69 q-78 -20 -102 -91q-37 -109 -164 -520q-141 -449 -141 -477q0 -18 -52.5 -66.5t-52.5 -54.5q-16 6 -41 2q-53 29 -82.5 50.5t-23.5 25.5q-25 37 -62 113q-20 63 -46.5 200.5t-49.5 204.5q-158 459 -225 557q-25 33 -117 64z" />
<glyph unicode="W" horiz-adv-x="1746" d="M74 1083q2 -8 10 -43h205h150h-1q0 -12 7.5 -32.5t7.5 -30.5q-37 -6 -62.5 -37t-48.5 -61q31 -51 139.5 -329t120.5 -335q8 -76 19 -154q16 -88 63 -139q55 88 117 350q61 274 108 359q20 -6 37 -6l19 -13q16 -70 90 -274q63 -182 75 -270q25 -20 33 -59.5t25 -49.5 q37 37 153 436l140 496q-16 12 -49 53q-23 27 -82 41l2 55h368q0 -4 -16 -73q-78 -20 -100 -88q-41 -123 -121 -398q-18 -47 -56 -145q-16 -47 -49 -186q-33 -92 -82 -279h19q6 1 12 1q34 0 80 -19v-7q0 -32 16 -88q-41 0 -274 4q-45 76 -105 318q-57 233 -106 307 q-2 -8 -90 -338q-72 -264 -109 -295h-245h-74l31 111q47 14 62 14h3l19 10q-2 18 -7 58q-27 137 -96 401q-27 78 -213 529q-20 49 -129 90l-12 69l4 -2q-4 16 -8 49z" />
<glyph unicode="X" horiz-adv-x="1449" d="M39 -180q63 27 176 96q23 33 68 96q4 6 350 482q-115 131 -227 262q-145 160 -281 172q-23 31 -64 94h414v-59q-47 -14 -59 -41q55 -53 151.5 -173t153.5 -176q55 55 155.5 175t157.5 174q-14 27 -59 41v59h411q-8 -18 -63 -94q-133 -12 -281 -172q-113 -131 -227 -262 q115 -162 352 -482q18 -35 68 -96q27 -25 84 -51q74 -35 92 -45v-58q-45 -8 -301 -8q-27 0 -76 2t-73 2q14 51 32 66q8 6 70 26q25 10 24 21q0 35 -163 268q-135 195 -201 275q-61 -76 -199 -275q-164 -233 -164 -268q0 -10 27 -21q61 -20 68 -26q20 -14 34 -66 q-25 0 -74.5 -2t-74.5 -2q-256 0 -301 8v58z" />
<glyph unicode="Y" horiz-adv-x="1449" d="M43 1022h434v-59q-47 -14 -61 -41q111 -127 346 -369q72 66 172 182q133 152 166 187q-14 27 -62 41v59h435q-8 -29 -35 -82q-129 -4 -250 -88q-92 -63 -199 -193q-84 -106 -166 -213q-8 -281 -8 -491q0 -51 51.5 -89t104.5 -38q-1 -16 -1 -34t1 -38q-102 -10 -226 -10 q-102 0 -165 10l8 47l8 21q102 47 102 168q0 80 -4 227q-4 158 -4 227l-262 316q-168 174 -350 178q-8 27 -35 82z" />
<glyph unicode="Z" horiz-adv-x="1261" d="M47 -203q0 12 21 27q41 25 102 82q72 100 203 252q106 121 213.5 245.5t214.5 249.5q170 205 190 246q-10 16 -61 16q-78 0 -232.5 -2t-232.5 -2l-215 -170v15v4q-29 25 -60 59q12 39 56.5 105.5t58.5 99.5t66 68q61 -47 94 -68l807 6v-67q-16 -18 -53 -37t-48 -31 q-51 -23 -876 -1010q51 -18 78 -18q100 0 302 14.5t302 14.5q51 0 102 65q74 96 80 100l49 -30h-2h2l15 -2q29 0 28 -25q0 -18 -18 -47q-29 -37 -31 -43q-16 -35 -16 -170q-20 -2 -76 -16q-29 25 -55 49q-20 16 -84 16q-129 0 -387 -19.5t-387 -19.5q-12 0 -36 -8t-36 -8 q-20 0 -41 24q-29 31 -37 35z" />
<glyph unicode="`" horiz-adv-x="432" d="M31 1313q0 23 21.5 61.5t43.5 38.5q29 0 74 -24.5t45 -51.5q0 -76 -45 -114l86 -136l-47 -22l-131 182h2q-49 45 -49 66z" />
<glyph unicode="a" horiz-adv-x="620" d="M20 182q0 90 75 154.5t167 64.5q86 0 123 -12v4q-8 10 -8 17q0 10 5 29.5t5 29.5q0 53 -49 82q-39 22 -93 22h-5q-39 0 -62 -38q-37 -63 -43 -68h-43q-16 16 -16 49q0 127 229 127q131 0 164 -127q14 -47 14 -229q0 -98 31 -146q6 -10 102 -106q-16 -35 -57 -35 q-16 0 -57 29.5t-53 29.5q-35 0 -112 -35.5t-112 -35.5q-76 0 -140.5 59t-64.5 135zM133 201q0 -55 45 -89t103 -34q59 0 105 35t46 92q0 55 -31.5 93t-85.5 38q-90 0 -129 -23q-53 -29 -53 -112z" />
<glyph unicode="b" horiz-adv-x="671" d="M23 1223v47l247 2v-78q-86 -16 -86 -115q0 -55 -8 -168.5t-8 -169.5q0 -55 2 -96q51 6 100 6q170 0 283 -86q121 -96 121 -262q0 -317 -344 -317q-39 0 -116 17t-116 17l-6 668v45q0 166 -12 457q-33 12 -57 33zM174 94q47 -26 98 -26h4q137 0 220 57q96 66 96 199 q0 102 -93 184t-198 82q-66 0 -127 -39v-457z" />
<glyph unicode="c" horiz-adv-x="747" d="M31 279q0 211 170 335q37 27 227 27q180 0 180 -176q0 -23 -43 -23q-51 0 -65 16q-13 14 -13 57v13q-53 53 -182 54q-43 0 -113.5 -75t-70.5 -116v-117l41 -116q43 -25 87 -47.5t105 -22.5q98 0 162 25.5t127 97.5q16 18 45 147h55v-71q0 -51 -73 -137q-66 -80 -121 -109 q-74 -41 -281 -41q-98 0 -170 92q-68 86 -67 187z" />
<glyph unicode="d" horiz-adv-x="712" d="M33 313q0 156 151 281q74 59 234 59q49 0 110 -4q4 43 4 105q0 61 -7 182t-7 182q0 33 -29 56q-6 2 -59 28l-2 53h55l205 -2q6 -18 6 -36v-9v-22q-80 -33 -80 -60q0 -72 -4 -215t-4 -215v-596l47 -47v-71q-131 55 -147 55q-12 0 -51 -18.5t-78 -18.5q-344 0 -344 313z M115 332q0 -125 88 -193q80 -59 207 -59h5q64 0 111 26v449q-59 39 -125 39q-104 0 -194 -78q-92 -84 -92 -184z" />
<glyph unicode="e" horiz-adv-x="653" d="M16 334q0 131 91.5 223t224.5 92q68 0 160 -31q115 -37 118 -88l2 -45q-154 -59 -460 -184q0 41 14 49q39 16 113 47q111 49 219 111q-14 35 -66 55q-43 16 -88 17q-92 0 -165 -68t-73 -160q0 -121 74 -197.5t195 -76.5q80 0 146.5 48t92.5 124q17 -18 23 -49 q-117 -209 -279 -209q-342 0 -342 342z" />
<glyph unicode="f" horiz-adv-x="466" d="M29 37q0 16 2 24q45 14 100 45q2 49 2 109q0 61 -3 183t-3 177q-55 24 -86 24q-7 0 -12 -1q6 15 6 38q0 18 -4 42q76 0 100 16q4 12 4 170q0 410 217 410q47 0 84 -41v-43q-25 -31 -49 -31q-10 0 -26.5 6t-26.5 6q-121 0 -121 -360v-12v-101l90 -20q4 -61 4 -49v-21 q-86 -8 -86 -35q0 -49 -5 -148t-5 -149q0 -88 22 -170q33 -16 95 -57q0 -29 4 -49q4 0 -152 4q-30 1 -57 1q-53 0 -92 -5z" />
<glyph unicode="g" horiz-adv-x="649" d="M27 -217q0 45 54 122t97 87q20 6 58 6q70 0 96 -6q45 -12 82 -53v-93q-32 -32 -70 -32h-2q-12 0 -29.5 7t-27.5 9q6 27 12 84q-18 16 -43 16q-63 0 -105.5 -50t-42.5 -116q0 -76 49.5 -135t123.5 -59q16 0 46.5 -8t49.5 -8q33 0 67 20q20 2 64 16q31 16 61 91 q27 68 27 106q0 16 -2 35q-23 133 -66 182q-33 35 -92 35h-97h1q-57 6 -98 55q-14 16 -24.5 57.5t-22.5 57.5q-23 27 -68 51.5t-59 46.5q-25 37 -25 117q0 82 57 135q51 45 105 90q6 104 14 137q23 78 94 78q25 0 44.5 -25.5t19.5 -52.5q0 -65 -49 -65h-2q-25 0 -35 12 q-16 -12 -17 -37q0 -45 80 -49q113 -8 150 -26q80 -41 80 -170q0 -109 -80 -162q-35 -23 -150 -56q-80 -25 -80 -61q0 -51 160 -80q178 -33 217 -92q51 -78 51 -260q0 -31 -14 -82q-4 -10 -22.5 -31.5t-14.5 -36.5q-20 -27 -40.5 -49t-63.5 -33q-122 -34 -189 -34h-4 q-129 0 -227 91t-98 218zM145 436q0 -68 44 -104.5t114 -36.5q66 0 126 37t60 98q0 72 -41.5 123t-111.5 51q-84 0 -137.5 -43t-53.5 -125z" />
<glyph unicode="h" horiz-adv-x="921" d="M41 0q8 55 8 59q61 29 66 60q16 102 16 473q0 80 2 237v236q0 39 -13.5 50t-53.5 7q-4 10 -15 33q57 41 180 113q10 -4 43 -58q-63 -57 -63 -120v-494q88 55 170 55q334 0 334 -332q0 -33 -5 -96t-5 -92q16 -31 67 -49q41 -14 43 -47q12 -14 14 -25q-6 -10 -90 -10 q-80 0 -100 6q-4 -4 -18 -8l-13 6q0 41 5 125t5 125q0 162 -45 227q-53 80 -206 80q-109 0 -156 -20q0 -33 -2 -123q-2 -76 -2 -121q0 -186 24 -219q14 -12 43 -39l-2 -39h-231z" />
<glyph unicode="i" horiz-adv-x="243" d="M20 575q6 27 29 48.5t47 21.5q61 0 62 -123q0 -23 -2 -58.5t-2 -43.5v-76v-119q2 -80 2 -119q0 -18 24.5 -40.5t44.5 -30.5q-8 -16 -30 -45q-27 0 -80.5 6t-77.5 6q35 66 43 113q2 20 2 123q0 43 -2 133t-2 135q0 29 -58 69zM20 791q0 25 29 48t53 23q29 0 58 -26v-68 q-49 -49 -70 -49q-23 0 -46.5 23.5t-23.5 48.5z" />
<glyph unicode="j" horiz-adv-x="233" d="M-311 -205q0 25 25.5 51.5t52.5 26.5q18 0 31.5 -19.5t13.5 -37.5q0 -10 -9.5 -25.5t-9.5 -23.5q0 -43 25 -66q49 -18 86 -18q45 0 98 45q45 39 57 110q6 63 15 127q24 113 24 259v12q0 45 -3 134t-3 134q0 29 -57 71q6 25 29.5 47.5t48.5 22.5q14 0 37.5 -19.5 t23.5 -33.5v-455q0 -168 -14 -250q-27 -154 -111 -217t-155 -63q-72 0 -138.5 58.5t-66.5 129.5zM35 791q0 23 29.5 47t54.5 24q29 0 59 -26v-68q-53 -49 -72 -49q-25 0 -48 23.5t-23 48.5z" />
<glyph unicode="k" horiz-adv-x="747" d="M35 1108q72 59 223 170v-76q-49 -76 -49 -176l8 -537l29 11q47 39 96 78q72 59 72 86q0 16 -21 22l-4 39l90 2l121 -2q-4 -8 -132 -106.5t-128 -145.5q0 -14 47 -72q25 -27 68 -88q31 -61 59 -123q39 -74 88 -100q45 -14 127 -53q-8 -6 -8 -17q0 -10 12 -20h-305v49 q14 10 26.5 20.5t12.5 26.5q0 27 -98 162q-80 113 -123 162q-39 -29 -39 -103q0 -37 5 -109.5t5 -105t66 -102.5q-86 3 -135.5 3t-63.5 -3q-6 8 -6 20q0 18 12 39q43 27 53 117q2 23 2 139q0 354 -8 772l-86 -12q-2 18 -16 33z" />
<glyph unicode="l" horiz-adv-x="327" d="M16 1161q23 25 72 58q59 37 78 51h41q31 -70 31 -400q0 -100 8 -304t8 -306q0 -74 -4 -139q29 -25 84 -78v-43h-299v47q68 16 127 64q6 242 6 372q0 74 -9 222.5t-9 222.5q0 215 -41 215l-64 -13z" />
<glyph unicode="m" horiz-adv-x="1241" d="M33 590q6 4 41 39q24 26 40 26h1q39 0 80 -26q35 -25 69 -49q68 49 115 61q37 10 131 10q59 0 162 -65q2 0 75.5 26.5t104.5 26.5q168 0 240 -98q57 -80 65 -256v-15q0 -16 -6 -71q-5 -34 -5 -57q0 -8 1 -15l2 -25q20 -18 59 -57q0 -20 31 -45h-184q2 31 10 117 q6 74 6 116q0 326 -203 326q-135 0 -157 -37q14 -57 18 -129q1 -16 1 -36q0 -40 -3 -93q-4 -98 -4 -129q0 -23 5 -69t5 -68h-65q-45 2 -68 2q45 72 45 248q0 27 4 81t4 81q0 178 -188 178q-37 0 -101.5 -28t-86 -56.5t-21.5 -335.5q0 -113 37 -164q-27 -8 -45 -8 q-12 0 -92 4q-22 2 -41 2q-29 0 -52 -4q-4 23 -20 41q33 33 80 57q31 16 39 46t8 149q0 227 -27 248q-39 18 -110 51z" />
<glyph unicode="n" horiz-adv-x="778" d="M20 567l5 25q51 29 79 51q68 -72 91 -72h-1q0 3 80 35q86 35 150 35q133 0 192 -88q45 -68 54 -205q4 -111 8 -219q2 -29 30.5 -40t33 -20.5t6.5 -68.5h-170q23 244 22 244q0 252 -139 313q-70 -6 -139 -10q-76 -10 -121 -66l-11 -35q12 -51 13 -116q0 -33 -6.5 -97.5 t-6.5 -95.5q0 -37 17 -51q25 -14 47 -29l16 -57h-219q-14 6 -14 20q0 -12 6 46q4 20 23.5 28t19.5 12q18 63 18 285q0 86 -8 105q-12 31 -76 71z" />
<glyph unicode="o" horiz-adv-x="561" d="M18 379q0 260 285 260q240 0 240 -227q0 -113 -82 -187.5t-197 -74.5q-106 0 -176 62t-70 167zM104 432q0 -119 31 -153.5t150 -34.5q66 0 125 47t59 110t-48 120t-112 57q-205 0 -205 -146z" />
<glyph unicode="p" horiz-adv-x="679" d="M27 -399l2 49q82 51 82 547q0 18 2 64t2 73q0 178 -88 229v12q0 16 26 74q12 -4 70 -35q45 -24 64 -24h1q4 0 63.5 26.5t98.5 26.5t78 -22q49 -27 70 -31q82 -86 108 -137q31 -64 31 -170q0 -102 -117 -193.5t-221 -91.5q-18 0 -55 10t-56 10l-8 -2l6 -14 q-20 -29 -20 -149q0 -96 4 -117q12 -74 61 -90v-35q2 -10 -6 -10h-198zM178 100q0 -37 121 -37q90 0 162 87q65 80 65 172q0 12 -4 37.5t-4 39.5q0 45 -92 138q-28 28 -109 28h-6q-88 0 -127 -43q0 -59 -2 -211q-4 -135 -4 -211z" />
<glyph unicode="q" horiz-adv-x="679" d="M27 291q0 123 41 192q33 57 139 142q94 18 106 18q39 0 98.5 -26.5t63.5 -26.5q18 0 66 24q57 31 67 35q29 -57 29 -80l-2 -6q-16 -10 -49 -39q-29 -35 -35 -157q0 2 0 -170q0 -496 84 -547l2 -49h-201l-6 10l2 35q49 18 62 90q2 20 2 117q0 94 -13 137q-10 6 -4 22l-4 6 q-18 -2 -55 -11t-55 -9q-111 0 -222 90q-117 96 -116 203zM137 315q0 -88 69.5 -170t158.5 -82q118 0 118 37q0 76 -2 211q-2 152 -2 211q-39 43 -127 43q-86 0 -113.5 -27.5t-64.5 -108.5t-37 -114z" />
<glyph unicode="r" horiz-adv-x="479" d="M10 551q0 35 24.5 57.5t57.5 22.5q29 0 55 -29q20 -25 41 -51q39 57 69 73.5t99 16.5q31 0 72 -49t41 -80q0 -90 -102 -90q-94 0 -95 59q0 41 103 56v18q-20 8 -35 8q-125 0 -125 -221q0 -8 11.5 -30.5t11.5 -35.5q0 -115 12 -161q20 -25 72 -56l-5 -59h-264l-2 51 q43 12 74 37q25 20 27 168v-12v207q0 23 -18.5 43t-41.5 20q-8 0 -27.5 -5t-29.5 -5q-25 25 -25 47z" />
<glyph unicode="s" horiz-adv-x="366" d="M6 135q0 10 12 41q35 12 45 12q29 0 39 -34q18 -57 23 -64q23 -35 80 -35q61 0 61 103q0 94 -87 168.5t-87 165.5q0 59 51.5 107t110.5 48q47 0 84 -37v-53q-10 -4 -84 -12q-53 -6 -78 -31q-2 -8 -2 -22q0 -70 44 -103t85 -63q45 -48 45 -148q0 -70 -51 -126t-119 -56 q-72 0 -119 33q-53 37 -53 106z" />
<glyph unicode="t" horiz-adv-x="411" d="M27 612v54q20 -4 39 -4q55 0 73 40q12 25 14.5 92.5t14.5 92.5h47q4 -49 8 -101q1 -20 2 -37q0 -35 -6 -63q31 -37 113 -37q-12 -25 -10 -53q-24 -10 -69 -10q-19 0 -42 2q-18 -166 -18 -457q0 -51 43 -51q18 0 64 14.5t75 14.5q-35 -41 -68 -82q-27 -27 -121 -27 q-12 0 -30 25q-35 45 -37 65q1 -8 2 -8q2 0 2 82q0 12 -5 39.5t-5 42.5q0 8 6 332q-20 16 -92 34z" />
<glyph unicode="u" horiz-adv-x="739" d="M14 629q12 20 33 20q98 0 113.5 -9t15.5 -38q-16 -18 -45 -51q-8 -59 -8 -152q0 -193 18 -235q39 -92 203 -92q143 0 188 82q33 57 33 211q0 29 -7 84t-7 83q0 8 -45 56v51q27 8 83 12t85 15q-14 -72 -15 -299q0 -39 -10 -116t-10 -116q0 -18 22.5 -34.5t43.5 -20.5v-72 q-10 0 -30 -6t-30 -6q-43 0 -96 55q-101 -67 -240 -67h-4q-90 0 -175 49t-85 182q0 27 3 77t3 73q0 203 -37 264z" />
<glyph unicode="v" horiz-adv-x="806" d="M14 637h19q23 0 227 12q-4 -8 -65 -71q16 -33 33.5 -101.5t31.5 -99.5q43 -70 125 -211h33q10 33 100 205q82 154 82 182q0 32 -37 32q-11 0 -24 -3q12 12 12 38q0 11 -2 25l246 4l-35 -80h-2q-66 0 -180 -241q-145 -307 -162 -328q-66 4 -84 37q-6 33 -29 96 q-119 264 -205 408q-31 31 -84 96z" />
<glyph unicode="w" horiz-adv-x="1312" d="M16 643q25 6 144 6q74 0 108 -6q2 -14 -39 -53q45 -78 121 -238q20 -61 39 -125q25 -70 62 -116q8 8 32 73q6 18 72 119q53 86 53 125q0 18 -35.5 66.5t-56.5 62.5q-2 2 -16 6q-25 10 -78 27l2 39q96 12 252 12q229 0 252 2q-29 -33 -113 -76q-59 -31 -96 -118h-14 q2 2 6 4q6 0 6 -21q0 -47 43 -121q41 -59 112 -184q20 4 123 202.5t103 225.5q0 4 -24.5 42t-29.5 52q47 -4 99 -4q71 0 184 8q-74 -55 -92 -69q-55 -47 -82 -84q-18 -29 -41 -88q-27 -66 -39 -90q-55 -106 -170 -320l-16 -6q-8 4 -23 4q-29 0 -104.5 164t-102.5 164 q-18 0 -100 -158q-51 -94 -100 -190l-58 14q-84 186 -260 557q-39 10 -116 35q2 4 2 8q0 8 -4.5 24.5t-4.5 24.5zM608 557q23 -12 56 -39q18 4 36 39q-12 4 -38 4q-33 0 -54 -4z" />
<glyph unicode="x" horiz-adv-x="987" d="M-8 4q25 18 65 37q55 27 68 35q90 51 173 152.5t83 111.5q0 53 -98 145q-106 102 -119 133q88 31 115 31q36 0 36 -35t64 -125q53 -74 94 -112q57 57 109 129q62 89 62 136q0 6 -1 11h8q14 14 31 15q27 0 115 -31q-10 -31 -117 -133q-92 -92 -92 -146q0 -10 82 -110 q61 -76 143 -135q138 -97 154 -111q-6 -2 -131 -2q-31 0 -91.5 -4t-91.5 -4v53q45 39 45 51q0 23 -90 103q-59 51 -116 102q-66 -55 -130 -113q-100 -88 -100 -110q0 -8 10 -6q25 2 19 2q8 0 16 -6v-54q-43 0 -126 -9t-126 -9q-33 0 -63 8z" />
<glyph unicode="y" horiz-adv-x="923" d="M6 -313q0 157 135 157h2q27 0 54.5 -27.5t27.5 -52.5t-22.5 -41t-46.5 -16q-29 0 -60 35q-27 -18 -26 -49q0 -84 92 -84q70 0 131 47q20 16 33.5 45t25.5 55q14 16 41 47q16 27 45 99.5t29 97.5q0 35 -131 256q-119 205 -168 268q-33 43 -64 56q-57 23 -67 28l2 13 q0 20 -12 24q14 8 22 8h219q94 0 98.5 -3t6.5 -5q0 -6 -6.5 -3t-6.5 -5t9 -12q-37 -18 -103 -72l4 10q2 -4 2 -14q0 -18 107 -184q68 -100 133 -201q49 41 104 172q80 184 86 194q-4 6 -51 45q-41 33 -41 39l-6 27h88q59 2 90 2q81 0 136 -6q-12 -8 -15.5 -19.5t-13.5 -17.5 q-88 -55 -107 -86q-90 -152 -200 -399q-10 -43 -35 -125q-184 -446 -379 -447q-162 0 -162 144z" />
<glyph unicode="z" horiz-adv-x="677" d="M-2 45q57 27 233 236q109 135 220 272l-324 10l-31 -57l-51 6l-10 168l55 18l37 -65l389 6l66 35l51 -37q-16 -29 -51 -52.5t-41 -31.5l-357 -444h344l80 67h47l-71 -176l-140 31q-266 0 -391 -31z" />
<glyph unicode="{" horiz-adv-x="0" d="M-1022 -733q0 12 6 39.5t6 42.5q0 31 -3 91t-3 91q0 25 11.5 74t11.5 73v259q0 55 -2 90q-12 18 -13 34q0 16 13 15q-4 111 -4 168q0 141 12 423.5t12 424.5q0 53 -6 160.5t-6 160.5q0 268 14 541q0 10 4 35.5t4 41t18.5 29t39.5 13.5q27 0 80 -6.5t79 -6.5 q20 0 58.5 6.5t58.5 6.5q8 0 340 -13q10 -2 30.5 9.5t31.5 11.5q20 0 67 -8.5t72 -8.5q111 0 332 8.5t331 8.5q20 0 553 -8q10 0 26.5 -10.5t25.5 -10.5q8 0 19 9.5t20 9.5q51 0 155.5 -3.5t155.5 -3.5q43 0 127 8.5t127 8.5q25 0 75 -7.5t76 -7.5q16 0 52 7.5t53 7.5 q20 0 56 -5t48 -5l21 -19q18 16 123 16q20 0 65 -2h64q2 -10 2 -32v-21l-17 -14q-2 -20 0 -57q4 -45 4 -60q0 -23 -4 -69t-4 -68q0 -78 6 -230.5t6 -228.5q0 -82 -7 -245.5t-7 -245.5q0 -127 12 -228q-14 -33 -14 -67q0 -49 41 -117q0 -6 -18.5 -23.5t-18.5 -46.5t7 -82 t7 -79q0 -74 -8 -222.5t-8 -224.5q0 -6 -5 -19.5t-5 -21.5q0 -92 4 -274.5t4 -274.5q0 -59 16.5 -175t16.5 -173q0 -72 -113 -72q-47 0 -143 -4t-144 -4q-27 0 -77 7.5t-74 7.5q-12 0 -37 -6.5t-39 -6.5q-76 0 -224.5 -4t-223.5 -4q-66 0 -197 10.5t-199 10.5q-10 0 -32.5 7 t-34.5 7q-10 0 -30.5 -7t-31.5 -7l-876 -7q-6 0 -12.5 6.5t-12.5 6.5q-8 0 -24.5 -6.5t-26.5 -6.5q-12 0 -33.5 5.5t-34.5 5.5l-180 -2q-45 10 -108 18l-498 -20q-25 -2 -41 30v535zM-952 -403q0 -27 54 -40.5t62 -27.5q-47 -35 -75 -55v-23q18 -10 47 -35l2 -4 q0 -25 -38 -73t-38 -72q0 -27 8 -37h23q49 25 178 139q109 94 192 115q125 33 136 33q107 -1 168 -9q-57 37 -123 37q-59 0 -148.5 -24.5t-85.5 -24.5l-8 2q0 27 119 49q104 23 149 21q-55 18 -112 18q-41 0 -120 -34.5t-120 -34.5l-12 2q23 23 140.5 59.5t170.5 36.5 q12 0 21 -4q-53 23 -87 22q-43 0 -120.5 -27.5t-118.5 -27.5l-4 6q104 74 274 66q-25 18 -59 18q-27 0 -80 -11t-80 -11q29 23 80 35q68 16 84 24q-57 68 -161.5 98.5t-127.5 51.5q70 0 90 -5q-53 57 -104 113q-68 68 -121 86q45 -55 88 -110l-12 -19h-45q-12 0 -33 8 q-27 12 -33 13v-35q0 -150 344 -158l27 -14q-33 -33 -103 -53q-84 -27 -105.5 -42.5l-43 -31t-39.5 -15.5l-4 5q0 84 -41 84q-27 0 -41 -28t-14 -56zM-952 -920q0 -18 5 -45.5t5 -42.5l10 13q12 69 43 202q-63 -16 -63 -127zM-950 -653q39 27 39 47q0 14 -33 18zM-946 -233 q0 -29 16 -43q43 12 56 12q12 0 44.5 -34t45.5 -34q18 0 77 45q-35 6 -104 25q-41 27 -125 74q-10 -16 -10 -45zM-938 1526q0 -16 18 -15h7l14 15v24l-31 9q-8 -16 -8 -33zM-934 307q0 -18 2 -28h25q37 35 37 43q0 12 -15 30l-20 27h-27v-35q-2 -25 -2 -37zM-932 6 q0 -25 23 -24l10 2q-18 25 -33 26v-4zM-932 571q0 -14 25 -32l16 8q-8 16 -31 45q-10 -8 -10 -21zM-932 993q0 -129 37 -213q27 -59 119 -180v49q0 338 65 395l4 -14q0 -18 -14 -51q-14 -39 -18 -53q-14 -88 -15 -203q0 -33 7.5 -94.5t9.5 -87.5l16 -11q18 80 69.5 123 t102.5 86q-41 45 -92 45q-6 0 -18.5 -3t-18.5 -3q-35 0 -35 41q0 -4 19 51q31 96 110 177q88 94 181 94q8 0 26.5 -3t26.5 -3l14 4q-63 23 -106 22q-35 0 -138 -55l-4 10q2 29 92 58q82 27 121 24q-8 25 -47 25q-45 0 -119 -41l-110 -70v8q29 47 104 84q96 47 117 64 q-23 25 -43 24q-86 0 -199.5 -118.5t-132.5 -206.5q-4 -66 -18 -197q-63 61 -80 141q-10 47 -8 162q-25 -29 -25 -80zM-932 1260q0 -102 8 -111q12 6 29 6q23 0 31 -12v-19q-6 -12 -6 -26t6 -33q84 203 84 223q0 14 -15 51q-14 45 -16 56q-39 -55 -53 -56q-10 0 -30.5 6.5 t-33.5 6.5q-4 0 -4 -54v-38zM-932 1698q20 -27 74 -51q78 -37 82 -39q-4 12 -71.5 100t-84.5 104v-114zM-926 168q0 -41 96.5 -108.5t104.5 -100.5q166 -121 260 -207l21 -4q57 -43 270 -229h8q8 0 21 -13q16 -20 16 -22l20 -4q8 -14 29 -43q33 -20 100 -62l-2 -20 q0 -23 13 -51q20 -47 22 -52q2 -35 17 -102q14 -45 69.5 -112.5t93.5 -94.5q20 -6 56 -24q20 -14 45 -45q31 -39 41 -50l8 39q-33 35 -94 111q-4 25 -25 70q-39 43 -80 88q-20 29 -20 125q0 35 55 133t55 137l-8 22q-10 0 -29.5 8.5t-31.5 8.5q-14 0 -78 -27.5t-80 -27.5 q-12 0 -27.5 10t-27.5 20q-37 10 -111 33q-86 68 -250 209q-55 66 -180 176q-37 16 -104 53q-16 20 -54 58q-14 4 -41 20v19q76 59 93 59q6 0 16 -3t14 -3q6 0 14.5 6t14.5 6q10 0 23.5 -12t15.5 -15q0 23 25 35q8 -14 30 -20q10 16 19 26l22 -20q14 35 25 35q6 0 9 -4t9 -4 q14 0 25 14q14 -8 28 -19l-2 11q0 23 25 22q10 0 20.5 -13t18.5 -13q6 16 27 45l6 -2q6 0 18 5t19 5q8 0 9 -7t9 -7q16 0 25 22q12 -29 30 -27q23 131 23 144q0 12 -2 51q-4 31 -2 49h-60q-12 0 -45 -22q-47 -29 -47 -31q-96 -51 -199 -74q-106 -14 -321 -53 q-113 -25 -113 -127zM-926 719q0 -33 41 -107q31 -53 62 -104l-11 -10l-77 6q-6 -25 -7 -25q0 -53 54 -84q4 37 69 76v25q2 59 -41 139q-4 10 -79 129q0 -6 -5.5 -21.5t-5.5 -23.5zM-918 1430q0 -25 15 -48h53l-2 39q0 29 33 29q68 0 67 -135q0 -27 -3 -69t-3 -50 q55 70 41 227l4 7q29 -10 29 -66q0 -51 -17.5 -116.5t-17.5 -71.5q33 18 51 73q17 47 17 90q0 80 -37 131q-41 61 -117 62q-33 0 -73 -36t-40 -66zM-918 1939q0 -16 15 -34q23 -27 24 -29q2 -18 19 -55q25 -39 80 -97q66 -68 86 -96q63 -96 202 -280q25 -25 87.5 -69 t87.5 -75q12 -16 31.5 -71.5t21.5 -77.5l12 -17q27 6 33 6q29 0 43 -100q14 -111 37 -125l8 17v104q0 31 -11.5 92.5t-11.5 91.5q0 59 29 90q53 -4 152 -4q55 0 88 9l-9 24q-25 -12 -51 -12q-45 0 -136 54t-144 54q-10 0 -26.5 -3t-27.5 -3q-55 0 -180 168q-4 6 -153 228 q-18 27 -70.5 80t-71.5 87l13 2q53 -29 149 -149q84 -104 121 -102q37 -18 49 -27q25 -16 41 -41q10 14 29 14q20 0 53 -34q18 20 31 20q14 0 24 -12q14 6 31 6q29 0 178 -68q-10 23 -10 39l2 8h18q68 -45 84 -59q31 -25 74 -76l27 -4q14 -12 14 -31q10 -12 72 -30 q55 -16 55 -25l-2 -4q14 -4 27 -4q41 0 90 33.5t49 72.5q0 20 -8 31q-61 -41 -74 -41q-41 0 -51 55q-6 43 -13 86q-18 59 -18 64q-14 0 -42 7t-44 7q-14 0 -44 -3t-44 -3q-88 0 -182 33q-113 39 -150 98l4 2q6 -10 19 -10q35 0 85 82t50 121q0 18 -27 22q-16 -27 -53 -82 q-29 63 -47 84q-33 39 -84 39q-45 0 -134 -20.5t-132 -20.5q-12 0 -36 6.5t-36 6.5q25 -59 111 -72q72 -2 143 -6q-20 -16 -55 -56q20 -4 61 -14q4 -20 8 -63q-72 18 -143 39q-86 27 -133 59q-166 115 -260 115q-53 0 -54 -52zM-911 -1229q18 -8 51 -8q51 25 102 51 q61 33 92 62q14 25 48 73q47 39 122 131q14 29 29 84q19 64 27 84q-61 -100 -123 -200q-86 -141 -152 -162l-2 35q-20 -25 -69 -68q-35 -14 -71 -29.5t-54 -52.5zM-903 -1112v-35q80 63 137 197q80 190 98 219q72 117 201 166q-119 -31 -182 -103q-35 -41 -107 -180 q-14 -27 -43 -57q-45 -47 -47 -51l-4 4q0 20 27 53l39 47q16 41 53 117q25 33 65 100q-31 -23 -63 -72q-39 -63 -53 -79q-20 -12 -58 -43q-51 -45 -51 -97q0 -8 3 -26.5t3 -28.5q0 -20 -10 -64.5t-8 -66.5zM-897 1567l18 -2q15 0 29 4q-16 8 -47 24v-26zM-836 326h37 q121 0 166 22q14 6 29.5 32t25.5 32q18 14 76 39.5t74 25.5t46 -10t46 -10q10 0 62.5 19.5t64.5 23.5l10 22q-72 78 -188 78q-8 0 -23.5 -6t-25.5 -6q-53 0 -126 -39t-108 -84q-10 -12 -26.5 -62.5t-26.5 -56.5q-31 37 -82 76l-16 -8q-14 -35 -15 -37v-51zM-823 1032 q14 16 12 39v8q-12 -25 -12 -43v-4zM-819 1726l10 -8zM-807 1085q39 54 45 97q-47 -14 -45 -78v-19zM-793 1692l11 -6zM-727 2001q45 -31 137 -92v24q-20 25 -41 49q-29 35 -45 35q-20 0 -51 -16zM-719 -918l10 -18q126 262 312 354q-8 -2 -52.5 -18t-54.5 -16 q-31 0 -122 -131.5t-93 -170.5zM-713 -1235l17 -8l57 6q35 4 35 35q0 25 -31 47q-31 -23 -78 -80zM-688 -1057q29 18 111.5 136t82.5 145v33q-33 -31 -194 -314zM-686 535q0 -16 10 -25q170 117 295 117q78 0 105 -11q16 -8 29.5 -31.5t41.5 -37.5q16 -4 41 -23h27v129 q-16 18 -51 56q-31 -27 -117 -27q-168 0 -168 131q0 133 149 143q0 10 4.5 32t4.5 34q0 37 -32 64.5t-71 27.5q-80 0 -168 -108q-84 -100 -92 -187q164 -12 170 -98q-55 -39 -113 -76q-66 -47 -65 -110zM-678 84q4 -10 16 -27l7 19l-7 16zM-672 1098l8 14zM-653 381 q-6 78 161 158h25l6 -21q-139 -41 -190 -151zM-645 -614l14 14zM-631 53q8 -6 27 -18v6q0 23 -17 51zM-602 1403v18v-18zM-590 922q0 20 19.5 33.5t40.5 13.5q10 0 30.5 -10.5t20.5 -20.5q0 -31 -62 -72q-20 0 -34.5 18.5t-14.5 37.5zM-571 1333q18 14 28 41 q-20 -10 -28 -41zM-565 369q41 22 119 63l-66 -20q-39 -14 -53 -43zM-561 934q0 -20 6 -39l41 8q0 29 -18 45q-10 -4 -29 -14zM-561 1907q4 -18 30.5 -32.5t49.5 -14.5q-16 33 -80 47zM-555 96q16 -59 59 -127q49 -76 93 -100q25 -14 77 -27.5t74 -25.5q27 -23 80 -52 q0 14 4 45.5t4 47.5q0 47 -6 84q-25 -6 -54.5 -30t-74.5 -24q-100 0 -141 66q-31 49 -41 160h-58zM-555 -1085q0 -18 10 -29l17 14q0 27 10 74q-37 -18 -37 -59zM-537 1307q42 7 50 30l-31 9q-14 -14 -19 -39zM-516 -1147q20 2 33 37q10 26 10 51l-2 35q-23 -37 -41 -123z M-500 -1225v-4l138 -2q26 0 53 4q-49 49 -119 86q-23 -20 -43 -39q-29 -29 -29 -45zM-494 -741q40 10 54 45q-20 -12 -54 -45zM-455 -983q0 -35 33 -61q6 16 6 90q0 102 64 192q41 55 123 125q71 60 77 76q-12 23 -32 22q-2 -29 -58 -57q-76 -39 -80 -41q-66 -53 -100 -158 q-33 -92 -33 -188zM-446 76q0 -18 10 -35q0 -45 44 -86t91 -41q51 0 100 52.5t49 105.5q0 20 -12 34q-10 -27 -18 -51q-14 -37 -31 -37l-14 5q35 86 34 110q0 14 -14 29h-31q-4 -6 -18 -72q-12 -53 -55 -53q-20 0 -31 16q18 6 53 27q-2 23 -6 42t-35 19q-37 0 -71 -16 q-45 -18 -45 -49zM-438 823q0 -53 42 -90t95 -37q31 0 73 26.5t42 57.5l-2 4q-47 -61 -113 -61q-41 0 -76 37h8q55 -23 58 -23q18 0 50 16.5t42 32.5v25q-35 4 -67.5 8t-63.5 37l12 2q-2 0 43 -6q-12 23 -22 47q-18 29 -39 29q-39 0 -60.5 -32t-21.5 -73zM-430 434h33h-33z M-403 31q49 -49 88 -49q16 0 61 6q-41 -25 -61 -25q-27 0 -54.5 20.5t-33.5 47.5zM-399 -668q14 6 34 33q-31 -10 -34 -33zM-397 1473q35 -35 71 -72q35 -27 97 -27q42 0 65 10q-23 16 -22 84l-2 13l-29 16q-14 -2 -31 -2q-18 0 -54 4t-54 4q-29 0 -41 -30zM-377 -559 q6 -10 23 -10h4zM-356 -184q41 -44 82 -52q-8 53 -72 54zM-356 -989q0 -26 18 -49q-2 23 -14 61zM-350 -840q0 -4 24 -20q14 31 45 90q18 27 56 59q43 42 57 56q-35 -20 -66.5 -40t-56.5 -57q-16 -23 -33 -45q-27 -35 -26 -43zM-328 -985q5 -10 17 -33q0 25 -15 49z M-301 -1024v-27q15 -12 33 -26q-12 16 -33 53zM-295 -918q0 -37 42 -106.5t75 -69.5q8 0 24.5 4.5t22.5 4.5q-16 27 -31.5 55.5t-15.5 56.5q0 132 211 142q-6 27 -21 79h-28q-51 0 -113 -77q-66 -90 -72 -93q-25 33 -78 82q-16 -61 -16 -78zM-285 969l4 -21zM-260 -252 q31 -39 72 -67l10 18q-8 20 -33 30.5t-49 18.5zM-254 893q0 -25 31 -45h22v24q-18 8 -32 25q14 16 14 53q0 49 -19 60q-16 -78 -16 -99v-18zM-246 -780h15q20 22 108 88l-18 10q-31 -20 -64 -41q-41 -31 -41 -57zM-244 -1100l45 -24zM-225 -844l18 -8v25zM-197 -811 q53 55 70 70q41 37 78 57q-74 -2 -148 -127zM-170 -1155q6 -20 23 -21q16 1 30 11zM-158 1452l17 -16h24q-4 37 -41 47v-31zM-145 -956q55 55 82 55q98 0 98 -107q0 -49 -35 -81.5t-68 -63.5h23q43 0 88 48t45 91q0 63 -40 101.5t-103 38.5q-31 0 -59.5 -26t-30.5 -56z M-143 -983v-25q23 -37 51 -36q27 0 37 30q6 25 12 51q14 -4 23 -12v-76q26 23 26 54q0 70 -51 69q-31 0 -42 -30.5t-19 -59.5q-10 14 -37 35zM-137 1991h39l6 14l-6 12h-31zM-131 -1212l59 -11q43 23 84 47q60 37 62 62q-59 -59 -205 -98zM-121 1389q16 -2 12 -33 q31 -16 93.5 -37t91.5 -21q19 1 33 19q-47 0 -127 39t-76 39zM-111 1425q33 -18 99 -51q0 25 -82 56zM-109 -70v-288h1545q18 0 28 22q8 201 9 402q0 14 10 2l4 6q0 61 -3 187t-3 188q0 27 10 78t10 75l2 447q0 10 5 26.5t5 24.5q-29 61 -55 61h-487q-8 0 -17.5 -10 t-17.5 -10q-18 0 -29 16h-528q14 0 -461 -10q0 -90 -8 -289q-6 -190 -6 -291l2 -356q0 -125 -4 -252q-10 -10 -11 -29zM-109 1765q14 7 39 23l-16 10q-14 -6 -23 -33zM-96 1462q26 -16 55 -22q-6 8 -22 22h-33zM-82 -1112h25q8 0 20 31v2q-31 -16 -45 -33zM-82 1718 q98 -57 164 -57q27 0 35 10v23q-33 47 -49 80l10 12q18 -23 57 -62q-27 53 -26 82q0 6 10 13q25 -39 78 -113q-39 80 -50 180q-18 14 -37.5 28.5t-46.5 14.5q-2 -2 -8 -59q-4 -43 -20 -43q-10 0 -24.5 10t-24.5 10q-8 0 -21 -16l2 -47q2 -27 -10 -36t-39 -5v-25zM-68 -729 h25l20 22v5q-16 -8 -45 -27zM-41 1894q0 -12 8 -20h37q14 29 27 55q16 35 45 35q14 0 39 -14q12 22 43 67q-72 -2 -156 -8q-16 -6 -19 -27.5t-6 -39.5q-18 -53 -18 -48zM-18 1430l32 -19zM20 -1227l3 -2q20 2 251 2q-66 51 -100 51q-14 0 -41 -14q-20 23 -18 49 q-27 -20 -54 -41q-41 -33 -41 -45zM27 1358q18 -4 51 -19l31 11q-6 4 -23 16zM49 1278l47 -4zM88 -610q43 31 43 59q0 12 -20 59q16 0 34.5 -19.5t18.5 -37.5q0 -12 -10 -35q-16 -31 -19 -34q-16 -8 -31 -9zM143 1276l33 -33l8 33l-12 4zM152 -1077l32 6v24q-6 6 -24 9z M158 -1137q8 -12 37 -24l24 8q-12 27 -45 27zM164 1939q0 -41 35 -127q-4 20 -4 41q0 59 32 64q0 -43 17 -115q2 19 22 125q-51 49 -73 49q-29 0 -29 -37zM178 2015q68 -45 78 -45q12 0 25.5 14.5t11.5 26.5q-27 4 -66 4h-49zM219 1286q117 -76 172 -76q166 0 150 0 q0 2 -17 23q-10 12 -10 24t21.5 34t33.5 22q10 0 21.5 -14.5t11.5 -26.5t-15.5 -32.5t-17.5 -29.5h643q-2 -16 -2 39q0 27 43 39q33 7 66 15q-14 8 -29 8q-10 0 -28.5 -6.5t-28.5 -6.5q-70 0 -103 39q-20 25 -36 78q-14 43 -29 47q-14 -10 -18 -18q-2 -4 0 -14q2 -16 2 -25 l-5 -16l-20 20q-78 -47 -78 -74q0 -12 8 -14q4 -2 17.5 1t17.5 3q39 0 39 -51q0 -14 -15.5 -32.5t-29.5 -18.5q-10 0 -30.5 17t-24.5 28l2 18l-4 19q-49 -55 -52 -58q-29 -25 -73 -24q-84 0 -297 207q-4 -16 -13.5 -40t-39.5 -49q-35 -31 -45 -41q-8 -2 -48 -14 q-31 -8 -49 -8q-12 0 -32.5 6t-32.5 6zM238 -625l2 -8q18 23 18 41v6q-20 -18 -20 -39zM240 -748q0 -33 12 -83q14 -59 33 -76q10 6 30 22q-10 6 -26 23q6 14 10 35q-18 33 -18 51v61q10 8 26 21l-12 28q14 12 22 58q8 39 33 53l-18 10q-92 -88 -92 -203zM256 -1133l12 -14 h11q0 14 -7 39q-12 0 -16 -25zM274 1839q0 -12 17 -27q8 10 2 46q18 49 69 94v45q-23 -10 -55.5 -70.5t-32.5 -87.5zM283 -422v-10l16 -12v2l16 10zM291 -915l16 -11zM295 -516q29 14 39 16q6 2 18 0q16 -4 37 -4q6 23 33 45l8 21l29 6l-66 10q-35 -29 -98 -94zM295 1778 q0 -14 8 -39q19 2 27 8q-14 31 -35 31zM301 -993q0 -8 16 -25q15 0 25 27q-14 12 -33 20q-8 -23 -8 -22zM315 1829q0 -20 39 -37q43 100 215 217q-10 0 -30.5 4t-30.5 4q-16 0 -47 -4t-41 -4q-6 -12 -58 -96q-47 -76 -47 -84zM336 1628q0 -31 12 -72q14 -53 35 -53 q39 0 76 68q-68 70 -68 100l2 12q18 -23 64 -55l16 8l-2 31q-2 160 80 289q-215 -125 -215 -328zM362 -1061q45 -59 82 -82q-20 27 -55 82h-27zM385 1458h25q16 18 26 45q-20 -12 -51 -45zM397 -764q0 -156 37 -229q23 -16 37 -40t27 -46v16q-2 25 8 39q35 -57 69 -115 q45 -63 111 -63q68 0 119 55v23l8 18l8 -2l21 6q-23 8 -21 37q2 27 6 51l-24 -10l-8 4q0 27 -7 78l-47 -47q-29 -29 -55 -29q-31 0 -63 62h-33q-6 -31 -25 -88l-12 12q0 10 -2 30.5t-2 32.5q0 45 33.5 60.5t68.5 29.5q-2 6 -2 115q-61 -10 -94 -22q14 -2 41 -17 q-14 -31 -41 -31q-25 0 -62.5 43t-48.5 70q27 39 187 39q43 0 51 -57q2 -8 2 -88q0 -45 6 -66h15q4 72 10 143q12 82 94 82q16 0 48 -7t42 -9l19 -14v-21q-104 -86 -123 -86q-10 0 -26.5 13.5t-27.5 13.5v-86q92 -55 84 -125l19 12l12 -10v-19q-2 -14 8 -26q2 6 8 31 q4 16 21 24q6 -14 4 -35q6 16 43 101q33 76 33 86q0 115 -55 172q-29 31 -105 63q-59 25 -63 55q-4 2 -15.5 9.5t-17.5 7.5q-27 0 -159 -78t-144 -100q-16 -29 -17 -68zM424 -596l14 16zM426 -1184q6 -8 23 -26l24 12q-27 14 -47 14zM461 -481q20 10 37 10l10 -2 q-10 -14 -23 -43q41 25 125 78q-12 0 -31.5 8t-29.5 8q-18 0 -50 -21.5t-38 -37.5zM473 -598h23q14 0 30 45h-24q-8 -16 -29 -45zM487 1546q48 24 48 47q0 16 -9 33q-27 -12 -39 -29v-51zM518 1792l12 10q0 6 3.5 17.5t3.5 15.5l-15 18q2 -20 -4 -61zM528 1501q0 -63 29 -90 q47 -41 47 -43h27q-29 45 -29 68q0 43 100 151q6 -14 29 -35q29 31 29 52q0 18 -7.5 51t-9.5 45l-14 12v-33q0 -31 -8 -49q-12 -25 -39 -24l-4 6q6 18 14 55q-31 14 -51 14t-37 -22q2 -10 -4 -31q-25 23 -25 37q0 43 25 78t66 35q111 0 110 -131q0 -10 4 -30t4 -30 q6 14 15 101q4 51 63 81q25 16 80 31l4 17q-14 14 -45 34q-49 16 -137 17q-76 0 -150 -43q-86 -47 -86 -119q0 -20 16.5 -58t16.5 -59q0 -4 -16.5 -33.5t-16.5 -54.5zM543 -729q14 6 16 20q-16 -6 -16 -20zM543 1270q6 -14 24 0h-24zM551 -508v-2l14 21q-14 -6 -14 -19z M578 1841q37 18 115.5 40t115.5 22q55 0 100 -33q70 -51 82 -58l8 46l-8 36q-96 123 -213 123q-145 0 -200 -176zM602 -1085q0 25 43 41q33 12 64 12q20 0 32.5 -20t12.5 -40q0 -14 -21 -20q6 -16 15 -25q-25 -25 -60 -24q-10 0 -31.5 4t-31.5 4v25q35 0 49 -7l4 9 q0 2 -45 12q-31 6 -31 29zM610 1712q27 -6 82 -16v33q-12 23 -37 22q-27 0 -45 -39zM637 -938l14 23zM637 1661h33l8 -16q-6 -6 -33 -17zM651 1395q37 -1 68 -13q-23 12 -66 39l-2 -12v-14zM657 1464q57 -23 99 -22h51q37 0 119 59q-10 10 -19 23q-14 14 -22 14 q-14 0 -42 -34t-59 -34q-25 0 -53 23q-20 18 -43 39q-12 -23 -31 -68zM666 1352q25 -51 40 -62.5t68 -11.5q74 0 107 35q71 77 71 112q0 14 -16 45q-18 -14 -80 -73q6 0 45 18l10 -10q-16 -27 -55 -49.5t-68 -22.5h-45q-10 0 -24 9.5t-25 9.5h-28zM678 -973l2 -10h25l2 14 q0 12 -8.5 31.5t-10.5 30.5q0 -12 -5 -33t-5 -33zM719 -479q27 -12 78 -41q2 0 28.5 -25.5t34.5 -25.5h23q-59 96 -140 96zM721 -436l53 -10zM739 1413q27 -25 31 -24q19 -1 39 24h-70zM762 1380l8 -20q13 2 31 10h-4q-16 0 -35 10zM762 1511q23 -8 22 -8q15 1 31 17v24 q-6 6 -33 21q-20 -20 -20 -31v-23zM809 -473q31 -31 51 -29h2q3 23 23 35q-16 14 -54 39q-2 -27 -22 -45zM809 -719h20h-20zM823 1569q8 -8 25 -17q6 14 18 41q39 -33 78 -67q39 -43 31 -90q20 18 43 34q16 19 16 52q0 37 -14 47q-20 14 -41 26q29 12 27 47v19 q-39 -41 -70 -41q-25 0 -31 10v27q10 12 23 12l24 -4l-45 25q-43 0 -43 -31q0 -23 21 -35l-11 -2q-8 0 -22 5t-23 7q-6 -12 -6 -65zM850 -1214q24 -1 24 24zM879 1718q16 6 32 6q49 0 88 -20q-6 10 -28 39h-86zM905 -422l2 -22q135 -121 135 -334q0 -23 -6 -69t-6 -68 q20 20 40 39.5t20 50.5q0 199 -70 276l10 2l23 -12q10 6 10 20q0 25 -19 47q-20 12 -38 23q-8 6 -29 37q-6 10 -23 10h-49zM961 1266q18 2 26 8l-18 18zM971 -1051q6 6 14 33q-14 -14 -14 -33zM973 -1126q0 -27 14 -35q59 59 174 180q57 68 84 119q20 39 51 135q8 23 33 51 q33 35 41 47l27 2l-4 27l4 14l33 2q66 45 192 140h10q31 -2 78 38q55 47 74 56q14 29 49 33q43 33 129 96q84 80 264 223q45 20 107 72q12 18 12 57q0 68 -12 84q-29 45 -262 96q-258 57 -306 84q-109 66 -209 101q-14 -76 -14 -113q0 -27 14 -70q18 -53 21 -69q12 14 43 35 q4 -23 18 -64q8 27 23 41q10 -8 25 -47q4 16 8 32.5t20 22.5q4 -8 8 -41q2 -20 25 -33l-8 19q0 27 24 35q8 -29 37 -76q-4 -10 -4 35q0 18 23 26q14 -14 12 -39h24q0 10 6.5 18.5t16.5 8.5q2 -27 23 -70h24q-10 33 -10 52l2 18q27 -10 31 -24q6 -29 6 -31h26l-2 10 q0 14 7 23h18q8 -20 18 -21q6 0 9.5 4t7.5 4q8 0 13 -10t11 -10q4 0 10.5 3t10.5 3q20 0 41 -25q14 -20 28 -41q-98 -61 -286 -190q-23 -18 -44.5 -49t-41.5 -60q-90 -117 -219 -206q-154 -106 -277 -107q-31 0 -72 30.5t-57 30.5q-29 0 -47 -20t-18 -49q0 -25 33.5 -87.5 t33.5 -96.5q0 -68 -41 -138q-68 -113 -72 -125q-2 -23 -12 -69q-4 -10 -31.5 -43t-27.5 -49zM1001 -1227q53 -8 154 -8q12 0 37 6t39 6q16 0 52 -6t52 -6q-94 47 -117.5 74.5t-62.5 128.5q-18 -12 -45 -45q31 -35 70 -107l-13 -12l-86 -4q-49 -4 -80 -27zM1014 2001 q28 -22 102 -57v53q-29 14 -41 14q-37 0 -61 -10zM1024 1751q14 31 14 51v4q-14 -33 -14 -55zM1036 1614q17 -50 54 -60q-6 18 -23 60h-31zM1038 -1155l6 -12q25 0 52 16l-52 10zM1057 1694q0 -14 20 -52h25q14 25 51 62l4 -31q-18 -31 -53 -90q10 -10 29 -31h24 q43 107 43 117q0 16 -12 31v16q4 57 -37 118.5t-94 80.5v-221zM1063 -432h27h-27zM1130 1450q0 -39 31 -67.5t70 -28.5q14 0 43 10t45 10q8 0 20.5 -7t20.5 -7q55 0 143 96q115 127 131 137l11 -32h38q35 53 58 53q6 0 9 -3t7 -3q12 0 38 20.5t38 20.5q4 0 10 -4.5t10 -4.5 q16 0 29 27q51 14 74 23q43 23 51 53q57 10 138 126t116 116q18 0 29 -17q-100 -76 -144 -149q-8 -29 -37 -82q-18 -23 -137 -131.5t-129 -108.5q-12 0 -67 47q6 -12 53 -63q-29 -33 -103 -86q-84 -61 -112 -62q-8 0 -23.5 7.5t-23.5 7.5q-61 0 -92 -25q-18 -14 -33 -44 t-27 -34q-37 -10 -162 -10q94 -33 156 -33q16 0 49 10.5t49 10.5q14 0 42 -12.5t34 -24.5q-23 -35 -31 -109l-16 -26q-2 -18 -2 -47q0 -66 18 -113l-8 -29l19 -22q25 113 34 227l13 6h2q18 -61 22 -133l-10 -16h10q39 -4 39 55q0 18 -4 51t-4 49l2 17l23 20q10 55 10 70 q0 8 -7 20.5t-7 18.5q195 180 387 358q278 262 278 391q0 31 -80 31q-76 0 -123 -35l-98 -82q-102 -74 -199 -108q-80 -16 -233 -74l-53 -37q-41 -29 -52 -29q-27 0 -78 14.5t-79 14.5q-82 0 -139 -76q-43 -72 -87 -143zM1145 1976q22 -55 45 -102v53q0 14 -45 49z M1192 -571q0 25 27 32q6 -33 12 -67q6 -18 57 -37v-23q-12 -16 -20 -16q-27 0 -51.5 41t-24.5 70zM1206 -1018q0 -84 59.5 -134t145.5 -50h41q-51 10 -145 49q-27 18 -53.5 68.5t-26.5 83.5t57 65q51 29 86 29q25 0 50.5 -17.5t25.5 -42.5q0 -18 -12 -18h-17q-18 49 -61 49 q-31 0 -59.5 -25.5t-28.5 -56.5q0 -47 37 -94q72 -35 105.5 -42t113.5 -7q55 0 123 35q75 39 77 88q-16 -8 -79 -60q-47 -37 -93 -37q-12 0 -34.5 10.5t-34.5 10.5q-4 0 -13.5 -3t-13.5 -3q-23 0 -57.5 22.5t-34.5 42.5q0 18 18 31h17q12 -27 31 -35q43 35 43 66 q0 47 -41 75q-35 23 -86 23t-95.5 -36t-44.5 -87zM1225 1995l2 -17h24q9 6 17 33h-39l-4 -12v-4zM1233 1882q18 2 29 -6q0 -14 -2.5 -45t-4.5 -45q10 20 35 53l6 -8q-6 -43 -30 -127q23 8 50 59t27 80v43q-2 92 -38 105q-23 -37 -72 -109zM1235 -436l33 -19zM1255 1669v21 v-21zM1282 -866q74 12 92 12q51 0 92 -36t41 -87q0 -35 -20 -100q178 35 178 166q0 43 -37 71q-92 -76 -100 -75q-8 0 -53 89t-103 89h-41q-18 -43 -49 -129zM1315 -430l8 6zM1317 1696q45 16 64.5 65t33.5 49l10 -2v-18q-25 -51 -36 -86q20 23 67 61l10 -12v-18 q-8 -23 -26 -37q27 0 63 18q6 -14 13 -33q24 -2 47 37q-6 4 -56 4q-14 0 -10 7l-4 4q18 82 18 75q0 23 -12 37q-6 0 -18.5 -4t-18.5 -4q-14 0 -22 12q12 16 12 39q0 29 -16 39q-43 -2 -78 -37q0 -8 4 -21t4 -22q0 -37 -24.5 -92t-24.5 -61zM1364 2009q0 -39 8 -59q23 6 41 6 q86 0 74 -74q25 0 47 -20v32q0 43 -22.5 81t-61.5 36zM1370 -446h25q31 10 37 24q-20 -8 -62 -24zM1380 1315q53 10 80 37h-8q-37 0 -72 -37zM1405 -711q41 -23 96 -88t58 -67l18 16q-16 43 -53 86q-45 53 -82 53h-37zM1425 -653q33 0 99 2h96q37 0 84 -31q37 -25 76 -51 q-2 35 -59.5 78t-92.5 43q-18 0 -53 -10.5t-53 -10.5l-11 4q2 27 50 68l26 4q90 59 189 59q10 0 24 -8q23 -16 25 -16q51 -20 151 -66q76 -49 154 -98q92 -57 172 -57q-43 78 -96 139l12 18q61 0 119 17q-23 29 -93.5 38t-93.5 44q59 10 117 20q70 21 70 76q0 29 -22.5 47 t-49.5 18t-46 -23.5t-19 -51.5q0 -6 5 -19.5t5 -21.5l-2 -7h-17q-68 47 -69 48q-8 0 -13.5 -6.5t-11.5 -6.5q-109 74 -196 74q-35 0 -52 -14q66 -16 131 -35q74 -25 111 -76l-12 -12q-117 90 -260 90q-16 0 -37 -8l8 -19q23 6 22 6q49 0 107 -18q68 -20 88 -53l-10 -10 q-152 27 -215 26q-68 0 -199 -65q-141 -70 -158 -125zM1487 -1198q27 -18 65 -19q64 0 78 41q-76 -23 -143 -22zM1501 -698q37 -39 107 -121l10 31q-53 86 -117 90zM1534 68q0 -55 49 -94.5t107 -39.5q45 0 92 35t47 78q0 31 -43 84q-8 0 -31.5 8t-38.5 8q-16 0 -22 -8v-24 q16 -12 47 -39l-10 -4q-68 102 -127 102q-10 0 -21 -14v-35q0 -23 43 -61.5t66 -38.5q31 0 53 16q6 18 27 51q16 -31 16 -37q0 -23 -39 -44t-63 -21q-66 0 -95 76q-20 61 -39 122q-18 -74 -18 -120zM1536 -51v-113q0 -70 8 -80q12 4 107 33q66 18 102 45q25 18 62.5 66.5 t61.5 66t46.5 34.5t22.5 54q0 8 -3.5 25.5t-5.5 23.5q-18 8 -71 9q-2 -88 -62.5 -146.5t-148.5 -58.5q-35 0 -62.5 13t-56.5 28zM1536 -336l16 -16q72 43 107 76q-29 2 -66 -21q-29 -18 -57 -39zM1538 1772l31 -19zM1548 1968q14 -66 27 -131q23 -70 90 -86q-4 12 -20 51 q-14 33 -15 53l4 5q23 -25 48.5 -53.5t58.5 -26.5q-12 20 -29 61h8q66 -49 88 -49q29 0 41 31q-16 20 -16 43l2 8q6 0 28.5 -10.5t34.5 -10.5q8 0 41 19q-20 0 -34 24q2 2 67 23q41 12 49 43q-10 -2 -57 -12q-37 -6 -59 -6q-33 0 -89.5 26.5t-78.5 26.5q-49 0 -74 -34 t-49 -69q-12 33 -19 45q-12 27 -28 35zM1556 565q150 117 314 117q20 0 137 -37q-4 27 -22 76q-4 6 -64 70q-43 47 -43 77q10 12 27 13q18 0 53 -7.5t53 -7.5q10 0 20.5 25t10.5 37q0 49 -56.5 120.5t-105.5 71.5q-35 0 -86 -24q-59 -27 -59 -58q0 -10 3 -27.5t3 -25.5 q35 -4 65.5 -38t30.5 -66q0 -139 -162 -140q-23 0 -39 31q10 0 30 -4t30 -4q43 0 74.5 31.5t31.5 74.5q0 27 -15 50.5t-40 23.5l-12 -2q-8 -16 -15 -41l6 2q16 0 35 -14q-4 -14 -16 -19q-10 -2 -29 0q-23 4 -26 4q-20 0 -39 -10q10 -27 55 -27.5t55 -19.5q-27 -18 -51 -18 q-37 0 -74 41h-24v-6q-2 -20 12 -46q-18 -4 -53 -22q-14 -84 -15 -160v-41zM1589 -584q53 -6 78 -4q78 -33 88 -33q4 0 11.5 4.5t11.5 4.5q59 0 166 -93q90 -75 137 -141v31q-51 94 -142 168q-102 84 -196 84q-8 0 -27.5 6t-29.5 6q-33 0 -97 -33zM1597 532q29 -8 197 -92 q150 -74 172 -73q27 0 41 14q-55 33 -164 104l78 4q57 -37 141 -129l15 9v-13l14 -16h12q0 2 -30 59q-25 45 -25 58q0 10 12 12h29q-76 172 -242 172q-45 0 -139 -37t-111 -72zM1597 2009q10 -25 27 -24q23 -1 33 24h-60zM1604 -256l47 25zM1608 -1085q26 4 104 104v121 q-12 -14 -12 -59.5t-92 -165.5zM1612 1368q43 21 176 105q-20 33 -62 65q-100 -37 -100 -80q0 -4 2 -14v-17q0 -31 -16 -59zM1632 -752v-24q12 -15 39 -17q-12 35 -39 41zM1659 -717q57 -51 76 -141q10 -49 10 -164q2 20 16 72q15 42 15 73q0 35 -32 97.5t-63 62.5h-22z M1659 -1174q68 31 126 114t58 155q0 -16 -10 51q-31 -123 -59 -174q-18 -33 -115 -146zM1661 -223l16 -4zM1665 -1210v-19q33 -14 45 -14q-4 -1 105 22q-14 68 -52 80q-33 -23 -98 -69zM1675 1284l6 -55zM1686 -219l8 8zM1726 1108h25q78 39 117 39q80 0 133 -74 q47 -68 47 -151q0 -53 -18 -97h-25q-14 0 -40 6.5t-40 6.5q4 -8 88 -133q53 -82 58 -144l24 -16q14 82 27 162q16 93 16 159q0 109 -72 264q-2 0 -100 33q-80 27 -92 27q-102 0 -148 -57v-25zM1749 1190h23q63 27 96 27q41 0 96 -21q45 -19 90 -37q-12 12 -39 41 q-47 63 -157 64q-109 0 -109 -74zM1802 -1104q0 -12 25 -31q4 34 14 97q-4 -8 -21.5 -31t-17.5 -35zM1804 1286q10 6 25 6q172 0 250 -123q53 -86 82 -282q18 17 18 35q0 94 -35 198q-37 115 -96 174q-10 10 -78.5 29.5t-91.5 24.5q-61 -31 -74 -62zM1817 1546l32 -10 q-8 16 -32 35v-25zM1823 -690v-23q0 -72 75 -237q80 -180 136 -189q-96 197 -101 242l6 10h3q55 -117 77 -157q51 -88 107 -142l33 -4q-66 125 -207 367h10q10 0 49 -49q25 -31 49 -64q-4 66 -89 157t-148 89zM1843 997q0 41 51 41q31 0 45 -14v-68q-18 -14 -38 -14 t-39 17.5t-19 37.5zM1843 2009q45 -33 70 -33q18 0 51 11q41 10 49 12l-8 18q-78 -8 -162 -8zM1868 1587l10 -22zM1872 -1165v-37q14 6 22 14q25 59 25 94q0 23 -39 76q-8 -20 -8 -147zM1878 971l31 -8q6 8 16 24q-12 23 -37 23h-2zM1901 1380l24 -10zM1919 -317h51 q10 0 39 14t37 16q61 12 123 25q70 14 112 49q56 45 56 76v37q-121 -41 -123 -41q-27 0 -35 16q0 2 59 45q39 29 46 55q-94 -39 -256 -202h24q47 0 119 32.5t74 32.5q10 0 10 -10q0 -37 -144 -72q-162 -41 -192 -73zM1919 -1221q45 -16 96 -16q39 0 82 10q-49 25 -141 78 q-18 -45 -37 -72zM1933 557q47 -10 82 -41q-45 8 -49 10q-27 8 -33 31zM1966 102q8 -8 10 -18q2 -6 0 -18q-2 -16 -2 -21v-6h25l8 74l-25 6zM1966 1384q35 -32 62 -38q-49 41 -62 38zM1991 1430l16 -21zM2034 1526l10 20zM2036 66q21 0 39 8v30l-39 9v-47zM2042 -322 q53 -25 127 -51l14 8q4 25 34 45.5t54 20.5q14 0 64 -12q0 41 2 94h-27q-70 -92 -268 -105zM2048 1395l10 20zM2048 1458l10 19zM2056 -705q43 -53 90 -225q43 -164 56 -174l18 2q-6 61 -31 184q-25 59 -67 181q-27 23 -66 32zM2060 1937q35 23 84 72l-39 8q-25 -27 -45 -80 zM2089 1374q0 -45 29 -104q41 -90 45 -101q-2 12 -15 82q-10 51 -10 84q0 47 16 60q27 -106 68 -322q18 18 19 51q0 41 -25 116t-25 114q0 23 7 45q-25 35 -25 47q0 16 20.5 45t36.5 35q2 -4 23 -43q14 -27 33 -27q51 0 51 70q0 35 -24.5 71.5t-57.5 36.5q-70 0 -121 -96 q-45 -84 -45 -164zM2103 1577l23 29zM2118 418q0 -31 51 -84q37 -4 108 -25q18 -12 56 -24l18 8v147q0 12 -14.5 30.5t-26.5 18.5l-18 -10q-14 -29 -29 -57q-20 -41 -37 -41q-16 31 -49 115h-25q-35 -70 -34 -78zM2132 596q0 -35 12 -51q29 20 56 96q29 90 43 111 q57 88 75 235q0 10 9.5 36t9.5 40q0 20 -29 71.5t-45 61.5q0 -244 -65 -365q-20 -18 -46 -49q-20 -74 -20 -186zM2165 1638l16 23zM2173 -1149q45 -61 86 -82l8 19q-12 18 -29 57l-20 -2q-20 0 -45 8zM2206 569q0 -45 30 -80q31 8 76 46t45 65q0 8 -4 23.5t-4 23.5h-63 q-6 0 -12.5 -6t-12.5 -6q-4 0 -14 16q4 4 41 58q16 23 22 71q4 18 10 39q-37 -43 -73 -119q-41 -86 -41 -131zM2206 -879l10 19zM2214 1438q20 -16 20 -45q0 -12 -5 -36t-5 -36q0 -53 111 -152q16 34 16 54q0 8 -6 23.5t-6 21.5q2 53 -4 159h-21q-37 -2 -100 35v-24z M2220 -772v-29q82 -121 82 -211q0 -14 -16 -20q-35 16 -35 35q-4 -29 -4 -33q0 -10 37 -57q45 -55 47 -60q12 102 12 234v53q0 49 -18.5 68.5t-67.5 19.5h-37zM2222 -901q7 -31 23 -92q0 25 -3.5 50t-19.5 42zM2241 459h14h-14zM2263 1675q20 12 53 47h-24q-18 -18 -29 -47z M2265 1745l19 33zM2290 -631q12 -41 28 -61l25 -2q-8 31 -6 80h-33zM2310 -485q7 -9 25 -17l-8 25zM2312 -74v-4q11 7 31 23l-8 30q-25 -25 -23 -49zM2316 682h27l6 76q-33 -29 -33 -53v-23zM2327 1765l12 27z" />
<glyph unicode="|" horiz-adv-x="0" d="M-735 557v1129q135 12 270 26q162 14 270 14h1641q70 0 207 -19t207 -19q18 0 57 7t59 7q98 0 125 -39q19 -29 19 -131q0 -90 -13 -246q-16 -176 -18 -244q-2 -47 2 -124q2 -90 2 -123q0 -16 -8 -39q-12 -29 -14 -41q-4 -25 -5 -129q0 -117 7.5 -349.5t7.5 -349.5v-399 q0 -35 -5 -107.5t-5 -107.5q0 -27 4 -79t4 -79q0 -100 -43 -141q-78 80 -191 80q-53 0 -158.5 -13.5t-160.5 -13.5l-2220 15q-27 29 -27 69q0 23 11.5 67t11.5 66v523q0 72 -4.5 215t-4.5 215q0 35 5.5 105.5t5.5 105.5q0 96 -39 149zM-645 180q12 -12 16 -30q20 6 47 8 q16 0 48.5 -2t44.5 -2q-8 4 -41 34q-27 25 -45 25h-39zM-633 422q0 -63 97.5 -142t164.5 -79q57 0 117 41v49q-131 76 -197 139q35 41 97 98q90 85 100 95v45q-39 16 -86 16q-16 0 -29 -6q-20 -27 -65 -70q-59 -39 -121 -78q-78 -55 -78 -108zM-631 -547q0 -129 2 -112 q25 12 56.5 38t31.5 46t-20 26q-27 8 -31 12v11q8 10 14 43q-6 29 -22 45q-31 -43 -31 -109zM-631 629l15 -62q32 0 61 29q0 14 -14 33h-62zM-631 1579q10 -94 104.5 -194.5t188.5 -100.5q31 0 45 19q-27 35 -76 81l-82 74l23 21q59 -23 184 -90q4 30 29 57q-41 66 -135 121 t-172 55q-37 0 -109 -43zM-629 -98l35 69zM-623 860q0 -25 23 -59q6 12 6 26q0 35 -16 52q-12 -2 -13 -19zM-618 59l86 -14q16 16 16 49l-72 15q-29 -29 -30 -50zM-618 715q29 -29 63 -29q39 0 53 31q-2 6 -43 45h-59zM-618 1188q0 -143 61 -293q78 -184 199 -184 q53 0 104 45q-78 61 -158 123q-86 80 -104 163l8 7q90 -74 121 -99q70 -53 131 -84q6 37 14 113q-12 35 -51 47q-57 16 -67 25q-61 43 -164 190q-6 41 -29 76q-27 43 -65 43v-172zM-606 -836q0 -39 45 -71q35 20 104 37q78 16 112 32.5t76 88t42 116.5q0 20 -19 39 q-35 -20 -80 -72q-51 -53 -77 -71l-21 20q8 12 88 101q70 78 70 94q0 31 -17 30q-29 0 -41 -12q2 25 -14 66q-8 -2 -174 -2q-2 -2 -9 -12.5t-7 -24.5q0 -39 71 -39q12 0 37 11t41 11t35 -4q-43 -43 -102.5 -75.5t-79.5 -55.5q-35 -39 -57.5 -124t-22.5 -83zM-604 -403h12 q49 -4 98 53q72 84 80 90q53 29 146 98v113l-19 14q-39 -20 -92 -67q-76 -66 -90 -76l-20 22q20 74 87.5 137.5t147.5 90.5v47l-16 16q-12 0 -37 7.5t-39 7.5q-70 0 -119 -91q-35 -74 -67 -149q-25 -37 -58 -107q0 -68 -14 -206zM-436 -381q51 -11 153 -31v50q-55 29 -82 28 q-47 0 -71 -47zM-319 1145q38 0 65 12l-12 4q-20 0 -53 -16zM-305 442q0 -31 43 -30h6v26q2 57 -18 76q-31 -33 -31 -72zM-279 1632q12 -25 52 -59q55 -45 64 -55.5t42 -94.5q27 -67 62 -73v59q0 49 -117 193l26 14q-31 33 -59 33q-12 0 -35.5 -7.5t-34.5 -9.5zM-242 -797 l33 -32q152 59 152 163q0 61 -41 111q-14 -102 -43 -143q-8 20 -4 67t-5 68q-8 14 -22 20q-6 -20 -25 -131q-12 -80 -45 -123zM-188 717q0 -43 5 -127t5 -127q0 -35 12 -98.5t12 -94.5q0 -43 -11 -130t-11 -130v-418q45 -43 98 -43q39 0 117 12.5t119 12.5q14 0 39.5 -12.5 t40.5 -12.5h1292q4 18 26 152q16 92 17 154v680q0 10 -5 27.5t-5 27.5q0 14 17 50t17 56q0 47 -31.5 137.5t-31.5 137.5q0 33 11 96t11 96q0 61 -28 80l-1501 14q-72 0 -158 -32q-4 -37 -35 -254q-23 -154 -22 -254zM-176 -864v-29h70q18 0 43 21q80 8 169 8q12 8 44 41 q-25 27 -25 55l2 6q39 27 96 91.5t84 109.5l-31 31h-38q-74 0 -99 -19q-53 -45 -152.5 -156.5t-162.5 -158.5zM-137 1604q45 -20 180 -152q117 -117 172 -117q31 0 39 27q-53 49 -221 149l20 21q18 -12 39 -25.5t39 -13.5q14 0 29.5 19.5t29.5 19.5q18 0 142.5 -98.5 t144.5 -98.5q39 0 39 39l-2 10q-43 98 -238 181q-174 72 -303 71q-20 0 -56 -15t-54 -17zM-123 350q0 53 9.5 155.5t9.5 153.5q0 31 -2 60l16 51q-23 156 -23 254q0 74 7 98q4 18 52 57.5t68 39.5l1483 -56v-1546q-186 -51 -526 -51q-139 0 -279 8q-57 4 -198 29 q-123 20 -197 20q-39 0 -119 -7t-121 -7q-90 0 -153 35v444q0 45 -13.5 132t-13.5 130zM-45 -303l31 -27q266 -6 364 -10q205 -6 365 -25q20 -20 49 -20q102 0 306 12.5t306 12.5q39 0 60 30q18 295 18 662q0 139 -14 383q-14 272 -17 383q-94 55 -163 55q-27 0 -81.5 -13.5 t-82.5 -13.5l-926 27q-35 2 -92 -6q-74 -10 -92 -12l-31 -37v-1401zM-31 -545l15 -102q55 33 73 88zM190 -813h60q59 27 172 92q51 55 151 127q18 -18 19 -35q0 -10 -7 -30.5t-7 -32.5q0 -94 47 -158q53 -72 145 -72q74 0 133 70q55 63 55 139q0 20 -27.5 69.5t-43.5 49.5 q-59 0 -84 -86q-29 -96 -58 -111q-35 66 -69 132q-57 104 -76 104q-12 0 -16 -7t-17 -7q-14 0 -34.5 20.5t-36.5 20.5q-8 0 -109 -21q-33 -86 -82 -145q-23 -31 -115 -119zM242 -901q49 -12 94 -12q36 0 61 8v59q-29 29 -47 29l-49 -49q-33 -29 -59 -35zM438 -809 q0 -66 45 -113l33 31l-16 166q-61 -41 -62 -84zM492 1608l14 -76q35 18 35 47q-27 29 -49 29zM528 -784q1 -74 64 -123v47q0 10 -23.5 47t-33.5 37zM621 1403h69q20 0 41 18q33 31 37 33q12 -45 55 -55q68 -16 78 -25l31 31q2 45 -58.5 125t-103.5 80t-96 -36t-53 -77v-94z M700 -565q12 -25 74 -25q30 0 53 12q0 18 -30 48q-47 -8 -97 -35zM934 -889q0 -31 49 -31q4 11 4 29q0 12 -3 37t-3 37q-4 -6 -25.5 -29.5t-21.5 -42.5zM934 1548q26 -26 63 -28v73l-63 15v-60zM985 1352q66 -43 109 -41l8 2q0 63 26 121q35 72 93 71l8 -14q0 -27 -16.5 -77 t-14.5 -79v-8q23 -27 57 -29q37 57 111 150q88 108 115 145q-35 0 -108 8.5t-109 8.5q-72 -29 -162 -90q-117 -80 -117 -127v-41zM1012 -559q43 -162 196 -260q143 -88 318 -88q78 -1 125 24q-6 6 -88 68q-55 39 -80 74q-12 16 -60 112q-39 80 -65 99h-150q84 -123 168 -228 l-18 -8l-2 2q-74 16 -139 72q-74 63 -68 131q-14 33 -47 33q-37 0 -90 -31zM1053 -778v-99l30 -30l33 30q-2 57 -63 99zM1456 1477q2 -102 60 -154l16 86q-33 68 -76 68zM1481 -561q0 -51 32 -123q39 -80 84 -78v45q-20 20 -38 109q-14 72 -60 78q-18 -14 -18 -31z M1534 1524l29 -31q20 0 47 29v61q-31 -14 -43 -24q-25 -14 -33 -35zM1624 -408q20 -20 64 -41q0 49 34 50q20 0 53 -26t54 -26h41v50q-8 4 -60 41q-37 27 -63 26h-107zM1624 879q0 -49 29 -103q63 -2 139 105q57 78 113 155l20 -22q2 -20 2 -21q0 -66 -100 -162 q-76 -74 -162 -124v-48q119 -41 135 -41q70 0 154 254q76 228 76 326q0 76 -17 111q-33 -4 -61 -54q-23 -39 -43 -77q-43 -57 -127 -125q-70 -55 -140 -111q-18 -43 -18 -63zM1624 1393l8 -2q29 0 120 67.5t165 73.5l8 -8v-35q-72 -47 -209 -150q14 0 42 -8t42 -8 q63 0 146.5 79t83.5 142q0 45 -17 78h-184q-68 0 -123 -88q-41 -72 -82 -141zM1626 -266l139 -15v48q-55 31 -82 30q-51 0 -57 -63zM1626 -621v-47q37 -92 133 -165.5t191 -73.5q33 -1 53 30q-47 102 -96 205q-70 129 -160 129h-55q-2 -37 61 -108q47 -55 94 -94v-23l-8 -10 q-115 94 -213 157zM1636 272l31 -32h119q45 0 111.5 62.5t66.5 107.5q0 23 -84 102.5t-106 79.5h-70q6 -16 43 -74q35 -49 35 -69q0 -41 -146 -177zM1638 23q35 -72 121 -211q51 -45 135 -156q12 -55 62 -160q47 39 47 176q0 131 -18 224q-6 37 -88 144t-111 107h-43 q168 -242 170 -317l-8 -8q-84 96 -250 287q-8 -27 -17 -86zM1640 473l15 -74h16l2 23q2 35 -33 51zM1729 1130h51q0 25 -19 35zM1755 1245q53 -39 84 -39q18 0 32.5 15.5t26.5 31.5h-69q-43 0 -74 -8zM1886 184q6 -31 31 -59.5t53 -28.5q31 0 31 17v59q-25 23 -66 23 q-31 0 -49 -11zM1898 598q0 -14 29 -45h58l30 33q-10 18 -36.5 38.5t-47.5 20.5q-33 0 -33 -47zM1939 244q15 -15 48 -15q0 47 -15 60h-33v-45zM1978 711q12 2 31 13t19 21l-31 17q-18 0 -19 -51z" />
<glyph unicode="}" horiz-adv-x="0" d="M-913 -823q12 10 36 69q16 43 60 47q-55 41 -55 183q0 82 4 241.5t4 241.5q0 27 -16.5 77t-16.5 79l4 276q2 121 35 375q31 244 31 373q0 115 -13 250q10 10 11 526q0 37 51 86l112 -2l-2 -86l19 -19q20 18 53 62.5t53 62.5q16 -6 33 -30q25 -37 27 -39q27 14 80 43h41 q4 -35 20 -105q20 14 66 41q176 78 456 78q350 0 406 -18q12 -6 12 -29q0 -16 -37 -90q-23 -47 -47 -94l16 -31q6 2 27 27q16 18 33 18q12 0 33.5 -7t33.5 -7q37 119 58 155q49 88 125 88q59 0 104 -69q41 -61 41 -125q0 -35 -14 -58q16 -12 90 -10q8 -29 8 -63 q0 -31 -8 -58l20 -20l109 8q-33 33 -33 80q0 27 24.5 76t24.5 75q0 16 -27.5 53.5t-27.5 53.5v63q76 -37 152 -36q45 0 134 20.5t134 20.5q78 0 241 -68q61 -25 142 -86q109 -88 131 -102q-6 70 -23 208l29 27q45 -10 83 -53t46 -90q33 55 76 94t88 80l39 -2l22 -27 q-27 -334 -26 -446q0 -500 14 -678q2 -23 16.5 -72t12.5 -76l-49 -837q-2 -25 -19.5 -74t-17.5 -78q0 -33 6 -98.5t6 -97.5q0 -61 -54.5 -140.5t-52.5 -109.5l3 -15q12 0 40 23q18 18 39 35q16 -10 17 -35q0 -100 -13 -150q-18 -76 -75 -125q12 -18 43.5 -38.5t44.5 -32.5 q41 -47 51 -90t20 -90l-2132 -72q-53 0 -152 10t-149 10q-248 0 -442 19q-14 0 -45 12t-47 12q-51 0 -150.5 -9t-148.5 -9q-70 0 -70 57q0 109 97 150q-8 18 -59.5 59t-51.5 62q0 23 43 43q-18 14 -57 47zM-848 240q0 -303 49 -547q72 -356 236 -469v41q-80 88 -158 432 q-70 307 -70 473q0 276 72 606q27 117 160 264q109 117 141 140q72 51 191 51q37 0 66.5 -38t31.5 -75l-10 -6q-49 23 -107 25q-14 -43 -14 -47q0 -25 25.5 -47.5t50.5 -22.5q37 0 87 47t50 84q0 51 -68.5 94t-122.5 43q-14 0 -52 -24.5t-54 -28.5q-45 -8 -88 -16 q-49 -12 -84 -33q-176 -106 -264 -426q-68 -244 -68 -520zM-817 -733q86 -68 278 -289h43q-33 33 -79 109q33 14 32 45v8q-43 -20 -73 -33q-35 20 -46 53q-2 6 -10 72q-33 43 -106 123q0 -29 -39 -88zM-813 -1137q0 -12 6 -21t6 -11q41 6 96 30q87 39 91 41l-148 19 q-51 -25 -51 -58zM-797 -846v-31q80 -59 150 -96q-41 51 -131 142zM-772 1878q0 -82 16.5 -252t14.5 -258q23 84 45 168q26 100 26 170q0 66 -45 211q-57 0 -57 -39zM-764 1020q23 2 47 24q-6 23 -6 48q0 70 43 165q70 156 70 160q79 235 198 352l-28 15q-35 -27 -80 -80 q-57 -66 -78 -84q-6 -25 -90 -236q-55 -141 -55 -243q-23 -20 -21 -68v-53zM-735 -31q0 -27 18 -28q-2 80 86 183t170 103q53 0 106.5 -45t53.5 -98q0 -39 -28.5 -77t-65.5 -38q-45 0 -70 54q-31 66 -53 77q-115 -145 -115 -262q0 -43 29 -88q43 63 131 184l29 -20 q0 -14 -11.5 -46t-11.5 -48q0 -41 25 -107q47 39 88 119q35 68 69 135q25 -25 35 -59q14 90 14 170q0 37 -4 67q-27 23 -63 109q-27 25 -87.5 46.5t-98.5 21.5q-76 0 -164 -140q-82 -131 -82 -213zM-725 326q57 164 160 307q135 188 260 188q14 0 38.5 -10t35.5 -12l2 53 q-41 41 -86 41q-162 0 -310 -209q-14 -18 -33.5 -66.5t-39.5 -72.5q-8 -127 -27 -219zM-694 231q51 52 151 148q-49 -23 -149 -68zM-666 1145q55 72 164 178q-31 27 -30 45q0 14 94 98t94 123t-43 41q-106 -68 -176 -217q-18 -39 -103 -268zM-647 735q65 91 186 275l-53 2 q-137 -133 -133 -277zM-625 408q14 14 30.5 32.5t16.5 34.5q-35 -20 -47 -67zM-618 1729q47 75 92 184h-43q-49 -102 -49 -184zM-596 -1116h66h-66zM-592 -467q0 -106 35 -170q29 160 49 432q-84 -98 -84 -262zM-551 1716q69 84 141 154l-14 65q-127 -78 -127 -219z M-549 -809q0 -29 49 -76q41 -41 74 -57q-16 33 -55 81t-66 60zM-537 586q0 -18 11.5 -54t11.5 -57l49 2q68 2 156 -49q41 -25 82 -51q2 25 9 74.5t7 76.5q0 45 -18 111q-29 104 -31 109q-37 29 -57 28q-45 0 -132.5 -73.5t-87.5 -116.5zM-532 852q156 88 223 88q27 0 80 -37 l2 78q0 10 -29 62.5t-37 95.5l-4 22q-102 -39 -184 -98q43 8 71 8q29 0 45 -10q-25 -45 -167 -209zM-518 1227q106 70 246 94q67 13 262 27q-66 45 -115 45q-96 0 -212 -49.5t-181 -116.5zM-494 414q23 -6 207 -88q-31 90 -135 88h-72zM-487 -586q0 -59 22 -88q12 59 25 119 q20 80 63 90l-12 39q74 98 78 133q6 71 14 96q-111 -117 -141 -172q-49 -86 -49 -217zM-440 1317q158 123 327 123q45 0 114 -48.5t79 -48.5l156 -4q0 39 23 71t60 26q-6 14 -24 43q-33 33 -121 55q-74 18 -135 18h-90q-82 0 -137 -10q-43 -10 -138.5 -96t-113.5 -129z M-438 156q6 -39 24 -115q43 20 66 63q-31 25 -90 52zM-381 1667l19 23zM-375 1812l39 -30q86 41 174 82q117 53 174 53q121 0 232 -47q139 -61 139 -166q0 -29 -8 -57q14 -41 47 -41t55.5 32.5t22.5 65.5q0 55 -176 160q-168 98 -234 98q-100 0 -244 -43q-152 -47 -221 -107 zM-373 -778q25 -25 45 -35v-39q-4 -49 23 -66q45 -29 53 -38q18 -39 76 -105q231 -156 483 -156q31 0 105.5 50.5t74.5 79.5q0 25 -31.5 59.5t-54.5 34.5q-45 0 -41 -56q10 -14 33 -45q-16 -25 -92 -43q-66 -16 -108 -16q-57 0 -175 55q-104 47 -163 92q-72 53 -117 168 q-39 102 -39 203q0 16 27.5 47t48.5 39q29 -59 65 -59q20 0 40 18.5t20 38.5q0 37 -36 60.5t-75 23.5q-104 0 -141 -113q-20 -66 -21 -198zM-342 -1110l68 -37zM-309 1538q236 63 332 64q147 0 237 -52q117 -63 107 -198q8 -2 24.5 -9.5t26.5 -7.5q143 0 194 11q20 2 35 30 q19 39 25 45q-66 16 -131 33q-90 31 -90 76q0 31 61 55q53 20 90 19q-10 59 -61 94q-35 -80 -45 -92q-29 -35 -90 -35q-80 0 -97 33q-8 14 -8 102q0 102 -160 123q35 -37 35 -82q0 -70 -67 -100l-31 30q2 12 11 35t9 35q0 25 -20 47q-10 6 -27 6q-59 0 -61 -49 q-2 -70 -25 -90q-35 8 -49 72q-14 57 -51 57q-16 0 -45 -7t-43 -7q61 -27 59 -56q-59 -4 -84 -34q-12 -16 -26.5 -68.5t-34.5 -79.5zM-283 -418l15 33zM-256 -741q0 -37 63 -125q4 12 5 73q0 90 55 91q10 0 18.5 -6.5t16.5 -6.5q23 0 56.5 34.5t33.5 57.5q0 20 -15 35h-40 q-55 -51 -71 -57t-93 -6q-16 0 -27 -6zM-203 -383q4 -2 103 -88q70 -59 110 -59q152 0 457 21.5t459 21.5q84 0 250.5 -4.5t250.5 -4.5q68 0 144 35q68 35 133 68v22q0 61 8 179t8 176q0 152 -2 200q0 12 -7 39t-7 41q0 139 12 363q14 289 17 362q10 20 22 21q10 -70 8 -199 q25 2 66 33q49 35 69 41q12 4 31 0q25 -2 29 -2q18 0 16 26v21q-43 43 -119 135q-68 -20 -96 -21q-14 0 -29.5 23t-29.5 23l-49 2q-12 -614 -13 -629q0 -76 4.5 -228.5t4.5 -228.5q0 -150 -25 -194q12 -43 12 -88q0 -111 -88 -125q-6 -2 -100 -23q-61 -12 -100 -12l-1190 20 q-29 0 -79 -16.5t-77 -16.5q-129 0 -129 103q0 145 13.5 433t13.5 433q0 14 -7.5 40t-7.5 40l6 393h-67zM-131 -920q25 -27 102 -65v16q-2 41 13 66q37 2 65 29q35 35 47 38q10 -18 13 -38q2 -16 0 -41q-2 -33 -3 -43q0 -59 60 -113q14 55 45 166q100 109 278 108 q66 0 107 -12q-2 18 2 50t4 46q0 18 -4 31q-57 12 -113 25q-68 16 -112 16q-47 0 -92 -49q-70 -74 -76 -78h-33q-33 27 -31 84q0 70 -12 92h-41q-4 -12 -20 -119q25 -23 24 -39q0 -27 -86 -131q-10 16 -19.5 36t-9.5 34q0 20 18.5 66.5t20.5 62.5q-57 -49 -71 -100 q-29 -94 -35 -109l-16 2q-16 0 -19 -10q-2 -16 -6 -21zM-68 -18q0 -20 9 -54q10 -43 12 -53q6 -33 2 -82q-4 -70 -4 -82q0 -63 24 -110q186 43 275 41l1132 -21q20 0 88 21q80 23 95 26q0 170 6 645q6 423 6 648q0 18 18 73q18 49 11 74q-10 35 -74 47q-53 12 -121 12 q-29 0 -83 -10t-83 -10l-1112 6q-164 2 -170 -86q-4 -129 -10 -385q-20 -637 -21 -700zM-68 1284q37 -82 62 -82q27 0 77 17.5t79 15.5q1073 -18 1085 -18q176 0 436 43q35 26 39 53q-29 0 -90 6t-94 6q-25 0 -74 -8t-74 -8q-18 0 -53 12t-53 12q-12 0 -35 -11t-35 -11z M59 -987q6 -23 11 -70l6 17q0 23 -17 53zM178 -674q0 -20 15 -35q14 6 40 13q17 29 52 88q-6 0 -20.5 8t-26.5 8q-18 0 -39 -30.5t-21 -51.5zM231 -1020q0 -41 25 -63q31 0 39 18q2 8 2 45q0 109 123 109q84 0 168 -156q8 25 26 72q6 -2 17.5 -14.5t25.5 -12.5 q12 0 18.5 11.5t18.5 11.5q14 0 27 -17l18 -31q14 14 23 39q16 41 16 43q20 0 39 -18q-20 -39 -20 -76q2 4 26 70q10 23 74 22l16 -8l-2 -61q33 47 67 92t103 45q94 0 127 -23q20 -12 28.5 -55t31.5 -65l18 135q-84 66 -158 65q-72 0 -211 -31.5t-210 -31.5q-43 0 -123 25.5 t-123 25.5q-92 0 -126 -12.5t-69 -66.5t-35 -87zM330 1903q33 -20 67 -43q51 -33 64 -33q18 0 41 26l2 66q-57 -10 -58 -10q-18 0 -51 16q-41 18 -51 21zM344 -551q131 -82 193 -82q42 0 110 66q-100 6 -303 16zM520 1520q78 -56 246 -56q-104 53 -246 56zM608 1741 q-2 -31 47 -72q43 -37 78 -43q-76 104 -125 115zM629 -1075q10 -12 28 -17q9 9 9 29q0 12 -9 31q-14 -14 -28 -43zM670 -729v-57q39 -31 121 -74q53 51 53 127q-4 0 -49 22q-31 16 -50 17q-16 0 -38 -15q-29 -18 -37 -20zM725 1804q0 -35 35 -80t67 -45q43 0 72 50 q25 40 25 83q0 39 -28 82t-65 43q-33 0 -69.5 -49t-36.5 -84zM870 -563q66 -78 117 -78q27 0 81.5 31.5t70.5 56.5l-240 18zM872 1458q72 29 222 68q0 27 -15 45q-55 -6 -118 -35q-78 -35 -89 -78zM874 1565q48 20 140 69l-13 54q-37 -12 -76.5 -51.5t-50.5 -71.5zM883 -664 q31 -63 30 -86q0 -35 -22 -73q223 16 250 16q57 0 128.5 -55.5t71.5 -110.5q0 -18 -10 -35l53 -2q18 16 52 47l2 43q-61 23 -80 66q34 0 104 16q-57 51 -71 109q-8 -12 -23 -12q-33 0 -69.5 54t-53.5 54q-49 0 -136 -32.5t-136 -32.5q-45 0 -90 34zM975 1413l26 -41h86 q41 -2 115 41q109 63 154 82q106 43 227 43q43 0 125 -12.5t123 -14.5q-33 45 -109.5 61.5t-87.5 39.5v24l41 19q20 -23 68 -60h43q-6 31 31 45q55 -53 149 -163q98 -117 149.5 -167t106.5 -173q57 -130 100 -179q-74 369 -372 617q-57 31 -154 102q-6 14 -22 41 q-121 10 -129 13q-72 14 -101 71q29 27 35 51h-53q-4 -2 -94 -30q-53 -16 -64 -68q68 -37 68 -102q0 -41 -30 -63.5t-71 -22.5q-57 0 -143 47q16 -25 16 -47q0 -39 -98 -76q-111 -43 -135 -78zM1004 -1032q0 -63 151 -90q92 -16 201 -17q180 0 239 23q158 59 232 141 q84 94 84 252q0 268 -178 268q-113 0 -113 -98q0 -29 14 -39l64 -2q18 27 67 70q86 -137 86 -197q0 -152 -170 -276q-160 -119 -317 -119q-47 0 -123 26q-86 31 -98 66q12 25 35 74q-53 -8 -107 -17q-68 -12 -67 -65zM1188 -594l18 2q39 0 86 -37q55 -45 78 -53l2 43 q-66 76 -133 76q-20 0 -51 -31zM1217 1749q0 -49 49 -82q43 -31 94 -31q31 0 31 27l-2 29q-8 4 -60 8q-33 4 -43 37q0 72 14 100q178 100 271 100q33 0 164 -57q117 -51 166 -82t137 -117q98 -98 98 -135q-2 -8 -6 -20l-2 2q-41 2 -64 59h-43q68 -82 191 -256 q18 -31 72 -153q43 -96 88 -146v41q2 88 -43 221q-100 303 -328 478q-236 180 -549 180q-33 0 -53 -4q-39 -10 -110.5 -85t-71.5 -114zM1280 1382q76 -29 98 -28q27 0 85.5 12t90.5 12q268 0 351 -14q14 -2 61 -16q37 -13 62 -13q-158 154 -326 154q-125 0 -406 -68z M1376 -532q18 -31 51 -99q-10 -29 -8 -55l2 -31q29 -6 90 -14v43q-39 45 -38 61q0 18 24 35q45 -43 92 -86q61 -59 62 -104q0 -16 -11 -33q20 25 74 57q14 -23 21.5 -55.5t13.5 -63.5q55 68 55 134q0 43 -24 110q-156 -18 -138 -18q-49 0 -86.5 65.5t-52.5 65.5 q-20 0 -63 -6t-64 -6zM1413 -1042l41 -2q59 0 110.5 71.5t51.5 132.5q0 53 -53 142q0 -12 3 -35t3 -33q0 -25 -19 -49q-23 14 -49 14q-12 0 -26 -6q35 -27 34 -74q0 -45 -28.5 -95t-67.5 -66zM1616 1825q26 -15 92 -15q-37 18 -72 19zM1626 -967q29 8 55.5 33.5t26.5 52.5 q0 12 -29 41q-18 -25 -53 -127zM1647 -1165q18 8 79 8q18 0 29 15.5t19 29.5h-54q-35 -14 -73 -53zM1698 1196q0 -33 59 -94h41q16 20 33.5 43.5t17.5 42.5q0 16 -16 34.5t-29 34.5l64 7q47 -14 137 -64q51 -43 144.5 -159.5t123.5 -178.5q4 -8 4 -90q0 -88 30 -260t30 -260 q0 -45 -4 -125q-6 -88 -6 -123q47 219 47 442q0 133 -11 207q-33 211 -165 424q-160 258 -340 258q-49 0 -104.5 -45t-55.5 -94zM1755 520q0 -23 4 -39q23 16 70 47q-6 -68 -6 -139q0 -84 10 -209l20 -2q2 147 97 148q66 0 106 -35q39 -43 78 -84l2 41q0 23 -84 170t-84 166 q0 14 6 17t15 5h30q70 -59 121 -71l2 53q-39 35 -110 80q-86 57 -115 57q-55 0 -80 -43q-43 -76 -51 -84l-25 12q-2 -14 -4 -43.5t-2 -46.5zM1761 -92q6 -176 2 -314q20 -10 52 -10q27 0 40 8l5 193q-55 76 -99 123zM1761 123q14 -53 29 -109q16 -66 41 -104 q72 -98 141 -197q72 -109 72 -223q0 -16 10 -46t10 -44q0 -39 -24.5 -111.5t-24.5 -109.5q96 106 96 243q0 61 -37.5 220t-66.5 200q-76 102 -154 205q-74 117 -67 246q-14 -14 -25 -170zM1800 1720q59 -39 185 -106v43q-68 49 -86.5 55t-98.5 8zM1808 739q68 43 105 43 q121 0 233 -135q96 -117 129 -250v21q6 133 -88 270q-100 150 -231 143l-23 33q-94 -51 -125 -125zM1847 -1077v-58l86 -2q27 25 27 56q-12 0 -37 -10.5t-37 -10.5q-14 0 -39 25zM1855 150q61 -90 121 -181q72 -111 103 -192q0 -2 22 -109q14 -74 45 -94q31 207 31 240 q0 109 -33 206q-43 129 -119 130q-18 0 -49.5 -17.5t-44.5 -17.5q-14 0 -76 35zM1896 -330q27 -125 78 -375q33 91 33 130q0 127 -111 245zM1896 1102q27 -6 84 -39q44 -23 101 -25q-12 43 -66.5 87t-95.5 44l-10 -2zM1927 188q12 0 33.5 5.5t34.5 5.5q6 24 12 77l-65 3z M1929 1026q68 -82 111 -125q84 -84 129 -86l2 53q-141 139 -242 158zM1931 -1020q72 43 189 178q129 148 129 211l-2 15q-27 -39 -150 -183.5t-151 -165.5zM2009 -1122q33 -4 59 -4q23 0 67 10t67 10q18 0 43 -18q33 -27 36 -31h54v53q-47 53 -68 53q-27 0 -125 -30 q-68 -20 -133 -43zM2034 -1055q70 29 137 58q77 32 108 98q-55 -23 -125 -72q-61 -41 -120 -84zM2085 475q14 -45 80 -215q51 -131 65 -219q22 4 45 27q-37 193 -49 229q-43 127 -141 178zM2107 -940q181 86 179 160v12q-6 -8 -103 -80q-74 -55 -76 -92zM2120 1851 q0 -23 10 -59q12 -43 14 -61q35 -43 109 -121l2 57q0 53 -41 145q-49 104 -94 101v-62zM2161 -649q135 252 129 403l-2 39q-37 -106 -127 -442zM2257 1608q33 -88 108 -258q5 204 5 198q0 35 -14.5 104.5t-14.5 104.5q0 29 5 84t5 80q-70 -12 -70 -149q0 -20 10.5 -63.5 t8.5 -68.5l-2 -24q-10 -20 -41 -8zM2286 -535l18 48zM2296 -150q0 -29 4 -45q0 18 8 54.5t8 52.5q0 27 -16 45q0 -16 -2 -52t-2 -55z" />
<glyph unicode="&#xad;" d="M43 479v72h545v-72h-545z" />
<glyph unicode="&#xf0;" horiz-adv-x="1302" d="M18 596q12 10 15 43q41 10 108 35q29 18 31 82q0 76 12 96q84 143 285 215q174 53 348 109q2 -23 17 -86q-70 -41 -70 -367q0 -53 0 -49q4 -31 27 -31q25 0 74.5 10.5t76.5 10.5q59 0 115 -21q68 -23 88 -65q70 -143 69 -383q0 -59 11 -84q12 -35 59 -54l2 -55h-182 q16 25 30.5 49.5t14.5 57.5q0 223 -29 317q-55 176 -225 176q-68 0 -111 -51q2 -76 0 -193q-2 -160 -2 -190q0 -88 60 -111l10 -57q-31 10 -113 6q-133 -6 -116 -6q6 10 43 66q29 41 32 71q14 154 15 377q0 51 -4 61.5t-107 18.5q-80 8 -123 8q-37 0 -110.5 -4t-110.5 -4 l-22 -23q8 -76 8 -393q0 -78 59 -78q16 0 70 27q37 16 73 33q-57 -160 -180 -160q-57 0 -88 72q-25 55 -24 121q0 47 4 142t4 142q0 55 -4 94q-12 14 -64 19q-39 2 -76 6zM233 692q0 -10 39 -43q53 6 136 4q129 -6 135 -6q156 0 170 21q0 33 2 106v105q0 87 -23 163h-14 q-164 2 -295 -90q-150 -102 -150 -260z" />
<glyph unicode="&#x2000;" horiz-adv-x="1040" />
<glyph unicode="&#x2001;" horiz-adv-x="2081" />
<glyph unicode="&#x2002;" horiz-adv-x="1040" />
<glyph unicode="&#x2003;" horiz-adv-x="2081" />
<glyph unicode="&#x2004;" horiz-adv-x="693" />
<glyph unicode="&#x2005;" horiz-adv-x="520" />
<glyph unicode="&#x2006;" horiz-adv-x="346" />
<glyph unicode="&#x2007;" horiz-adv-x="346" />
<glyph unicode="&#x2008;" horiz-adv-x="260" />
<glyph unicode="&#x2009;" horiz-adv-x="416" />
<glyph unicode="&#x200a;" horiz-adv-x="115" />
<glyph unicode="&#x2010;" d="M43 479v72h545v-72h-545z" />
<glyph unicode="&#x2011;" d="M43 479v72h545v-72h-545z" />
<glyph unicode="&#x2012;" d="M43 479v72h545v-72h-545z" />
<glyph unicode="&#x2013;" horiz-adv-x="1115" d="M43 479v72h1024v-72h-1024z" />
<glyph unicode="&#x2014;" horiz-adv-x="2139" d="M43 479v72h2048v-72h-2048z" />
<glyph unicode="&#x2018;" horiz-adv-x="432" d="M31 1087l86 136q-45 39 -45 114l4 15q96 61 114 61q23 0 44.5 -38.5t21.5 -61.5q0 -20 -49 -66h2l-131 -182z" />
<glyph unicode="&#x2019;" horiz-adv-x="432" d="M31 1087l86 136q-45 39 -45 114l4 15q96 61 114 61q23 0 44.5 -38.5t21.5 -61.5q0 -20 -49 -66h2l-131 -182z" />
<glyph unicode="&#x201c;" horiz-adv-x="501" d="M31 1087l86 136q-45 39 -45 114l4 15q96 61 114 61q23 0 44.5 -38.5t21.5 -61.5q0 -20 -49 -66h2l-131 -182zM248 1081l86 136q-45 39 -45 114l4 15q96 61 115 61q23 0 44 -38.5t21 -61.5q0 -20 -49 -66h2l-131 -182z" />
<glyph unicode="&#x201d;" horiz-adv-x="501" d="M31 1087l86 136q-45 39 -45 114l4 15q96 61 114 61q23 0 44.5 -38.5t21.5 -61.5q0 -20 -49 -66h2l-131 -182zM248 1081l86 136q-45 39 -45 114l4 15q96 61 115 61q23 0 44 -38.5t21 -61.5q0 -20 -49 -66h2l-131 -182z" />
<glyph unicode="&#x202f;" horiz-adv-x="416" />
<glyph unicode="&#x205f;" horiz-adv-x="520" />
<glyph unicode="&#xe000;" horiz-adv-x="665" d="M0 0v666h666v-666h-666z" />
</font>
</defs>
</svg>
